<?xml version="1.0" encoding="UTF-8" standalone="no"?>
<!-- Created with Inkscape (http://www.inkscape.org/) -->

<svg
   xmlns:dc="http://purl.org/dc/elements/1.1/"
   xmlns:cc="http://creativecommons.org/ns#"
   xmlns:rdf="http://www.w3.org/1999/02/22-rdf-syntax-ns#"
   xmlns:svg="http://www.w3.org/2000/svg"
   xmlns="http://www.w3.org/2000/svg"
   xmlns:sodipodi="http://sodipodi.sourceforge.net/DTD/sodipodi-0.dtd"
   xmlns:inkscape="http://www.inkscape.org/namespaces/inkscape"
   width="810.89606mm"
   height="221.44006mm"
   viewBox="0 0 810.89605 221.44006"
   version="1.1"
   id="svg8"
   inkscape:version="0.92.3 (2405546, 2018-03-11)"
   sodipodi:docname="parking3.svg">
  <sodipodi:namedview
     id="base"
     pagecolor="#ffffff"
     bordercolor="#666666"
     borderopacity="1.0"
     inkscape:pageopacity="0.0"
     inkscape:pageshadow="2"
     inkscape:zoom="0.35"
     inkscape:cx="1695.7179"
     inkscape:cy="292.09702"
     inkscape:document-units="mm"
     inkscape:current-layer="layer1"
     showgrid="false"
     inkscape:window-width="2493"
     inkscape:window-height="1385"
     inkscape:window-x="2627"
     inkscape:window-y="27"
     inkscape:window-maximized="1"
     fit-margin-top="0"
     fit-margin-left="0"
     fit-margin-right="0"
     fit-margin-bottom="0"
     inkscape:snap-nodes="false"
     inkscape:snap-global="false" />
  <defs
     id="defs2" />
  <metadata
     id="metadata5">
    <rdf:RDF>
      <cc:Work
         rdf:about="">
        <dc:format>image/svg+xml</dc:format>
        <dc:type
           rdf:resource="http://purl.org/dc/dcmitype/StillImage" />
        <dc:title />
      </cc:Work>
    </rdf:RDF>
  </metadata>
  <g
     id="layer1"
     inkscape:groupmode="layer"
     inkscape:label="Layer 1"
     transform="translate(204.80442,44.812048)">
    <path
       inkscape:connector-curvature="0"
       id="path815"
       d="m 153.30823,111.71665 26.46524,-0.72145 26.64638,0.22505 28.70442,2.69937 3.00933,1.72637 1.11793,1.89939 0.543,2.83951 -0.33519,39.68608 -2.11071,3.76207 -2.84429,1.10995 -15.50606,1.00301 -65.95755,-0.17909 -9.05994,-1.39948 -5.83927,-2.31726 -2.41845,-4.5563 -0.70007,-6.62073 0.21548,-25.51248 1.55655,-5.27871 2.87782,-5.07856 5.88076,-2.59625 z"
       style="fill:#c7c7c7;fill-opacity:1;stroke:#000000;stroke-width:0.26458332px;stroke-linecap:butt;stroke-linejoin:miter;stroke-opacity:1" />
    <path
       sodipodi:nodetypes="ccccccccc"
       inkscape:connector-curvature="0"
       id="path819"
       d="m -96.873975,-7.9837113 -0.901684,-9.7859367 -6.349011,-0.933301 -7.64903,-0.623737 -10.88039,1.382109 1.18168,14.8844129 10.17964,-0.74817 7.83466,-1.481044 z"
       style="fill:#c7c7c7;fill-opacity:1;stroke:#000000;stroke-width:0.26458332px;stroke-linecap:butt;stroke-linejoin:miter;stroke-opacity:1" />
    <path
       inkscape:connector-curvature="0"
       id="path823"
       d="m -121.99461,-18.202564 -12.42756,-5.110481 -37.44999,3.450673 -5.00449,7.479562 1.3243,14.3725583 7.43005,6.4864072 37.26181,-3.4333333 10.44807,-8.1337124 z"
       style="fill:#c7c7c7;fill-opacity:1;stroke:#000000;stroke-width:0.23722944px;stroke-linecap:butt;stroke-linejoin:miter;stroke-opacity:1" />
    <path
       style="fill:#c7c7c7;fill-opacity:1;stroke:#000000;stroke-width:0.26458332px;stroke-linecap:butt;stroke-linejoin:miter;stroke-opacity:1"
       d="m -198.31371,-8.1643799 0.90169,9.7859368 6.34901,0.9333012 7.64902,0.6237366 10.8804,-1.3821094 -1.18168,-14.8844123 -10.17965,0.74817 -7.83466,1.481044 z"
       id="path825"
       inkscape:connector-curvature="0"
       sodipodi:nodetypes="ccccccccc" />
    <path
       id="rect831"
       d="m 118.83882,170.76213 -81.187742,1.27575 -2.4293,-0.88494 -2.00738,-2.48891 -1.3834,-3.72268 -0.55732,-4.58624 -0.47119,-29.98566 0.41296,-4.60148 1.26574,-3.76431 1.92819,-2.55075 2.4003,-0.96084 81.187742,-1.27576 2.4293,0.88495 2.00739,2.48891 1.3834,3.72268 0.5573,4.58624 0.47119,29.98566 -0.41294,4.60148 -1.26574,3.76431 -1.9282,2.55075 -2.4003,0.96084 v 0"
       style="fill:#c7c7c7;fill-opacity:1;stroke:#000000;stroke-width:0.37149459;stroke-miterlimit:4;stroke-dasharray:none;stroke-dashoffset:0;stroke-opacity:1;paint-order:markers stroke fill"
       inkscape:connector-curvature="0" />
    <path
       style="fill:#c7c7c7;fill-opacity:1;stroke:#000000;stroke-width:0.26458332px;stroke-linecap:butt;stroke-linejoin:miter;stroke-opacity:1"
       d="m -63.875182,120.47418 26.27461,-3.25285 26.54544,-2.32803 28.83099,-0.0622 3.16085,1.43022 1.2947,1.78359 0.81245,2.77445 3.46729,39.53575 -1.7407,3.94693 -2.72491,1.37726 -15.3387103,2.48348 -65.6716297,6.13882 -9.15232,-0.52533 -6.03436,-1.74735 -2.84372,-4.30374 -1.33094,-6.52324 -2.22896,-25.41584 1.04381,-5.40352 2.3782,-5.33083 5.60508,-3.14755 z"
       id="path1016"
       inkscape:connector-curvature="0" />
    <path
       inkscape:connector-curvature="0"
       id="path1018"
       d="m -172.94704,122.44508 26.45833,-0.94494 h 26.64732 l 28.726188,2.45684 3.02381,1.7009 1.13393,1.88988 0.56696,2.83482 v 39.6875 l -2.07886,3.77976 -2.83482,1.13393 -15.497028,1.13393 -65.95684,0.37797 -9.07143,-1.32291 -5.85863,-2.26786 -2.45685,-4.53572 -0.75595,-6.61458 v -25.51339 l 1.5119,-5.29167 2.83483,-5.10268 5.85863,-2.64583 z"
       style="fill:#c7c7c7;fill-opacity:1;stroke:#000000;stroke-width:0.26458332px;stroke-linecap:butt;stroke-linejoin:miter;stroke-opacity:1" />
    <path
       style="fill:#c7c7c7;fill-opacity:1;stroke:#000000;stroke-width:0.26458332px;stroke-linecap:butt;stroke-linejoin:miter;stroke-opacity:1"
       d="m 393.58363,105.44992 26.45833,-0.94494 h 26.64733 l 28.72618,2.45684 3.02383,1.7009 1.13394,1.88988 0.56696,2.83482 v 39.6875 l -2.07887,3.77976 -2.83484,1.13393 -15.49702,1.13393 -65.95685,0.37797 -9.07143,-1.32291 -5.85863,-2.26786 -2.45685,-4.53572 -0.75595,-6.61458 v -25.51339 l 1.5119,-5.29167 2.83483,-5.10268 5.85863,-2.64583 z"
       id="path1020"
       inkscape:connector-curvature="0" />
    <path
       inkscape:connector-curvature="0"
       id="path1022"
       d="m 181.0991,-42.460287 27.97522,-1.56928 28.19875,-0.62904 30.46011,1.77802 3.24238,1.62905 1.24717,1.86258 0.67081,2.820648 0.99171,39.6764999 -2.10545,3.82778 -2.97155,1.20054 -16.37099,1.49945 -69.78755,1.9348701 -9.63268,-1.10839 -6.2564,-2.1289201 -2.71324,-4.47646 -0.96524,-6.59489 -0.63754,-25.5063099 1.4677,-5.32591 2.87239,-5.168188 6.13363,-2.7834 z"
       style="fill:#c7c7c7;fill-opacity:1;stroke:#000000;stroke-width:0.2722148px;stroke-linecap:butt;stroke-linejoin:miter;stroke-opacity:1" />
    <path
       inkscape:connector-curvature="0"
       style="fill:#c7c7c7;fill-opacity:1;stroke:#000000;stroke-width:0.39304748;stroke-miterlimit:4;stroke-dasharray:none;stroke-dashoffset:0;stroke-opacity:1;paint-order:markers stroke fill"
       d="m 491.44532,9.811728 -90.87174,-0.86207 -2.70303,-0.94886 -2.203,-2.54162 -1.4833,-3.75889 -0.54392,-4.60065 -0.006,-29.99632 0.54209,-4.590361 1.48182,-3.73077 2.202,-2.49983 2.70266,-0.89758 90.87175,0.86206 2.70302,0.94886 2.20302,2.54162 1.4833,3.75889 0.54389,4.600651 0.006,29.99633 -0.54206,4.59035 -1.48185,3.73077 -2.20201,2.49984 -2.70266,0.89758 v 0"
       id="path1024" />
    <path
       style="fill:#c7c7c7;fill-opacity:1;stroke:#000000;stroke-width:0.26458332px;stroke-linecap:butt;stroke-linejoin:miter;stroke-opacity:1"
       d="m 513.48332,111.50468 26.35811,2.48714 26.42324,3.44859 28.16667,6.1538 2.77826,2.07792 0.87981,2.02074 0.19532,2.88436 -5.13619,39.35373 -2.55053,3.47894 -2.95774,0.75752 -15.51346,-0.88116 -65.45109,-8.16106 -8.82394,-2.48578 -5.51586,-3.00699 -1.8492,-4.81553 0.10644,-6.65678 3.30184,-25.29884 2.18401,-5.0515 3.47135,-4.6929 6.15178,-1.86538 z"
       id="path1028"
       inkscape:connector-curvature="0" />
    <path
       inkscape:connector-curvature="0"
       id="path1030"
       d="m 295.89505,-42.914999 26.43831,-1.3972 26.64344,-0.45561 28.764,1.96531 3.05245,1.64895 1.16608,1.87021 0.61534,2.82472 0.67859,39.6816836 -2.01394,3.81476 -2.81501,1.18223 -15.47538,1.3987297 -65.94075,1.5056597 -9.09272,-1.1676097 -5.89655,-2.1673497 -2.53404,-4.49305 -0.86894,-6.60069 -0.43623,-25.5096606 1.4212,-5.31675 2.74717,-5.150393 5.81253,-2.74561 z"
       style="fill:#c7c7c7;fill-opacity:1;stroke:#000000;stroke-width:0.26458332px;stroke-linecap:butt;stroke-linejoin:miter;stroke-opacity:1" />
    <path
       style="fill:#c7c7c7;fill-opacity:1;stroke:#000000;stroke-width:0.26458332px;stroke-linecap:butt;stroke-linejoin:miter;stroke-opacity:1"
       d="m -71.000972,-33.853312 26.4383,-1.397207 26.64344,-0.45561 28.764,1.965317 3.05246,1.64895 1.16608,1.87023 0.61534,2.82472 0.67859,39.68169 -2.01394,3.81476 -2.81502,1.18223 -15.47537,1.39873 -65.94075,1.50566 -9.09273,-1.16761 -5.89655,-2.16735 -2.53404,-4.49305 -0.86894,-6.60069 -0.43623,-25.50966 1.4212,-5.31675 2.74717,-5.1504 5.81254,-2.74563 z"
       id="path1521"
       inkscape:connector-curvature="0" />
    <path
       inkscape:connector-curvature="0"
       id="path1523"
       d="m 269.83471,106.58387 28.52632,-0.94494 h 28.73009 l 30.97143,2.45684 3.26017,1.7009 1.22257,1.88988 0.61127,2.83482 v 39.6875 l -2.24136,3.77976 -3.0564,1.13393 -16.70827,1.13393 -71.11206,0.37797 -9.78045,-1.32291 -6.31655,-2.26786 -2.64887,-4.53572 -0.81504,-6.61458 V 120.38 l 1.63007,-5.29167 3.0564,-5.10268 6.31655,-2.64583 z"
       style="fill:#c7c7c7;fill-opacity:1;stroke:#000000;stroke-width:0.27472878px;stroke-linecap:butt;stroke-linejoin:miter;stroke-opacity:1" />
    <path
       style="fill:#c7c7c7;fill-opacity:1;stroke:#000000;stroke-width:0.26458332px;stroke-linecap:butt;stroke-linejoin:miter;stroke-opacity:1"
       d="m 605.75227,-6.6588508 0.20492,-9.8252532 -6.20372,-1.641616 -7.5303,-1.480263 -10.96681,0.149335 -0.50025,14.9228628 10.19919,0.4017494 7.95153,-0.590274 z"
       id="path1525"
       inkscape:connector-curvature="0"
       sodipodi:nodetypes="ccccccccc" />
    <path
       style="fill:#c7c7c7;fill-opacity:1;stroke:#000000;stroke-width:0.23722944px;stroke-linecap:butt;stroke-linejoin:miter;stroke-opacity:1"
       d="m 581.94068,-19.638809 -11.77376,-6.476093 -37.60045,-0.784209 -5.81415,6.869097 -0.30096,14.4303021 6.65319,7.2810845 37.41151,0.7802692 11.29677,-6.9067132 z"
       id="path1527"
       inkscape:connector-curvature="0" />
    <path
       sodipodi:nodetypes="ccccccccc"
       inkscape:connector-curvature="0"
       id="path1529"
       d="m 504.97679,-18.249947 -0.20492,9.8252533 6.20372,1.641616 7.5303,1.4802626 10.96681,-0.1493341 0.50025,-14.9228638 -10.19919,-0.401749 -7.95153,0.590274 z"
       style="fill:#c7c7c7;fill-opacity:1;stroke:#000000;stroke-width:0.26458332px;stroke-linecap:butt;stroke-linejoin:miter;stroke-opacity:1" />
    <path
       style="fill:#c7c7c7;stroke:#000000;stroke-width:0.26458332px;stroke-linecap:butt;stroke-linejoin:miter;stroke-opacity:1;fill-opacity:1"
       d="M -196.48894,-41.842223 V -207.39579 h 412.75 V -52.425556 H 71.118184 l -136.071415,8.315476 -126.999999,9.827381 z"
       id="path845"
       inkscape:connector-curvature="0" />
    <path
       style="fill:#c7c7c7;fill-opacity:1;stroke:#000000;stroke-width:0.26458332px;stroke-linecap:butt;stroke-linejoin:miter;stroke-opacity:1"
       d="M 606.33248,-36.021389 V -207.84936 h -392.3393 v 155.197019 l 281.2143,3.023809 z"
       id="path847"
       inkscape:connector-curvature="0"
       sodipodi:nodetypes="cccccc" />
    <path
       style="fill:#c7c7c7;stroke:#000000;stroke-width:0.26458332px;stroke-linecap:butt;stroke-linejoin:miter;stroke-opacity:1;fill-opacity:1"
       d="M -191.95323,182.67563 V 379.22325 H 607.08842 V 192.50301 l -99.7857,-12.85119 -265.3393,-8.31547 -306.160699,10.58333 z"
       id="path849"
       inkscape:connector-curvature="0" />
  </g>
</svg>
