<?xml version="1.0" encoding="UTF-8" standalone="no"?>
<!-- Created with Inkscape (http://www.inkscape.org/) -->

<svg
   xmlns:dc="http://purl.org/dc/elements/1.1/"
   xmlns:cc="http://creativecommons.org/ns#"
   xmlns:rdf="http://www.w3.org/1999/02/22-rdf-syntax-ns#"
   xmlns:svg="http://www.w3.org/2000/svg"
   xmlns="http://www.w3.org/2000/svg"
   xmlns:sodipodi="http://sodipodi.sourceforge.net/DTD/sodipodi-0.dtd"
   xmlns:inkscape="http://www.inkscape.org/namespaces/inkscape"
   width="19.325411mm"
   height="14.319307mm"
   viewBox="0 0 19.325411 14.319307"
   version="1.1"
   id="svg8"
   inkscape:version="0.92.4 (5da689c313, 2019-01-14)"
   sodipodi:docname="parking2.svg">
  <sodipodi:namedview
     id="base"
     pagecolor="#ffffff"
     bordercolor="#666666"
     borderopacity="1.0"
     inkscape:pageopacity="0.0"
     inkscape:pageshadow="2"
     inkscape:zoom="7.9195959"
     inkscape:cx="37.308129"
     inkscape:cy="18.684383"
     inkscape:document-units="mm"
     inkscape:current-layer="layer1"
     showgrid="false"
     inkscape:window-width="1920"
     inkscape:window-height="1043"
     inkscape:window-x="0"
     inkscape:window-y="174"
     inkscape:window-maximized="1"
     fit-margin-top="0"
     fit-margin-left="0"
     fit-margin-right="0"
     fit-margin-bottom="0" />
  <defs
     id="defs2" />
  <metadata
     id="metadata5">
    <rdf:RDF>
      <cc:Work
         rdf:about="">
        <dc:format>image/svg+xml</dc:format>
        <dc:type
           rdf:resource="http://purl.org/dc/dcmitype/StillImage" />
        <dc:title></dc:title>
      </cc:Work>
    </rdf:RDF>
  </metadata>
  <g
     id="layer1"
     inkscape:groupmode="layer"
     inkscape:label="Layer 1"
     transform="translate(-172.58894,-46.00941)">
    <path
       inkscape:connector-curvature="0"
       id="path815"
       d="m 175.28902,59.28455 -0.0328,-1.20285 0.0102,-1.211078 0.12269,-1.304616 0.0785,-0.136774 0.0863,-0.05081 0.12905,-0.02468 1.80374,0.01523 0.17098,0.09593 0.0504,0.129273 0.0456,0.70475 -0.008,2.997776 -0.0636,0.411775 -0.10532,0.265394 -0.20708,0.109919 -0.30091,0.03182 -1.15955,-0.0098 -0.23991,-0.07075 -0.23082,-0.130797 -0.118,-0.26728 z"
       style="fill:#c7c7c7;fill-opacity:1;stroke:#000000;stroke-width:0.01202531px;stroke-linecap:butt;stroke-linejoin:miter;stroke-opacity:1" />
    <path
       sodipodi:nodetypes="ccccccccc"
       inkscape:connector-curvature="0"
       id="path819"
       d="m 179.21807,55.627121 -0.44477,0.04098 -0.0424,0.288562 -0.0283,0.347648 0.0628,0.494514 0.6765,-0.05371 -0.034,-0.462665 -0.0673,-0.356085 z"
       style="fill:#c7c7c7;fill-opacity:1;stroke:#000000;stroke-width:0.01202531px;stroke-linecap:butt;stroke-linejoin:miter;stroke-opacity:1" />
    <path
       inkscape:connector-curvature="0"
       id="path823"
       d="m 178.75363,56.768854 -0.23227,0.564832 0.15683,1.702103 0.33994,0.227454 0.65324,-0.06019 0.2948,-0.337696 -0.15604,-1.69355 -0.36968,-0.474865 z"
       style="fill:#c7c7c7;fill-opacity:1;stroke:#000000;stroke-width:0.01078208px;stroke-linecap:butt;stroke-linejoin:miter;stroke-opacity:1" />
    <path
       style="fill:#c7c7c7;fill-opacity:1;stroke:#000000;stroke-width:0.01202531px;stroke-linecap:butt;stroke-linejoin:miter;stroke-opacity:1"
       d="m 179.20986,60.237557 0.44477,-0.04098 0.0424,-0.288563 0.0284,-0.347648 -0.0628,-0.494514 -0.67649,0.05371 0.034,0.462665 0.0673,0.356085 z"
       id="path825"
       inkscape:connector-curvature="0"
       sodipodi:nodetypes="ccccccccc" />
    <path
       id="rect831"
       d="m 175.08313,56.147566 0.058,3.689982 -0.0402,0.110412 -0.11312,0.09123 -0.1692,0.06288 -0.20844,0.02533 -1.36285,0.02142 -0.20914,-0.01877 -0.17108,-0.05753 -0.11594,-0.08764 -0.0437,-0.109094 -0.058,-3.689983 0.0402,-0.110412 0.11312,-0.09123 0.1692,-0.06288 0.20844,-0.02533 1.36285,-0.02142 0.20914,0.01877 0.17109,0.05753 0.11593,0.08764 0.0437,0.109094 v 0"
       style="fill:#c7c7c7;fill-opacity:1;stroke:#000000;stroke-width:0.01688443;stroke-miterlimit:4;stroke-dasharray:none;stroke-dashoffset:0;stroke-opacity:1;paint-order:markers stroke fill"
       inkscape:connector-curvature="0" />
    <path
       inkscape:connector-curvature="0"
       id="path1018"
       d="m 189.42083,59.475416 -0.0429,-1.202531 v -1.21112 l 0.11167,-1.305606 0.0773,-0.137432 0.0859,-0.05154 0.12884,-0.02577 h 1.8038 l 0.17179,0.09448 0.0515,0.128842 0.0515,0.70434 0.0172,2.997739 -0.0601,0.412296 -0.10307,0.266275 -0.20615,0.111664 -0.30063,0.03436 h -1.15959 l -0.2405,-0.06872 -0.23192,-0.128843 -0.12025,-0.266275 z"
       style="fill:#c7c7c7;fill-opacity:1;stroke:#000000;stroke-width:0.01202531px;stroke-linecap:butt;stroke-linejoin:miter;stroke-opacity:1" />
    <path
       style="fill:#c7c7c7;fill-opacity:1;stroke:#000000;stroke-width:0.01202531px;stroke-linecap:butt;stroke-linejoin:miter;stroke-opacity:1"
       d="m 189.45175,50.026956 -0.0429,-1.202531 v -1.211121 l 0.11166,-1.305605 0.0773,-0.137433 0.0859,-0.05154 0.12884,-0.02577 h 1.8038 l 0.17179,0.09448 0.0515,0.128843 0.0515,0.70434 0.0172,2.997739 -0.0601,0.412296 -0.10308,0.266275 -0.20615,0.111664 -0.30063,0.03436 h -1.15958 l -0.24051,-0.06872 -0.23192,-0.128843 -0.12025,-0.266275 z"
       id="path1020"
       inkscape:connector-curvature="0" />
    <path
       inkscape:connector-curvature="0"
       id="path1022"
       d="m 183.31198,59.469383 -0.0713,-1.271473 -0.0286,-1.281638 0.0808,-1.384413 0.074,-0.147366 0.0847,-0.05668 0.12819,-0.03049 1.8033,-0.04507 0.17397,0.09569 0.0546,0.135057 0.0681,0.744061 0.0879,3.17185 -0.0504,0.437805 -0.0968,0.284353 -0.20346,0.123317 -0.29973,0.04387 -1.15926,0.02898 -0.24207,-0.06671 -0.23489,-0.13055 -0.1265,-0.278773 z"
       style="fill:#c7c7c7;fill-opacity:1;stroke:#000000;stroke-width:0.01237216px;stroke-linecap:butt;stroke-linejoin:miter;stroke-opacity:1" />
    <path
       inkscape:connector-curvature="0"
       style="fill:#c7c7c7;fill-opacity:1;stroke:#000000;stroke-width:0.01786401;stroke-miterlimit:4;stroke-dasharray:none;stroke-dashoffset:0;stroke-opacity:1;paint-order:markers stroke fill"
       d="m 182.87516,46.431225 -0.0392,4.130121 -0.0431,0.122852 -0.11551,0.100127 -0.17085,0.06742 -0.2091,0.02472 -1.36333,2.71e-4 -0.20863,-0.02464 -0.16956,-0.06735 -0.11362,-0.100081 -0.0408,-0.122836 0.0392,-4.130121 0.0431,-0.122852 0.11552,-0.100128 0.17084,-0.06742 0.2091,-0.02472 1.36333,-2.73e-4 0.20863,0.02464 0.16957,0.06735 0.11361,0.100081 0.0408,0.122836 v 0"
       id="path1024" />
    <path
       style="fill:#c7c7c7;fill-opacity:1;stroke:#000000;stroke-width:0.01202531px;stroke-linecap:butt;stroke-linejoin:miter;stroke-opacity:1"
       d="m 172.68436,50.044757 -0.0661,-1.201481 -0.0233,-1.210896 0.0865,-1.307514 0.0746,-0.138896 0.0849,-0.05318 0.12832,-0.02824 1.80346,-0.03474 0.17358,0.09116 0.054,0.127827 0.0651,0.703216 0.0749,2.996852 -0.0522,0.413379 -0.0979,0.26821 -0.20396,0.115614 -0.29991,0.04014 -1.15937,0.02233 -0.24178,-0.06407 -0.23436,-0.124353 -0.12536,-0.263909 z"
       id="path1028"
       inkscape:connector-curvature="0" />
    <path
       inkscape:connector-curvature="0"
       id="path1030"
       d="m 177.81598,50.017537 -0.0635,-1.201621 -0.0207,-1.210945 0.0893,-1.307323 0.0749,-0.138734 0.085,-0.053 0.12839,-0.02797 1.80353,-0.03084 0.17338,0.09153 0.0537,0.127942 0.0636,0.703356 0.0684,2.997007 -0.0531,0.413264 -0.0985,0.267998 -0.20421,0.115173 -0.3,0.03949 -1.15941,0.01983 -0.24165,-0.06459 -0.23408,-0.124859 -0.12479,-0.264179 z"
       style="fill:#c7c7c7;fill-opacity:1;stroke:#000000;stroke-width:0.01202531px;stroke-linecap:butt;stroke-linejoin:miter;stroke-opacity:1" />
    <path
       style="fill:#c7c7c7;fill-opacity:1;stroke:#000000;stroke-width:0.01202531px;stroke-linecap:butt;stroke-linejoin:miter;stroke-opacity:1"
       d="m 180.60929,59.517533 -0.0635,-1.20162 -0.0207,-1.210945 0.0893,-1.307323 0.0749,-0.138735 0.085,-0.053 0.12839,-0.02797 1.80353,-0.03084 0.17338,0.09153 0.0537,0.127943 0.0636,0.703356 0.0684,2.997007 -0.0531,0.413264 -0.0985,0.267998 -0.20421,0.115173 -0.3,0.03949 -1.15941,0.01983 -0.24165,-0.06459 -0.23408,-0.124859 -0.12479,-0.26418 z"
       id="path1521"
       inkscape:connector-curvature="0" />
    <path
       inkscape:connector-curvature="0"
       id="path1523"
       d="m 186.75465,50.257133 -0.0429,-1.296521 v -1.305783 l 0.11166,-1.407651 0.0773,-0.148175 0.0859,-0.05557 0.12884,-0.02778 h 1.80379 l 0.17179,0.10187 0.0515,0.138913 0.0515,0.759391 0.0172,3.232043 -0.0601,0.444522 -0.10307,0.287087 -0.20615,0.120391 -0.30063,0.03704 h -1.15959 l -0.2405,-0.07409 -0.23192,-0.138914 -0.12025,-0.287086 z"
       style="fill:#c7c7c7;fill-opacity:1;stroke:#000000;stroke-width:0.01248642px;stroke-linecap:butt;stroke-linejoin:miter;stroke-opacity:1" />
    <path
       style="fill:#c7c7c7;fill-opacity:1;stroke:#000000;stroke-width:0.01202531px;stroke-linecap:butt;stroke-linejoin:miter;stroke-opacity:1"
       d="m 176.74611,46.173221 -0.44656,-0.0093 -0.0746,0.281959 -0.0673,0.342252 0.007,0.498442 0.67824,0.02274 0.0183,-0.463553 -0.0268,-0.361397 z"
       id="path1525"
       inkscape:connector-curvature="0"
       sodipodi:nodetypes="ccccccccc" />
    <path
       style="fill:#c7c7c7;fill-opacity:1;stroke:#000000;stroke-width:0.01078208px;stroke-linecap:butt;stroke-linejoin:miter;stroke-opacity:1"
       d="m 176.15617,47.255457 -0.29434,0.535118 -0.0356,1.708941 0.3122,0.264253 0.65585,0.01368 0.33093,-0.302387 0.0355,-1.700354 -0.31391,-0.513438 z"
       id="path1527"
       inkscape:connector-curvature="0" />
    <path
       sodipodi:nodetypes="ccccccccc"
       inkscape:connector-curvature="0"
       id="path1529"
       d="m 176.21929,50.753467 0.44656,0.0093 0.0746,-0.281959 0.0673,-0.342252 -0.007,-0.498442 -0.67824,-0.02274 -0.0183,0.463553 0.0268,0.361397 z"
       style="fill:#c7c7c7;fill-opacity:1;stroke:#000000;stroke-width:0.01202531px;stroke-linecap:butt;stroke-linejoin:miter;stroke-opacity:1" />
  </g>
</svg>
