<?xml version="1.0" encoding="UTF-8" standalone="no"?>
<!-- Created with Inkscape (http://www.inkscape.org/) -->

<svg
   xmlns:dc="http://purl.org/dc/elements/1.1/"
   xmlns:cc="http://creativecommons.org/ns#"
   xmlns:rdf="http://www.w3.org/1999/02/22-rdf-syntax-ns#"
   xmlns:svg="http://www.w3.org/2000/svg"
   xmlns="http://www.w3.org/2000/svg"
   xmlns:sodipodi="http://sodipodi.sourceforge.net/DTD/sodipodi-0.dtd"
   xmlns:inkscape="http://www.inkscape.org/namespaces/inkscape"
   width="425.20251mm"
   height="316.79559mm"
   viewBox="0 0 425.20251 316.79559"
   version="1.1"
   id="svg8"
   inkscape:version="0.92.3 (2405546, 2018-03-11)"
   sodipodi:docname="parking2.svg">
  <sodipodi:namedview
     id="base"
     pagecolor="#ffffff"
     bordercolor="#666666"
     borderopacity="1.0"
     inkscape:pageopacity="0.0"
     inkscape:pageshadow="2"
     inkscape:zoom="0.7"
     inkscape:cx="942.54989"
     inkscape:cy="655.55819"
     inkscape:document-units="mm"
     inkscape:current-layer="layer1"
     showgrid="false"
     inkscape:window-width="2493"
     inkscape:window-height="1412"
     inkscape:window-x="2627"
     inkscape:window-y="0"
     inkscape:window-maximized="1"
     fit-margin-top="0"
     fit-margin-left="0"
     fit-margin-right="0"
     fit-margin-bottom="0" />
  <defs
     id="defs2" />
  <metadata
     id="metadata5">
    <rdf:RDF>
      <cc:Work
         rdf:about="">
        <dc:format>image/svg+xml</dc:format>
        <dc:type
           rdf:resource="http://purl.org/dc/dcmitype/StillImage" />
        <dc:title />
      </cc:Work>
    </rdf:RDF>
  </metadata>
  <g
     id="layer1"
     inkscape:groupmode="layer"
     inkscape:label="Layer 1"
     transform="translate(30.349616,104.3591)">
    <path
       inkscape:connector-curvature="0"
       id="path815"
       d="m 29.058731,187.72315 -0.721449,-26.46536 0.225053,-26.64638 2.699367,-28.70442 1.726369,-3.00933 1.899391,-1.11793 2.839507,-0.543 39.686084,0.33519 3.762072,2.11071 1.109945,2.84429 1.003008,15.50606 -0.179083,65.95767 -1.399484,9.05994 -2.317255,5.83927 -4.556302,2.41845 -6.620732,0.70007 -25.512484,-0.21548 -5.278708,-1.55655 -5.078555,-2.87782 -2.596258,-5.88076 z"
       style="fill:#c7c7c7;fill-opacity:1;stroke:#000000;stroke-width:0.26458332px;stroke-linecap:butt;stroke-linejoin:miter;stroke-opacity:1" />
    <g
       id="g1037"
       transform="rotate(-5.264415,100.98776,195.69616)">
      <path
         style="fill:#c7c7c7;fill-opacity:1;stroke:#000000;stroke-width:0.26458332px;stroke-linecap:butt;stroke-linejoin:miter;stroke-opacity:1"
         d="m 123.56031,108.95685 h -9.82739 l -1.5119,6.2366 -1.32292,7.55953 0.37798,10.96131 14.93005,0.18898 0.18899,-10.20535 -0.75595,-7.9375 z"
         id="path819"
         inkscape:connector-curvature="0"
         sodipodi:nodetypes="ccccccccc" />
      <path
         style="fill:#c7c7c7;fill-opacity:1;stroke:#000000;stroke-width:0.23722944px;stroke-linecap:butt;stroke-linejoin:miter;stroke-opacity:1"
         d="m 111.07969,133.03392 -6.22918,11.90624 v 37.60863 l 6.98884,5.66965 h 14.43344 l 7.14077,-6.80357 v -37.41965 l -7.14077,-11.15029 z"
         id="path823"
         inkscape:connector-curvature="0" />
      <path
         sodipodi:nodetypes="ccccccccc"
         inkscape:connector-curvature="0"
         id="path825"
         d="m 114.07309,209.95212 h 9.82739 l 1.5119,-6.2366 1.32292,-7.55953 -0.37798,-10.96131 -14.93005,-0.18898 -0.18899,10.20535 0.75595,7.9375 z"
         style="fill:#c7c7c7;fill-opacity:1;stroke:#000000;stroke-width:0.26458332px;stroke-linecap:butt;stroke-linejoin:miter;stroke-opacity:1" />
    </g>
    <path
       id="rect831"
       d="m 24.528603,118.70258 1.275757,81.18774 -0.884946,2.4293 -2.48891,2.00738 -3.722676,1.3834 -4.586243,0.55732 -29.985656,0.47119 -4.601488,-0.41296 -3.764304,-1.26574 -2.550753,-1.92819 -0.960837,-2.4003 -1.275758,-81.18774 0.884947,-2.4293 2.488911,-2.00739 3.722676,-1.3834 4.586242,-0.5573 29.985656,-0.47119 4.601489,0.41294 3.764303,1.26574 2.550753,1.9282 0.960837,2.4003 v 0"
       style="fill:#c7c7c7;fill-opacity:1;stroke:#000000;stroke-width:0.37149459;stroke-miterlimit:4;stroke-dasharray:none;stroke-dashoffset:0;stroke-opacity:1;paint-order:markers stroke fill"
       inkscape:connector-curvature="0" />
    <path
       inkscape:connector-curvature="0"
       id="path1018"
       d="m 339.98958,191.92262 -0.94494,-26.45833 v -26.64732 l 2.45684,-28.72619 1.7009,-3.02381 1.88988,-1.13393 2.83482,-0.56696 h 39.6875 l 3.77976,2.07886 1.13393,2.83482 1.13393,15.49703 0.37797,65.95684 -1.32291,9.07143 -2.26786,5.85863 -4.53572,2.45685 -6.61458,0.75595 h -25.51339 l -5.29167,-1.5119 -5.10268,-2.83483 -2.64583,-5.85863 z"
       style="fill:#c7c7c7;fill-opacity:1;stroke:#000000;stroke-width:0.26458332px;stroke-linecap:butt;stroke-linejoin:miter;stroke-opacity:1" />
    <path
       style="fill:#c7c7c7;fill-opacity:1;stroke:#000000;stroke-width:0.26458332px;stroke-linecap:butt;stroke-linejoin:miter;stroke-opacity:1"
       d="m 340.66996,-15.964291 -0.94494,-26.45833 v -26.647325 l 2.45684,-28.726185 1.7009,-3.023829 1.88988,-1.13394 2.83482,-0.56696 h 39.6875 l 3.77976,2.07887 1.13393,2.834839 1.13393,15.497025 0.37797,65.956845 -1.32291,9.0714319 -2.26786,5.8586298 -4.53572,2.45685 -6.61458,0.7559499 h -25.51339 l -5.29167,-1.51189994 -5.10268,-2.83483006 -2.64583,-5.8586301 z"
       id="path1020"
       inkscape:connector-curvature="0" />
    <path
       inkscape:connector-curvature="0"
       id="path1022"
       d="m 205.58153,191.78988 -1.56928,-27.97522 -0.62904,-28.19885 1.77802,-30.46013 1.62905,-3.24238 1.86258,-1.24717 2.82065,-0.670809 39.67644,-0.991705 3.82778,2.105444 1.20054,2.97155 1.49945,16.37099 1.93487,69.78767 -1.10839,9.63267 -2.12893,6.2564 -4.47646,2.71324 -6.59489,0.96524 -25.50629,0.63754 -5.32588,-1.4677 -5.16817,-2.87239 -2.7834,-6.13363 z"
       style="fill:#c7c7c7;fill-opacity:1;stroke:#000000;stroke-width:0.2722148px;stroke-linecap:butt;stroke-linejoin:miter;stroke-opacity:1" />
    <path
       inkscape:connector-curvature="0"
       style="fill:#c7c7c7;fill-opacity:1;stroke:#000000;stroke-width:0.39304748;stroke-miterlimit:4;stroke-dasharray:none;stroke-dashoffset:0;stroke-opacity:1;paint-order:markers stroke fill"
       d="m 195.97041,-95.07828 -0.86207,90.8717425 -0.94886,2.7030209 -2.54162,2.20300429 -3.75889,1.48330271 -4.60065,0.5439194 -29.99632,0.00595 -4.59036,-0.542095 -3.73077,-1.4818168 -2.49983,-2.202004 -0.89758,-2.7026537 0.86206,-90.8717553 0.94886,-2.703021 2.54162,-2.203019 3.75889,-1.483295 4.60065,-0.54389 29.99633,-0.006 4.59035,0.54206 3.73077,1.481844 2.49984,2.20201 0.89758,2.702665 v 0"
       id="path1024" />
    <path
       style="fill:#c7c7c7;fill-opacity:1;stroke:#000000;stroke-width:0.26458332px;stroke-linecap:butt;stroke-linejoin:miter;stroke-opacity:1"
       d="m -28.249644,-15.572628 -1.45436,-26.435222 -0.513236,-26.642389 1.903109,-28.768188 1.642345,-3.056013 1.867689,-1.17012 2.823375,-0.62145 39.680138,-0.76439 3.819098,2.00567 1.188319,2.812463 1.432198,15.472316 1.648249,65.937337 -1.147947,9.0952283 -2.1546,5.9012226 -4.487559,2.54375363 -6.598792,0.88320857 -25.508658,0.4913957 -5.319808,-1.40970037 -5.156334,-2.73602493 -2.758178,-5.8065842 z"
       id="path1028"
       inkscape:connector-curvature="0" />
    <path
       inkscape:connector-curvature="0"
       id="path1030"
       d="m 84.657427,-16.17154 -1.3972,-26.438305 -0.45561,-26.64344 1.96531,-28.763997 1.64895,-3.052458 1.87021,-1.16608 2.82472,-0.61534 39.681643,-0.67859 3.81476,2.01394 1.18223,2.815015 1.39873,15.475376 1.50566,65.94075 -1.16761,9.0927232 -2.16735,5.8965493 -4.49305,2.53404368 -6.60069,0.86893702 -25.509651,0.4362325 -5.31672,-1.42120093 -5.150392,-2.74716907 -2.74561,-5.8125357 z"
       style="fill:#c7c7c7;fill-opacity:1;stroke:#000000;stroke-width:0.26458332px;stroke-linecap:butt;stroke-linejoin:miter;stroke-opacity:1" />
    <path
       style="fill:#c7c7c7;fill-opacity:1;stroke:#000000;stroke-width:0.26458332px;stroke-linecap:butt;stroke-linejoin:miter;stroke-opacity:1"
       d="m 146.11641,192.84929 -1.3972,-26.4383 -0.45561,-26.64344 1.96531,-28.764 1.64895,-3.05246 1.87021,-1.16608 2.82472,-0.61534 39.68169,-0.67859 3.81476,2.01394 1.18223,2.81502 1.39873,15.47537 1.50566,65.94075 -1.16761,9.09273 -2.16735,5.89655 -4.49305,2.53404 -6.60069,0.86894 -25.50966,0.43623 -5.31675,-1.4212 -5.1504,-2.74717 -2.74561,-5.81254 z"
       id="path1521"
       inkscape:connector-curvature="0" />
    <path
       inkscape:connector-curvature="0"
       id="path1523"
       d="m 281.32772,-10.899895 -0.94494,-28.52632 v -28.730089 l 2.45684,-30.971432 1.7009,-3.260164 1.88988,-1.22257 2.83482,-0.61127 h 39.6875 l 3.77976,2.24136 1.13393,3.056395 1.13393,16.708277 0.37797,71.112052 -1.32291,9.7804577 -2.26786,6.3165422 -4.53572,2.6488779 -6.61458,0.8150357 H 295.12385 L 289.83218,6.827187 284.7295,3.7707857 282.08367,-2.5457571 Z"
       style="fill:#c7c7c7;fill-opacity:1;stroke:#000000;stroke-width:0.27472878px;stroke-linecap:butt;stroke-linejoin:miter;stroke-opacity:1" />
    <g
       transform="rotate(1.1948102,10148.469,-2990.1535)"
       id="g1531">
      <path
         sodipodi:nodetypes="ccccccccc"
         inkscape:connector-curvature="0"
         id="path1525"
         d="m 123.56031,108.95685 h -9.82739 l -1.5119,6.2366 -1.32292,7.55953 0.37798,10.96131 14.93005,0.18898 0.18899,-10.20535 -0.75595,-7.9375 z"
         style="fill:#c7c7c7;fill-opacity:1;stroke:#000000;stroke-width:0.26458332px;stroke-linecap:butt;stroke-linejoin:miter;stroke-opacity:1" />
      <path
         inkscape:connector-curvature="0"
         id="path1527"
         d="m 111.07969,133.03392 -6.22918,11.90624 v 37.60863 l 6.98884,5.66965 h 14.43344 l 7.14077,-6.80357 v -37.41965 l -7.14077,-11.15029 z"
         style="fill:#c7c7c7;fill-opacity:1;stroke:#000000;stroke-width:0.23722944px;stroke-linecap:butt;stroke-linejoin:miter;stroke-opacity:1" />
      <path
         style="fill:#c7c7c7;fill-opacity:1;stroke:#000000;stroke-width:0.26458332px;stroke-linecap:butt;stroke-linejoin:miter;stroke-opacity:1"
         d="m 114.07309,209.95212 h 9.82739 l 1.5119,-6.2366 1.32292,-7.55953 -0.37798,-10.96131 -14.93005,-0.18898 -0.18899,10.20535 0.75595,7.9375 z"
         id="path1529"
         inkscape:connector-curvature="0"
         sodipodi:nodetypes="ccccccccc" />
    </g>
  </g>
</svg>
