<?xml version="1.0" encoding="UTF-8" standalone="no"?>
<!-- Created with Inkscape (http://www.inkscape.org/) -->

<svg
   xmlns:dc="http://purl.org/dc/elements/1.1/"
   xmlns:cc="http://creativecommons.org/ns#"
   xmlns:rdf="http://www.w3.org/1999/02/22-rdf-syntax-ns#"
   xmlns:svg="http://www.w3.org/2000/svg"
   xmlns="http://www.w3.org/2000/svg"
   xmlns:sodipodi="http://sodipodi.sourceforge.net/DTD/sodipodi-0.dtd"
   xmlns:inkscape="http://www.inkscape.org/namespaces/inkscape"
   width="412.44772mm"
   height="316.93304mm"
   viewBox="0 0 412.44772 316.93304"
   version="1.1"
   id="svg8"
   inkscape:version="0.92.3 (2405546, 2018-03-11)"
   sodipodi:docname="parking1.svg">
  <sodipodi:namedview
     id="base"
     pagecolor="#ffffff"
     bordercolor="#666666"
     borderopacity="1.0"
     inkscape:pageopacity="0.0"
     inkscape:pageshadow="2"
     inkscape:zoom="0.7"
     inkscape:cx="696.2"
     inkscape:cy="576.38265"
     inkscape:document-units="mm"
     inkscape:current-layer="layer1"
     showgrid="false"
     inkscape:window-width="2493"
     inkscape:window-height="1385"
     inkscape:window-x="2627"
     inkscape:window-y="27"
     inkscape:window-maximized="1"
     fit-margin-top="0"
     fit-margin-left="0"
     fit-margin-right="0"
     fit-margin-bottom="0" />
  <defs
     id="defs2" />
  <metadata
     id="metadata5">
    <rdf:RDF>
      <cc:Work
         rdf:about="">
        <dc:format>image/svg+xml</dc:format>
        <dc:type
           rdf:resource="http://purl.org/dc/dcmitype/StillImage" />
        <dc:title></dc:title>
      </cc:Work>
    </rdf:RDF>
  </metadata>
  <g
     id="layer1"
     inkscape:groupmode="layer"
     inkscape:label="Layer 1"
     transform="translate(32.260313,105.41236)">
    <path
       inkscape:connector-curvature="0"
       id="path815"
       d="m 34.71028,192.03586 -2.796671,-26.32707 -1.867299,-26.58182 0.43783,-28.82774 1.484819,-3.13556 1.805776,-1.26358 2.788122,-0.76421 39.589938,-2.78108 3.916147,1.80888 1.329789,2.74839 2.21709,15.37948 4.998942,65.76821 -0.683989,9.14184 -1.851741,6.00314 -4.352402,2.76865 -6.54535,1.21761 -25.450675,1.78784 -5.384604,-1.13738 -5.288784,-2.47029 -3.049869,-5.65882 z"
       style="fill:#c7c7c7;fill-opacity:1;stroke:#000000;stroke-width:0.26458332px;stroke-linecap:butt;stroke-linejoin:miter;stroke-opacity:1" />
    <g
       id="g1037"
       transform="rotate(-5.264415,100.98776,195.69616)">
      <path
         style="fill:#c7c7c7;fill-opacity:1;stroke:#000000;stroke-width:0.26458332px;stroke-linecap:butt;stroke-linejoin:miter;stroke-opacity:1"
         d="m 123.56031,108.95685 h -9.82739 l -1.5119,6.2366 -1.32292,7.55953 0.37798,10.96131 14.93005,0.18898 0.18899,-10.20535 -0.75595,-7.9375 z"
         id="path819"
         inkscape:connector-curvature="0"
         sodipodi:nodetypes="ccccccccc" />
      <path
         style="fill:#c7c7c7;fill-opacity:1;stroke:#000000;stroke-width:0.23722944px;stroke-linecap:butt;stroke-linejoin:miter;stroke-opacity:1"
         d="m 111.07969,133.03392 -6.22918,11.90624 v 37.60863 l 6.98884,5.66965 h 14.43344 l 7.14077,-6.80357 v -37.41965 l -7.14077,-11.15029 z"
         id="path823"
         inkscape:connector-curvature="0" />
      <path
         sodipodi:nodetypes="ccccccccc"
         inkscape:connector-curvature="0"
         id="path825"
         d="m 114.07309,209.95212 h 9.82739 l 1.5119,-6.2366 1.32292,-7.55953 -0.37798,-10.96131 -14.93005,-0.18898 -0.18899,10.20535 0.75595,7.9375 z"
         style="fill:#c7c7c7;fill-opacity:1;stroke:#000000;stroke-width:0.26458332px;stroke-linecap:butt;stroke-linejoin:miter;stroke-opacity:1" />
    </g>
    <path
       id="rect831"
       d="m 25.169787,119.11827 v 81.19776 l -0.923006,2.4151 -2.520142,1.96803 -3.743952,1.32473 -4.594433,0.4852 h -29.989358 l -4.594432,-0.4852 -3.743952,-1.32473 -2.520143,-1.96803 -0.923006,-2.4151 v -81.19776 l 0.923006,-2.4151 2.520143,-1.96804 3.743952,-1.32473 4.594432,-0.48518 h 29.989358 l 4.594433,0.48518 3.743952,1.32473 2.520142,1.96804 0.923006,2.4151 v 0"
       style="fill:#c7c7c7;fill-opacity:1;stroke:#000000;stroke-width:0.37149459;stroke-miterlimit:4;stroke-dasharray:none;stroke-dashoffset:0;stroke-opacity:1;paint-order:markers stroke fill"
       inkscape:connector-curvature="0" />
    <path
       style="fill:#c7c7c7;fill-opacity:1;stroke:#000000;stroke-width:0.26458332px;stroke-linecap:butt;stroke-linejoin:miter;stroke-opacity:1"
       d="m 269.60931,195.62315 -3.25285,-26.27461 -2.32803,-26.54544 -0.0622,-28.83099 1.43022,-3.16085 1.78359,-1.2947 2.77445,-0.81245 39.53575,-3.46729 3.94693,1.7407 1.37726,2.72491 2.48348,15.33871 6.13882,65.67163 -0.52533,9.15232 -1.74735,6.03436 -4.30374,2.84372 -6.52324,1.33094 -25.41584,2.22896 -5.40352,-1.04381 -5.33083,-2.3782 -3.14755,-5.60508 z"
       id="path1016"
       inkscape:connector-curvature="0" />
    <path
       inkscape:connector-curvature="0"
       id="path1018"
       d="m 326.00446,192.67857 -0.94494,-26.45833 v -26.64732 l 2.45684,-28.72619 1.7009,-3.02381 1.88988,-1.13393 2.83482,-0.56696 h 39.6875 l 3.77976,2.07886 1.13393,2.83482 1.13393,15.49703 0.37797,65.95684 -1.32291,9.07143 -2.26786,5.85863 -4.53572,2.45685 -6.61458,0.75595 h -25.51339 l -5.29167,-1.5119 -5.10268,-2.83483 -2.64583,-5.85863 z"
       style="fill:#c7c7c7;fill-opacity:1;stroke:#000000;stroke-width:0.26458332px;stroke-linecap:butt;stroke-linejoin:miter;stroke-opacity:1" />
    <path
       style="fill:#c7c7c7;fill-opacity:1;stroke:#000000;stroke-width:0.26458332px;stroke-linecap:butt;stroke-linejoin:miter;stroke-opacity:1"
       d="m 325.17296,-17.476196 -0.94494,-26.45833 v -26.647325 l 2.45684,-28.726185 1.7009,-3.023824 1.88988,-1.13394 2.83482,-0.56696 h 39.6875 l 3.77976,2.07887 1.13393,2.834834 1.13393,15.497025 0.37797,65.956845 -1.32291,9.0714321 -2.26786,5.8586298 -4.53572,2.45685004 -6.61458,0.75594987 h -25.51339 l -5.29167,-1.51189991 -5.10268,-2.8348301 -2.64583,-5.8586301 z"
       id="path1020"
       inkscape:connector-curvature="0" />
    <path
       inkscape:connector-curvature="0"
       id="path1022"
       d="m 266.52909,-17.677827 0.5934,-26.468548 1.54773,-26.602349 4.12116,-28.534998 1.87366,-2.919918 1.95255,-1.02225 2.86297,-0.40135 39.6205,2.30513 3.65263,2.294882 0.96737,2.895899 0.23192,15.536729 -3.45357,65.867461 -1.84756,8.9792795 -2.60431,5.71701805 -4.67077,2.18925925 -6.64732,0.3704866 -25.47032,-1.4818655 -5.19492,-1.81669781 -4.92941,-3.12641749 -2.30108,-6.0024144 z"
       style="fill:#c7c7c7;fill-opacity:1;stroke:#000000;stroke-width:0.26458332px;stroke-linecap:butt;stroke-linejoin:miter;stroke-opacity:1" />
    <path
       inkscape:connector-curvature="0"
       style="fill:#c7c7c7;fill-opacity:1;stroke:#000000;stroke-width:0.37149459;stroke-miterlimit:4;stroke-dasharray:none;stroke-dashoffset:0;stroke-opacity:1;paint-order:markers stroke fill"
       d="m 266.62032,-94.534232 -3.06015,81.140074 -1.01337,2.378598 -2.59252,1.8716541 -3.79122,1.1826883 -4.60946,0.3117019 -29.96804,-1.1302268 -4.57289,-0.6580087 -3.69137,-1.4648898 -2.44418,-2.06161 -0.83133,-2.44817 3.06015,-81.140074 1.01337,-2.378598 2.59252,-1.871667 3.79122,-1.18269 4.60946,-0.31168 29.96804,1.13023 4.57289,0.65798 3.69137,1.464898 2.44418,2.06162 0.83133,2.44817 v 0"
       id="path1024" />
    <path
       style="fill:#c7c7c7;fill-opacity:1;stroke:#000000;stroke-width:0.26458332px;stroke-linecap:butt;stroke-linejoin:miter;stroke-opacity:1"
       d="m -28.249644,-15.572628 -1.45436,-26.435222 -0.513236,-26.642389 1.903109,-28.768188 1.642345,-3.056013 1.867689,-1.17012 2.823375,-0.62145 39.680138,-0.76439 3.819098,2.00567 1.188319,2.812463 1.432198,15.472316 1.648249,65.937337 -1.147947,9.0952283 -2.1546,5.9012226 -4.487559,2.54375363 -6.598792,0.88320857 -25.508658,0.4913957 -5.319808,-1.40970037 -5.156334,-2.73602493 -2.758178,-5.8065842 z"
       id="path1028"
       inkscape:connector-curvature="0" />
    <path
       inkscape:connector-curvature="0"
       id="path1030"
       d="m 151.32959,-18.653281 0.73572,-26.464974 1.69076,-26.593642 4.27454,-28.512423 1.88933,-2.90981 1.95802,-1.01173 2.86508,-0.38595 39.60753,2.51814 3.64025,2.314504 0.95177,2.901056 0.14837,15.537751 -3.8077,65.847938 -1.89582,8.9692139 -2.63501,5.7029312 -4.68247,2.1641116 -6.64922,0.3347367 -25.46198,-1.61880525 -5.18508,-1.84460605 -4.91253,-3.1528792 -2.26877,-6.0147019 z"
       style="fill:#c7c7c7;fill-opacity:1;stroke:#000000;stroke-width:0.26458332px;stroke-linecap:butt;stroke-linejoin:miter;stroke-opacity:1" />
    <path
       id="path1032"
       d="m 150.31693,-91.228176 -5.9634,80.978478 -1.09789,2.340788 -2.65787,1.7776284 -3.83113,1.0461861 -4.61768,0.1464603 -29.90852,-2.2025146 -4.546426,-0.8213206 -3.636563,-1.5961202 -2.368801,-2.1478014 -0.743146,-2.476365 5.96339,-80.978478 1.09789,-2.34079 2.657876,-1.777638 3.83115,-1.046187 4.6177,-0.14643 29.90852,2.202513 4.54641,0.821296 3.63654,1.596117 2.3688,2.147811 0.74315,2.476367 v 0"
       style="fill:#c7c7c7;fill-opacity:1;stroke:#000000;stroke-width:0.37149459;stroke-miterlimit:4;stroke-dasharray:none;stroke-dashoffset:0;stroke-opacity:1;paint-order:markers stroke fill"
       inkscape:connector-curvature="0" />
  </g>
</svg>
