<?xml version="1.0" encoding="UTF-8" standalone="no"?>
<!-- Created with Inkscape (http://www.inkscape.org/) -->

<svg
   xmlns:dc="http://purl.org/dc/elements/1.1/"
   xmlns:cc="http://creativecommons.org/ns#"
   xmlns:rdf="http://www.w3.org/1999/02/22-rdf-syntax-ns#"
   xmlns:svg="http://www.w3.org/2000/svg"
   xmlns="http://www.w3.org/2000/svg"
   xmlns:sodipodi="http://sodipodi.sourceforge.net/DTD/sodipodi-0.dtd"
   xmlns:inkscape="http://www.inkscape.org/namespaces/inkscape"
   width="18.658882mm"
   height="14.412246mm"
   viewBox="0 0 18.658882 14.412246"
   version="1.1"
   id="svg8"
   inkscape:version="0.92.4 (5da689c313, 2019-01-14)"
   sodipodi:docname="parking1.svg">
  <sodipodi:namedview
     id="base"
     pagecolor="#ffffff"
     bordercolor="#666666"
     borderopacity="1.0"
     inkscape:pageopacity="0.0"
     inkscape:pageshadow="2"
     inkscape:zoom="7.9195959"
     inkscape:cx="44.493007"
     inkscape:cy="19.814999"
     inkscape:document-units="mm"
     inkscape:current-layer="layer1"
     showgrid="false"
     inkscape:window-width="1920"
     inkscape:window-height="1043"
     inkscape:window-x="0"
     inkscape:window-y="174"
     inkscape:window-maximized="1"
     fit-margin-top="0"
     fit-margin-left="0"
     fit-margin-right="0"
     fit-margin-bottom="0" />
  <defs
     id="defs2" />
  <metadata
     id="metadata5">
    <rdf:RDF>
      <cc:Work
         rdf:about="">
        <dc:format>image/svg+xml</dc:format>
        <dc:type
           rdf:resource="http://purl.org/dc/dcmitype/StillImage" />
        <dc:title></dc:title>
      </cc:Work>
    </rdf:RDF>
  </metadata>
  <g
     id="layer1"
     inkscape:groupmode="layer"
     inkscape:label="Layer 1"
     transform="translate(-165.58946,-46.679786)">
    <path
       inkscape:connector-curvature="0"
       id="path815"
       d="m 168.54641,60.16482 -0.12711,-1.196566 -0.0849,-1.208143 0.0199,-1.310221 0.0675,-0.142511 0.0821,-0.05743 0.12672,-0.03473 1.79936,-0.126401 0.17799,0.08221 0.0604,0.124914 0.10077,0.698998 0.2272,2.989165 -0.0311,0.415497 -0.0842,0.272842 -0.19782,0.125835 -0.29748,0.05534 -1.15674,0.08126 -0.24473,-0.05169 -0.24037,-0.112275 -0.13862,-0.257193 z"
       style="fill:#c7c7c7;fill-opacity:1;stroke:#000000;stroke-width:0.01202531px;stroke-linecap:butt;stroke-linejoin:miter;stroke-opacity:1" />
    <path
       sodipodi:nodetypes="ccccccccc"
       inkscape:connector-curvature="0"
       id="path819"
       d="m 172.2186,56.311377 -0.44477,0.04098 -0.0424,0.288562 -0.0283,0.347648 0.0628,0.494514 0.6765,-0.05371 -0.034,-0.462665 -0.0673,-0.356085 z"
       style="fill:#c7c7c7;fill-opacity:1;stroke:#000000;stroke-width:0.01202531px;stroke-linecap:butt;stroke-linejoin:miter;stroke-opacity:1" />
    <path
       inkscape:connector-curvature="0"
       id="path823"
       d="m 171.75416,57.45311 -0.23227,0.564832 0.15683,1.702103 0.33994,0.227454 0.65324,-0.06019 0.2948,-0.337696 -0.15604,-1.69355 -0.36968,-0.474865 z"
       style="fill:#c7c7c7;fill-opacity:1;stroke:#000000;stroke-width:0.01078208px;stroke-linecap:butt;stroke-linejoin:miter;stroke-opacity:1" />
    <path
       style="fill:#c7c7c7;fill-opacity:1;stroke:#000000;stroke-width:0.01202531px;stroke-linecap:butt;stroke-linejoin:miter;stroke-opacity:1"
       d="m 172.21039,60.921813 0.44477,-0.04098 0.0424,-0.288563 0.0284,-0.347648 -0.0628,-0.494514 -0.67649,0.05371 0.034,0.462665 0.0673,0.356085 z"
       id="path825"
       inkscape:connector-curvature="0"
       sodipodi:nodetypes="ccccccccc" />
    <path
       id="rect831"
       d="m 168.11279,56.850715 v 3.690438 l -0.0419,0.109767 -0.11454,0.08945 -0.17016,0.06021 -0.20882,0.02205 h -1.36301 l -0.20882,-0.02205 -0.17016,-0.06021 -0.11454,-0.08945 -0.0419,-0.109767 v -3.690438 l 0.0419,-0.109766 0.11454,-0.08945 0.17016,-0.06021 0.20882,-0.02205 h 1.36301 l 0.20882,0.02205 0.17016,0.06021 0.11454,0.08945 0.0419,0.109766 v 0"
       style="fill:#c7c7c7;fill-opacity:1;stroke:#000000;stroke-width:0.01688443;stroke-miterlimit:4;stroke-dasharray:none;stroke-dashoffset:0;stroke-opacity:1;paint-order:markers stroke fill"
       inkscape:connector-curvature="0" />
    <path
       style="fill:#c7c7c7;fill-opacity:1;stroke:#000000;stroke-width:0.01202531px;stroke-linecap:butt;stroke-linejoin:miter;stroke-opacity:1"
       d="m 179.22257,60.327862 -0.14784,-1.194181 -0.10581,-1.20649 -0.003,-1.310369 0.065,-0.14366 0.0811,-0.05885 0.1261,-0.03692 1.7969,-0.157589 0.17939,0.07912 0.0626,0.123847 0.11288,0.697145 0.27901,2.984775 -0.0239,0.415973 -0.0794,0.274262 -0.1956,0.129247 -0.29648,0.06049 -1.15515,0.101306 -0.24559,-0.04744 -0.24229,-0.108089 -0.14306,-0.254751 z"
       id="path1016"
       inkscape:connector-curvature="0" />
    <path
       inkscape:connector-curvature="0"
       id="path1018"
       d="m 181.78573,60.194031 -0.0429,-1.202531 v -1.211121 l 0.11167,-1.305605 0.0773,-0.137432 0.0859,-0.05154 0.12884,-0.02577 h 1.8038 l 0.17179,0.09448 0.0515,0.128843 0.0515,0.70434 0.0172,2.997738 -0.0601,0.412297 -0.10307,0.266274 -0.20615,0.111664 -0.30063,0.03436 h -1.15959 l -0.2405,-0.06872 -0.23192,-0.128843 -0.12025,-0.266274 z"
       style="fill:#c7c7c7;fill-opacity:1;stroke:#000000;stroke-width:0.01202531px;stroke-linecap:butt;stroke-linejoin:miter;stroke-opacity:1" />
    <path
       style="fill:#c7c7c7;fill-opacity:1;stroke:#000000;stroke-width:0.01202531px;stroke-linecap:butt;stroke-linejoin:miter;stroke-opacity:1"
       d="m 181.74794,50.642497 -0.0429,-1.202531 v -1.211121 l 0.11166,-1.305605 0.0773,-0.137433 0.0859,-0.05154 0.12885,-0.02577 h 1.80379 l 0.17179,0.09448 0.0515,0.128844 0.0515,0.704339 0.0172,2.997739 -0.0601,0.412297 -0.10307,0.266274 -0.20615,0.111664 -0.30063,0.03436 h -1.15959 l -0.2405,-0.06872 -0.23192,-0.128843 -0.12025,-0.266274 z"
       id="path1020"
       inkscape:connector-curvature="0" />
    <path
       inkscape:connector-curvature="0"
       id="path1022"
       d="m 179.08257,50.633333 0.027,-1.202996 0.0703,-1.209077 0.18731,-1.296915 0.0851,-0.132711 0.0888,-0.04646 0.13012,-0.01824 1.80075,0.104768 0.16601,0.104302 0.044,0.131619 0.0105,0.706144 -0.15696,2.993676 -0.084,0.408109 -0.11836,0.259838 -0.21229,0.0995 -0.30212,0.01684 -1.15763,-0.06735 -0.2361,-0.08257 -0.22405,-0.142096 -0.10458,-0.27281 z"
       style="fill:#c7c7c7;fill-opacity:1;stroke:#000000;stroke-width:0.01202531px;stroke-linecap:butt;stroke-linejoin:miter;stroke-opacity:1" />
    <path
       inkscape:connector-curvature="0"
       style="fill:#c7c7c7;fill-opacity:1;stroke:#000000;stroke-width:0.01688443;stroke-miterlimit:4;stroke-dasharray:none;stroke-dashoffset:0;stroke-opacity:1;paint-order:markers stroke fill"
       d="m 179.08672,47.140209 -0.13908,3.687816 -0.0461,0.108108 -0.11783,0.08507 -0.17231,0.05375 -0.2095,0.01417 -1.36205,-0.05137 -0.20784,-0.02991 -0.16777,-0.06658 -0.11109,-0.0937 -0.0378,-0.11127 0.13908,-3.687816 0.0461,-0.108107 0.11783,-0.08507 0.17231,-0.05375 0.2095,-0.01417 1.36205,0.05137 0.20784,0.0299 0.16777,0.06658 0.11109,0.0937 0.0378,0.111269 v 0"
       id="path1024" />
    <path
       style="fill:#c7c7c7;fill-opacity:1;stroke:#000000;stroke-width:0.01202531px;stroke-linecap:butt;stroke-linejoin:miter;stroke-opacity:1"
       d="m 165.68488,50.729014 -0.0661,-1.201481 -0.0233,-1.210897 0.0865,-1.307514 0.0746,-0.138896 0.0849,-0.05318 0.12832,-0.02824 1.80347,-0.03474 0.17357,0.09116 0.054,0.127826 0.0651,0.703217 0.0749,2.996852 -0.0522,0.413378 -0.0979,0.268211 -0.20396,0.115613 -0.29992,0.04014 -1.15937,0.02233 -0.24178,-0.06407 -0.23436,-0.124352 -0.12536,-0.263909 z"
       id="path1028"
       inkscape:connector-curvature="0" />
    <path
       inkscape:connector-curvature="0"
       id="path1030"
       d="m 173.84676,50.588998 0.0334,-1.202833 0.0768,-1.208681 0.19428,-1.29589 0.0859,-0.13225 0.089,-0.04598 0.13022,-0.01754 1.80016,0.114449 0.16545,0.105195 0.0433,0.131853 0.007,0.70619 -0.17306,2.992789 -0.0862,0.407651 -0.11977,0.259198 -0.21281,0.09836 -0.30221,0.01521 -1.15725,-0.07357 -0.23566,-0.08384 -0.22327,-0.143298 -0.10312,-0.273369 z"
       style="fill:#c7c7c7;fill-opacity:1;stroke:#000000;stroke-width:0.01202531px;stroke-linecap:butt;stroke-linejoin:miter;stroke-opacity:1" />
    <path
       id="path1032"
       d="m 173.80073,47.290469 -0.27104,3.680472 -0.0499,0.106389 -0.1208,0.08079 -0.17413,0.04755 -0.20987,0.0067 -1.35935,-0.100104 -0.20663,-0.03733 -0.16528,-0.07254 -0.10766,-0.09762 -0.0338,-0.112551 0.27104,-3.680471 0.0499,-0.106389 0.1208,-0.08079 0.17412,-0.04755 0.20988,-0.0067 1.35934,0.100104 0.20663,0.03733 0.16528,0.07254 0.10767,0.09762 0.0338,0.112551 v 0"
       style="fill:#c7c7c7;fill-opacity:1;stroke:#000000;stroke-width:0.01688443;stroke-miterlimit:4;stroke-dasharray:none;stroke-dashoffset:0;stroke-opacity:1;paint-order:markers stroke fill"
       inkscape:connector-curvature="0" />
  </g>
</svg>
