<?xml version="1.0" encoding="UTF-8" standalone="no"?>
<svg
   xmlns:dc="http://purl.org/dc/elements/1.1/"
   xmlns:cc="http://creativecommons.org/ns#"
   xmlns:rdf="http://www.w3.org/1999/02/22-rdf-syntax-ns#"
   xmlns:svg="http://www.w3.org/2000/svg"
   xmlns="http://www.w3.org/2000/svg"
   xmlns:sodipodi="http://sodipodi.sourceforge.net/DTD/sodipodi-0.dtd"
   xmlns:inkscape="http://www.inkscape.org/namespaces/inkscape"
   width="36.617939mm"
   height="26.694475mm"
   viewBox="0 0 36.617939 26.694475"
   version="1.1"
   id="svg8"
   inkscape:version="1.0.1 (3bc2e813f5, 2020-09-07)"
   sodipodi:docname="parking3.svg">
  <sodipodi:namedview
     id="base"
     pagecolor="#ffffff"
     bordercolor="#666666"
     borderopacity="1.0"
     inkscape:pageopacity="0.0"
     inkscape:pageshadow="2"
     inkscape:zoom="7.9195959"
     inkscape:cx="44.429765"
     inkscape:cy="31.094136"
     inkscape:document-units="mm"
     inkscape:current-layer="layer1"
     showgrid="false"
     inkscape:window-width="1869"
     inkscape:window-height="1025"
     inkscape:window-x="51"
     inkscape:window-y="27"
     inkscape:window-maximized="1"
     fit-margin-top="0"
     fit-margin-left="0"
     fit-margin-right="0"
     fit-margin-bottom="0"
     inkscape:snap-nodes="false"
     inkscape:snap-global="true"
     inkscape:document-rotation="0" />
  <defs
     id="defs2" />
  <metadata
     id="metadata5">
    <rdf:RDF>
      <cc:Work
         rdf:about="">
        <dc:format>image/svg+xml</dc:format>
        <dc:type
           rdf:resource="http://purl.org/dc/dcmitype/StillImage" />
        <dc:title />
      </cc:Work>
    </rdf:RDF>
  </metadata>
  <g
     id="layer1"
     inkscape:groupmode="layer"
     inkscape:label="Layer 1"
     transform="translate(-186.07417,-72.339707)">
    <path
       inkscape:connector-curvature="0"
       id="path815"
       d="m 202.36732,86.884781 1.20285,-0.03279 1.21107,0.01023 1.30462,0.122686 0.13677,0.07846 0.0508,0.08633 0.0247,0.129055 -0.0152,1.803733 -0.0959,0.170986 -0.12928,0.05045 -0.70475,0.04559 -2.99777,-0.0081 -0.41177,-0.06361 -0.2654,-0.10532 -0.10991,-0.207083 -0.0318,-0.300913 0.01,-1.159542 0.0708,-0.239917 0.13079,-0.230821 0.26728,-0.117999 z"
       style="fill:#c7c7c7;fill-opacity:1;stroke:#000000;stroke-width:0.0120253px;stroke-linecap:butt;stroke-linejoin:miter;stroke-opacity:1" />
    <path
       sodipodi:nodetypes="ccccccccc"
       inkscape:connector-curvature="0"
       id="path819"
       d="m 190.69101,81.429614 -0.041,-0.444771 -0.28856,-0.04242 -0.34765,-0.02835 -0.49451,0.06282 0.0537,0.676497 0.46266,-0.034 0.35609,-0.06731 z"
       style="fill:#c7c7c7;fill-opacity:1;stroke:#000000;stroke-width:0.01202531px;stroke-linecap:butt;stroke-linejoin:miter;stroke-opacity:1" />
    <path
       inkscape:connector-curvature="0"
       id="path823"
       d="m 189.54927,80.965167 -0.56483,-0.232272 -1.7021,0.156834 -0.22746,0.339946 0.0602,0.653232 0.3377,0.294808 1.69355,-0.156045 0.47486,-0.369678 z"
       style="fill:#c7c7c7;fill-opacity:1;stroke:#000000;stroke-width:0.01078208px;stroke-linecap:butt;stroke-linejoin:miter;stroke-opacity:1" />
    <path
       style="fill:#c7c7c7;fill-opacity:1;stroke:#000000;stroke-width:0.01202531px;stroke-linecap:butt;stroke-linejoin:miter;stroke-opacity:1"
       d="m 186.08057,81.421402 0.041,0.444771 0.28856,0.04242 0.34765,0.02835 0.49452,-0.06282 -0.0537,-0.676497 -0.46267,0.034 -0.35608,0.06731 z"
       id="path825"
       inkscape:connector-curvature="0"
       sodipodi:nodetypes="ccccccccc" />
    <path
       style="fill:#c7c7c7;fill-opacity:1;stroke:#000000;stroke-width:0.01202531px;stroke-linecap:butt;stroke-linejoin:miter;stroke-opacity:1"
       d="m 192.1908,87.268025 1.19418,-0.147842 1.20649,-0.105809 1.31037,-0.0028 0.14366,0.065 0.0589,0.08107 0.0369,0.126098 0.15759,1.7969 -0.0791,0.179388 -0.12385,0.0626 -0.69715,0.112874 -2.98477,0.279009 -0.41597,-0.02388 -0.27427,-0.07942 -0.12924,-0.195605 -0.0605,-0.296481 -0.10131,-1.15515 0.0474,-0.24559 0.10809,-0.242287 0.25475,-0.143056 z"
       id="path1016"
       inkscape:connector-curvature="0" />
    <path
       inkscape:connector-curvature="0"
       id="path1018"
       d="m 187.23349,87.357602 1.20253,-0.04295 h 1.21112 l 1.3056,0.111663 0.13743,0.07731 0.0515,0.08589 0.0258,0.128843 v 1.803796 l -0.0945,0.171791 -0.12885,0.05154 -0.70434,0.05154 -2.99773,0.01718 -0.4123,-0.06013 -0.26628,-0.103074 -0.11166,-0.206148 -0.0344,-0.300633 v -1.159584 l 0.0687,-0.240506 0.12884,-0.231917 0.26628,-0.120253 z"
       style="fill:#c7c7c7;fill-opacity:1;stroke:#000000;stroke-width:0.01202531px;stroke-linecap:butt;stroke-linejoin:miter;stroke-opacity:1" />
    <path
       inkscape:connector-curvature="0"
       id="path1022"
       d="m 204.23881,79.862653 1.27147,-0.07132 0.36771,-0.02859 1.38441,0.08081 0.14737,0.07404 0.0567,0.08465 0.0305,0.128199 0.0451,1.803297 -0.0957,0.173972 -0.13506,0.05456 -0.74406,0.06815 -2.25792,0.08794 -0.4378,-0.05038 -0.28436,-0.09676 -0.12331,-0.203455 -0.0439,-0.299738 -0.029,-1.159262 0.0667,-0.242062 0.13055,-0.234895 0.27877,-0.126505 z"
       style="fill:#c7c7c7;fill-opacity:1;stroke:#000000;stroke-width:0.01237216px;stroke-linecap:butt;stroke-linejoin:miter;stroke-opacity:1"
       sodipodi:nodetypes="ccccccccccccccccccccc" />
    <path
       style="fill:#c7c7c7;fill-opacity:1;stroke:#000000;stroke-width:0.01202531px;stroke-linecap:butt;stroke-linejoin:miter;stroke-opacity:1"
       d="m 218.77533,87.23143 1.19797,0.11304 1.20094,0.156739 1.28017,0.27969 0.12628,0.09444 0.04,0.09184 0.009,0.131094 -0.23344,1.788627 -0.11592,0.158118 -0.13443,0.03443 -0.70509,-0.04005 -2.97475,-0.370921 -0.40105,-0.112978 -0.25069,-0.136668 -0.084,-0.218866 0.005,-0.30255 0.15007,-1.149833 0.0993,-0.22959 0.15777,-0.213293 0.2796,-0.08478 z"
       id="path1028"
       inkscape:connector-curvature="0" />
    <path
       inkscape:connector-curvature="0"
       id="path1030"
       d="m 208.54236,79.841987 1.20162,-0.0635 1.21094,-0.02071 1.30733,0.08932 0.13873,0.07494 0.053,0.085 0.028,0.128383 0.0308,1.803533 -0.0915,0.17338 -0.12795,0.05373 -0.70335,0.06357 -2.99701,0.06843 -0.41326,-0.05307 -0.268,-0.09851 -0.11517,-0.204209 -0.0395,-0.300001 -0.0198,-1.159414 0.0646,-0.241646 0.12486,-0.234086 0.26418,-0.124788 z"
       style="fill:#c7c7c7;fill-opacity:1;stroke:#000000;stroke-width:0.01202531px;stroke-linecap:butt;stroke-linejoin:miter;stroke-opacity:1" />
    <path
       style="fill:#c7c7c7;fill-opacity:1;stroke:#000000;stroke-width:0.01202531px;stroke-linecap:butt;stroke-linejoin:miter;stroke-opacity:1"
       d="m 191.81883,80.061435 1.20162,-0.0635 1.21095,-0.02071 1.30732,0.08932 0.13874,0.07494 0.053,0.085 0.028,0.128384 0.0308,1.803532 -0.0915,0.173381 -0.12794,0.05373 -0.70336,0.06357 -2.99701,0.06843 -0.41326,-0.05307 -0.268,-0.09851 -0.11517,-0.204209 -0.0395,-0.300001 -0.0198,-1.159414 0.0646,-0.241647 0.12486,-0.234085 0.26418,-0.124789 z"
       id="path1521"
       inkscape:connector-curvature="0" />
    <path
       inkscape:connector-curvature="0"
       id="path1523"
       d="m 207.31784,86.906496 0.8155,-0.04295 h 0.96908 l 1.40765,0.111663 0.14817,0.07731 0.0556,0.08589 0.0278,0.128843 v 1.803796 l -0.10187,0.171791 -0.13891,0.05154 -0.75939,0.05154 -2.41432,0.01718 -0.44452,-0.06013 -0.28709,-0.103074 -0.12039,-0.206148 -0.037,-0.300633 V 87.53353 l 0.0741,-0.240506 0.13891,-0.231917 0.28709,-0.120253 z"
       style="fill:#c7c7c7;fill-opacity:1;stroke:#000000;stroke-width:0.0124864px;stroke-linecap:butt;stroke-linejoin:miter;stroke-opacity:1"
       sodipodi:nodetypes="ccccccccccccccccccccc" />
    <path
       style="fill:#c7c7c7;fill-opacity:1;stroke:#000000;stroke-width:0.01202531px;stroke-linecap:butt;stroke-linejoin:miter;stroke-opacity:1"
       d="m 222.62537,81.489829 0.009,-0.446558 -0.28196,-0.07461 -0.34225,-0.06728 -0.49844,0.0068 -0.0227,0.678244 0.46356,0.01826 0.36139,-0.02683 z"
       id="path1525"
       inkscape:connector-curvature="0"
       sodipodi:nodetypes="ccccccccc" />
    <path
       style="fill:#c7c7c7;fill-opacity:1;stroke:#000000;stroke-width:0.01078208px;stroke-linecap:butt;stroke-linejoin:miter;stroke-opacity:1"
       d="m 221.54313,80.899889 -0.53511,-0.294338 -1.70895,-0.03564 -0.26425,0.3122 -0.0137,0.655857 0.30239,0.330926 1.70035,0.03546 0.51344,-0.31391 z"
       id="path1527"
       inkscape:connector-curvature="0" />
    <path
       sodipodi:nodetypes="ccccccccc"
       inkscape:connector-curvature="0"
       id="path1529"
       d="m 218.04512,80.963013 -0.009,0.446558 0.28196,0.07461 0.34225,0.06728 0.49844,-0.0068 0.0227,-0.678244 -0.46355,-0.01826 -0.3614,0.02683 z"
       style="fill:#c7c7c7;fill-opacity:1;stroke:#000000;stroke-width:0.01202531px;stroke-linecap:butt;stroke-linejoin:miter;stroke-opacity:1" />
    <path
       style="fill:#c7c7c7;fill-opacity:1;stroke:#000000;stroke-width:0.01202531px;stroke-linecap:butt;stroke-linejoin:miter;stroke-opacity:1"
       d="m 186.36965,90.095081 v 8.933089 h 36.31645 v -8.486435 l -4.53526,-0.584086 -12.05967,-0.377939 -13.91501,0.481013 z"
       id="path849"
       inkscape:connector-curvature="0" />
    <path
       inkscape:connector-curvature="0"
       id="path1030-3"
       d="m 213.59049,79.774145 1.20162,-0.0635 1.21094,-0.02071 1.30733,0.08932 0.13873,0.07494 0.053,0.085 0.028,0.128383 0.0308,1.803533 -0.0915,0.17338 -0.12795,0.05373 -0.70335,0.06357 -2.99701,0.06843 -0.41326,-0.05307 -0.268,-0.09851 -0.11517,-0.204209 -0.0395,-0.300001 -0.0198,-1.159414 0.0646,-0.241646 0.12486,-0.234086 0.26418,-0.124788 z"
       style="fill:#c7c7c7;fill-opacity:1;stroke:#000000;stroke-width:0.01202531px;stroke-linecap:butt;stroke-linejoin:miter;stroke-opacity:1" />
    <path
       inkscape:connector-curvature="0"
       id="path1018-3"
       d="m 197.41863,87.029156 1.20253,-0.04295 h 1.21112 l 1.3056,0.111663 0.13743,0.07731 0.0515,0.08589 0.0258,0.128843 v 1.803796 l -0.0945,0.171791 -0.12885,0.05154 -0.70434,0.05154 -2.99773,0.01718 -0.4123,-0.06013 -0.26628,-0.103074 -0.11166,-0.206148 -0.0344,-0.300633 V 87.65619 l 0.0687,-0.240506 0.12884,-0.231917 0.26628,-0.120253 z"
       style="fill:#c7c7c7;fill-opacity:1;stroke:#000000;stroke-width:0.0120253px;stroke-linecap:butt;stroke-linejoin:miter;stroke-opacity:1" />
    <path
       style="fill:#c7c7c7;fill-opacity:1;stroke:#000000;stroke-width:0.0171917px;stroke-linecap:butt;stroke-linejoin:miter;stroke-opacity:1"
       d="m 222.76643,79.412888 -0.0626,-6.989565 -36.3422,0.01353 -0.20507,7.013633 z"
       id="path847-6"
       inkscape:connector-curvature="0"
       sodipodi:nodetypes="ccccc" />
  </g>
</svg>
