<?xml version="1.0" encoding="UTF-8" standalone="no"?>
<svg
   xmlns:dc="http://purl.org/dc/elements/1.1/"
   xmlns:cc="http://creativecommons.org/ns#"
   xmlns:rdf="http://www.w3.org/1999/02/22-rdf-syntax-ns#"
   xmlns:svg="http://www.w3.org/2000/svg"
   xmlns="http://www.w3.org/2000/svg"
   xmlns:sodipodi="http://sodipodi.sourceforge.net/DTD/sodipodi-0.dtd"
   xmlns:inkscape="http://www.inkscape.org/namespaces/inkscape"
   width="85.772507mm"
   height="80.471352mm"
   viewBox="0 0 85.772506 80.471351"
   version="1.1"
   id="svg8"
   inkscape:version="1.0.1 (3bc2e813f5, 2020-09-07)"
   sodipodi:docname="warehouse.svg">
  <sodipodi:namedview
     id="base"
     pagecolor="#ffffff"
     bordercolor="#666666"
     borderopacity="1.0"
     inkscape:pageopacity="0.0"
     inkscape:pageshadow="2"
     inkscape:zoom="3.959798"
     inkscape:cx="119.31405"
     inkscape:cy="152.49404"
     inkscape:document-units="mm"
     inkscape:current-layer="layer1"
     showgrid="false"
     inkscape:window-width="1920"
     inkscape:window-height="1025"
     inkscape:window-x="1920"
     inkscape:window-y="27"
     inkscape:window-maximized="1"
     fit-margin-top="0"
     fit-margin-left="0"
     fit-margin-right="0"
     fit-margin-bottom="0"
     inkscape:snap-nodes="false"
     inkscape:snap-global="false"
     inkscape:document-rotation="0" />
  <defs
     id="defs2" />
  <metadata
     id="metadata5">
    <rdf:RDF>
      <cc:Work
         rdf:about="">
        <dc:format>image/svg+xml</dc:format>
        <dc:type
           rdf:resource="http://purl.org/dc/dcmitype/StillImage" />
        <dc:title />
      </cc:Work>
    </rdf:RDF>
  </metadata>
  <g
     transform="translate(-655.71631,-577.30802)"
     inkscape:label="Layer 1"
     inkscape:groupmode="layer"
     id="layer1">
    <path
       id="path1024"
       d="m 678.25477,599.46082 -0.16084,32.67389 -0.17703,0.9719 -0.4742,0.79211 -0.70131,0.53334 -0.85836,0.19557 -5.59652,0.002 -0.85644,-0.19491 -0.69607,-0.53281 -0.4664,-0.79175 -0.16746,-0.97177 0.16083,-32.67389 0.17704,-0.9719 0.4742,-0.79212 0.70131,-0.53333 0.85836,-0.19556 5.59652,-0.002 0.85644,0.1949 0.69606,0.53282 0.4664,0.79176 0.16747,0.97176 v 0"
       style="fill:#c7c7c7;fill-opacity:1;stroke:#000000;stroke-width:0.10180195;stroke-miterlimit:4;stroke-dasharray:none;stroke-dashoffset:0;stroke-opacity:1;paint-order:markers stroke fill"
       inkscape:connector-curvature="0" />
    <path
       id="rect1592"
       d="m 669.35293,588.6346 h 2.37784 l 0.27309,0.0549 0.22253,0.1498 0.1498,0.22253 0.0549,0.27309 v 2.20605 l -0.0549,0.27309 -0.1498,0.22253 -0.22253,0.1498 -0.27309,0.0549 h -2.37784 l -0.27309,-0.0549 -0.22253,-0.1498 -0.14979,-0.22253 -0.0549,-0.27309 v -2.20605 l 0.0549,-0.27309 0.14979,-0.22253 0.22253,-0.1498 0.27309,-0.0549 v 0"
       style="fill:#c7c7c7;fill-opacity:1;stroke:#1b0202;stroke-width:0.01334935;stroke-miterlimit:4;stroke-dasharray:none;stroke-dashoffset:0;stroke-opacity:1;paint-order:normal"
       inkscape:connector-curvature="0" />
    <path
       style="fill:#c7c7c7;fill-opacity:1;stroke:#1b0202;stroke-width:0.01334935;stroke-miterlimit:4;stroke-dasharray:none;stroke-dashoffset:0;stroke-opacity:1;paint-order:normal"
       d="m 669.35293,584.79602 h 2.37784 l 0.27309,0.0549 0.22253,0.14979 0.1498,0.22253 0.0549,0.27309 v 2.20605 l -0.0549,0.27309 -0.1498,0.22253 -0.22253,0.1498 -0.27309,0.0549 h -2.37784 l -0.27309,-0.0549 -0.22253,-0.1498 -0.14979,-0.22253 -0.0549,-0.27309 v -2.20605 l 0.0549,-0.27309 0.14979,-0.22253 0.22253,-0.14979 0.27309,-0.0549 v 0"
       id="path1856"
       inkscape:connector-curvature="0" />
    <path
       inkscape:connector-curvature="0"
       id="path1858"
       d="m 669.40152,577.31469 h 2.37784 l 0.27309,0.0549 0.22253,0.1498 0.1498,0.22253 0.0549,0.27309 v 2.20605 l -0.0549,0.27308 -0.1498,0.22254 -0.22253,0.14979 -0.27309,0.0549 h -2.37784 l -0.27309,-0.0549 -0.22253,-0.14979 -0.1498,-0.22254 -0.0549,-0.27308 v -2.20605 l 0.0549,-0.27309 0.1498,-0.22253 0.22253,-0.1498 0.27309,-0.0549 v 0"
       style="fill:#c7c7c7;fill-opacity:1;stroke:#1b0202;stroke-width:0.01334935;stroke-miterlimit:4;stroke-dasharray:none;stroke-dashoffset:0;stroke-opacity:1;paint-order:normal" />
    <path
       style="fill:#c7c7c7;fill-opacity:1;stroke:#1b0202;stroke-width:0.01334935;stroke-miterlimit:4;stroke-dasharray:none;stroke-dashoffset:0;stroke-opacity:1;paint-order:normal"
       d="m 673.50734,577.31469 h 2.37784 l 0.27309,0.0549 0.22253,0.1498 0.1498,0.22253 0.0549,0.27309 v 2.20605 l -0.0549,0.27308 -0.1498,0.22254 -0.22253,0.14979 -0.27309,0.0549 h -2.37784 l -0.27308,-0.0549 -0.22254,-0.14979 -0.14979,-0.22254 -0.0549,-0.27308 v -2.20605 l 0.0549,-0.27309 0.14979,-0.22253 0.22254,-0.1498 0.27308,-0.0549 v 0"
       id="path1860"
       inkscape:connector-curvature="0" />
    <path
       inkscape:connector-curvature="0"
       id="path1862"
       d="m 677.71034,577.31469 h 2.37784 l 0.27309,0.0549 0.22253,0.1498 0.1498,0.22253 0.0549,0.27309 v 2.20605 l -0.0549,0.27308 -0.1498,0.22254 -0.22253,0.14979 -0.27309,0.0549 h -2.37784 l -0.27308,-0.0549 -0.22254,-0.14979 -0.14979,-0.22254 -0.0549,-0.27308 v -2.20605 l 0.0549,-0.27309 0.14979,-0.22253 0.22254,-0.1498 0.27308,-0.0549 v 0"
       style="fill:#c7c7c7;fill-opacity:1;stroke:#1b0202;stroke-width:0.01334935;stroke-miterlimit:4;stroke-dasharray:none;stroke-dashoffset:0;stroke-opacity:1;paint-order:normal" />
    <path
       style="fill:#c7c7c7;fill-opacity:1;stroke:#1b0202;stroke-width:0.01334935;stroke-miterlimit:4;stroke-dasharray:none;stroke-dashoffset:0;stroke-opacity:1;paint-order:normal"
       d="m 674.64563,584.52924 2.37296,0.15225 0.26901,0.0722 0.21249,0.16373 0.13524,0.23167 0.0373,0.27604 -0.14125,2.20152 -0.0722,0.26902 -0.16374,0.21248 -0.23167,0.13524 -0.27604,0.0373 -2.37296,-0.15225 -0.26901,-0.0722 -0.21249,-0.16373 -0.13524,-0.23167 -0.0373,-0.27604 0.14125,-2.20153 0.0722,-0.26901 0.16374,-0.21249 0.23167,-0.13524 0.27604,-0.0373 v 0"
       id="path1864"
       inkscape:connector-curvature="0" />
    <path
       inkscape:connector-curvature="0"
       id="path1866"
       d="m 674.52234,588.94606 2.37751,-0.0394 0.27396,0.0503 0.22498,0.14609 0.15346,0.22002 0.0594,0.27214 0.0365,2.20575 -0.0503,0.27396 -0.1461,0.22498 -0.22002,0.15346 -0.27214,0.0594 -2.37752,0.0394 -0.27395,-0.0503 -0.22499,-0.14609 -0.15345,-0.22003 -0.0594,-0.27214 -0.0365,-2.20575 0.0503,-0.27395 0.14609,-0.22499 0.22003,-0.15345 0.27214,-0.0594 v 0"
       style="fill:#c7c7c7;fill-opacity:1;stroke:#1b0202;stroke-width:0.01334935;stroke-miterlimit:4;stroke-dasharray:none;stroke-dashoffset:0;stroke-opacity:1;paint-order:normal" />
    <path
       inkscape:connector-curvature="0"
       id="path1868"
       d="m 681.81616,577.41065 h 2.37784 l 0.27309,0.0549 0.22254,0.14979 0.14979,0.22254 0.0549,0.27309 v 2.20605 l -0.0549,0.27308 -0.14979,0.22254 -0.22254,0.14979 -0.27309,0.0549 h -2.37784 l -0.27308,-0.0549 -0.22254,-0.14979 -0.14979,-0.22254 -0.0549,-0.27308 v -2.20605 l 0.0549,-0.27309 0.14979,-0.22254 0.22254,-0.14979 0.27308,-0.0549 v 0"
       style="fill:#c7c7c7;fill-opacity:1;stroke:#1b0202;stroke-width:0.01334935;stroke-miterlimit:4;stroke-dasharray:none;stroke-dashoffset:0;stroke-opacity:1;paint-order:normal" />
    <path
       inkscape:connector-curvature="0"
       style="fill:#c7c7c7;fill-opacity:1;stroke:#000000;stroke-width:0.10180195;stroke-miterlimit:4;stroke-dasharray:none;stroke-dashoffset:0;stroke-opacity:1;paint-order:markers stroke fill"
       d="m 694.67805,599.46082 -0.16084,32.67389 -0.17703,0.9719 -0.4742,0.79211 -0.70131,0.53334 -0.85836,0.19557 -5.59652,0.002 -0.85644,-0.19491 -0.69606,-0.53281 -0.4664,-0.79175 -0.16747,-0.97177 0.16084,-32.67389 0.17703,-0.9719 0.4742,-0.79212 0.70131,-0.53333 0.85836,-0.19556 5.59652,-0.002 0.85644,0.1949 0.69606,0.53282 0.46641,0.79176 0.16746,0.97176 v 0"
       id="path1870" />
    <path
       id="path1872"
       d="m 711.414,599.46082 -0.16084,32.67389 -0.17703,0.9719 -0.4742,0.79211 -0.70131,0.53334 -0.85836,0.19557 -5.59652,0.002 -0.85644,-0.19491 -0.69607,-0.53281 -0.4664,-0.79175 -0.16746,-0.97177 0.16083,-32.67389 0.17704,-0.9719 0.4742,-0.79212 0.70131,-0.53333 0.85835,-0.19556 5.59653,-0.002 0.85644,0.1949 0.69606,0.53282 0.4664,0.79176 0.16747,0.97176 v 0"
       style="fill:#c7c7c7;fill-opacity:1;stroke:#000000;stroke-width:0.10180195;stroke-miterlimit:4;stroke-dasharray:none;stroke-dashoffset:0;stroke-opacity:1;paint-order:markers stroke fill"
       inkscape:connector-curvature="0" />
    <path
       style="fill:#c7c7c7;fill-opacity:1;stroke:#1b0202;stroke-width:0.01334935;stroke-miterlimit:4;stroke-dasharray:none;stroke-dashoffset:0;stroke-opacity:1;paint-order:normal"
       d="m 686.3107,577.31469 h 2.37784 l 0.27309,0.0549 0.22253,0.1498 0.1498,0.22253 0.0549,0.27309 v 2.20605 l -0.0549,0.27308 -0.1498,0.22254 -0.22253,0.14979 -0.27309,0.0549 h -2.37784 l -0.27309,-0.0549 -0.22253,-0.14979 -0.14979,-0.22254 -0.0549,-0.27308 v -2.20605 l 0.0549,-0.27309 0.14979,-0.22253 0.22253,-0.1498 0.27309,-0.0549 v 0"
       id="path1874"
       inkscape:connector-curvature="0" />
    <path
       inkscape:connector-curvature="0"
       id="path1876"
       d="m 690.41652,577.31469 h 2.37784 l 0.27309,0.0549 0.22253,0.1498 0.1498,0.22253 0.0549,0.27309 v 2.20605 l -0.0549,0.27308 -0.1498,0.22254 -0.22253,0.14979 -0.27309,0.0549 h -2.37784 l -0.27308,-0.0549 -0.22254,-0.14979 -0.14979,-0.22254 -0.0549,-0.27308 v -2.20605 l 0.0549,-0.27309 0.14979,-0.22253 0.22254,-0.1498 0.27308,-0.0549 v 0"
       style="fill:#c7c7c7;fill-opacity:1;stroke:#1b0202;stroke-width:0.01334935;stroke-miterlimit:4;stroke-dasharray:none;stroke-dashoffset:0;stroke-opacity:1;paint-order:normal" />
    <path
       style="fill:#c7c7c7;fill-opacity:1;stroke:#1b0202;stroke-width:0.01334935;stroke-miterlimit:4;stroke-dasharray:none;stroke-dashoffset:0;stroke-opacity:1;paint-order:normal"
       d="m 694.61952,577.31469 h 2.37784 l 0.27309,0.0549 0.22254,0.1498 0.14979,0.22253 0.0549,0.27309 v 2.20605 l -0.0549,0.27308 -0.14979,0.22254 -0.22254,0.14979 -0.27309,0.0549 h -2.37784 l -0.27308,-0.0549 -0.22254,-0.14979 -0.14979,-0.22254 -0.0549,-0.27308 v -2.20605 l 0.0549,-0.27309 0.14979,-0.22253 0.22254,-0.1498 0.27308,-0.0549 v 0"
       id="path1878"
       inkscape:connector-curvature="0" />
    <path
       style="fill:#c7c7c7;fill-opacity:1;stroke:#1b0202;stroke-width:0.01334935;stroke-miterlimit:4;stroke-dasharray:none;stroke-dashoffset:0;stroke-opacity:1;paint-order:normal"
       d="m 698.91775,577.36255 h 2.37784 l 0.27309,0.0549 0.22253,0.14979 0.1498,0.22254 0.0549,0.27308 v 2.20606 l -0.0549,0.27308 -0.1498,0.22254 -0.22253,0.14979 -0.27309,0.0549 h -2.37784 l -0.27309,-0.0549 -0.22253,-0.14979 -0.1498,-0.22254 -0.0549,-0.27308 v -2.20606 l 0.0549,-0.27308 0.1498,-0.22254 0.22253,-0.14979 0.27309,-0.0549 v 0"
       id="path1880"
       inkscape:connector-curvature="0" />
    <path
       inkscape:connector-curvature="0"
       id="path1882"
       d="m 703.33818,577.31469 h 2.37784 l 0.27309,0.0549 0.22254,0.1498 0.14979,0.22253 0.0549,0.27309 v 2.20605 l -0.0549,0.27308 -0.14979,0.22254 -0.22254,0.14979 -0.27309,0.0549 h -2.37784 l -0.27308,-0.0549 -0.22254,-0.14979 -0.14979,-0.22254 -0.0549,-0.27308 v -2.20605 l 0.0549,-0.27309 0.14979,-0.22253 0.22254,-0.1498 0.27308,-0.0549 v 0"
       style="fill:#c7c7c7;fill-opacity:1;stroke:#1b0202;stroke-width:0.01334935;stroke-miterlimit:4;stroke-dasharray:none;stroke-dashoffset:0;stroke-opacity:1;paint-order:normal" />
    <path
       style="fill:#c7c7c7;fill-opacity:1;stroke:#1b0202;stroke-width:0.01334935;stroke-miterlimit:4;stroke-dasharray:none;stroke-dashoffset:0;stroke-opacity:1;paint-order:normal"
       d="m 707.54021,577.31469 h 2.37784 l 0.27309,0.0549 0.22253,0.1498 0.14979,0.22253 0.0549,0.27309 v 2.20605 l -0.0549,0.27308 -0.14979,0.22254 -0.22253,0.14979 -0.27309,0.0549 h -2.37784 l -0.27309,-0.0549 -0.22253,-0.14979 -0.1498,-0.22254 -0.0549,-0.27308 v -2.20605 l 0.0549,-0.27309 0.1498,-0.22253 0.22253,-0.1498 0.27309,-0.0549 v 0"
       id="path1884"
       inkscape:connector-curvature="0" />
    <path
       inkscape:connector-curvature="0"
       id="path1886"
       d="m 711.88751,577.31469 h 2.37787 l 0.27309,0.0549 0.22254,0.1498 0.14979,0.22253 0.0549,0.27309 v 2.20605 l -0.0549,0.27308 -0.14979,0.22254 -0.22254,0.14979 -0.27309,0.0549 h -2.37787 l -0.27308,-0.0549 -0.22254,-0.14979 -0.14979,-0.22254 -0.0549,-0.27308 v -2.20605 l 0.0549,-0.27309 0.14979,-0.22253 0.22254,-0.1498 0.27308,-0.0549 v 0"
       style="fill:#c7c7c7;fill-opacity:1;stroke:#1b0202;stroke-width:0.01334935;stroke-miterlimit:4;stroke-dasharray:none;stroke-dashoffset:0;stroke-opacity:1;paint-order:normal" />
    <path
       inkscape:connector-curvature="0"
       id="path1888"
       d="m 716.16173,577.41065 h 2.37784 l 0.27309,0.0549 0.22253,0.14979 0.1498,0.22254 0.0549,0.27309 v 2.20605 l -0.0549,0.27308 -0.1498,0.22254 -0.22253,0.14979 -0.27309,0.0549 h -2.37784 l -0.27309,-0.0549 -0.22253,-0.14979 -0.1498,-0.22254 -0.0549,-0.27308 v -2.20605 l 0.0549,-0.27309 0.1498,-0.22254 0.22253,-0.14979 0.27309,-0.0549 v 0"
       style="fill:#c7c7c7;fill-opacity:1;stroke:#1b0202;stroke-width:0.01334935;stroke-miterlimit:4;stroke-dasharray:none;stroke-dashoffset:0;stroke-opacity:1;paint-order:normal" />
    <path
       inkscape:connector-curvature="0"
       style="fill:#c7c7c7;fill-opacity:1;stroke:#000000;stroke-width:0.10180195;stroke-miterlimit:4;stroke-dasharray:none;stroke-dashoffset:0;stroke-opacity:1;paint-order:markers stroke fill"
       d="m 728.76681,599.46082 -0.16084,32.67389 -0.17703,0.9719 -0.4742,0.79211 -0.70131,0.53334 -0.85836,0.19557 -5.59652,0.002 -0.85644,-0.19491 -0.69606,-0.53281 -0.4664,-0.79175 -0.16747,-0.97177 0.16084,-32.67389 0.17703,-0.9719 0.4742,-0.79212 0.70131,-0.53333 0.85836,-0.19556 5.59652,-0.002 0.85644,0.1949 0.69606,0.53282 0.46641,0.79176 0.16746,0.97176 v 0"
       id="path1890" />
    <path
       style="fill:#c7c7c7;fill-opacity:1;stroke:#1b0202;stroke-width:0.01334935;stroke-miterlimit:4;stroke-dasharray:none;stroke-dashoffset:0;stroke-opacity:1;paint-order:normal"
       d="m 669.20814,636.1081 h 2.37784 l 0.27309,0.0549 0.22253,0.14979 0.14979,0.22254 0.0549,0.27308 v 2.20605 l -0.0549,0.27309 -0.14979,0.22254 -0.22253,0.14979 -0.27309,0.0549 h -2.37784 l -0.27309,-0.0549 -0.22253,-0.14979 -0.1498,-0.22254 -0.0549,-0.27309 v -2.20605 l 0.0549,-0.27308 0.1498,-0.22254 0.22253,-0.14979 0.27309,-0.0549 v 0"
       id="path1892"
       inkscape:connector-curvature="0" />
    <path
       inkscape:connector-curvature="0"
       id="path1894"
       d="m 673.81903,636.1081 h 2.37784 l 0.27308,0.0549 0.22254,0.14979 0.14979,0.22254 0.0549,0.27308 v 2.20605 l -0.0549,0.27309 -0.14979,0.22254 -0.22254,0.14979 -0.27308,0.0549 h -2.37784 l -0.27309,-0.0549 -0.22254,-0.14979 -0.14979,-0.22254 -0.0549,-0.27309 v -2.20605 l 0.0549,-0.27308 0.14979,-0.22254 0.22254,-0.14979 0.27309,-0.0549 v 0"
       style="fill:#c7c7c7;fill-opacity:1;stroke:#1b0202;stroke-width:0.01334935;stroke-miterlimit:4;stroke-dasharray:none;stroke-dashoffset:0;stroke-opacity:1;paint-order:normal" />
    <path
       inkscape:connector-curvature="0"
       id="path1896"
       d="m 686.11732,636.1081 h 2.37784 l 0.27309,0.0549 0.22253,0.14979 0.1498,0.22254 0.0549,0.27308 v 2.20605 l -0.0549,0.27309 -0.1498,0.22254 -0.22253,0.14979 -0.27309,0.0549 h -2.37784 l -0.27309,-0.0549 -0.22253,-0.14979 -0.1498,-0.22254 -0.0549,-0.27309 v -2.20605 l 0.0549,-0.27308 0.1498,-0.22254 0.22253,-0.14979 0.27309,-0.0549 v 0"
       style="fill:#c7c7c7;fill-opacity:1;stroke:#1b0202;stroke-width:0.01334935;stroke-miterlimit:4;stroke-dasharray:none;stroke-dashoffset:0;stroke-opacity:1;paint-order:normal" />
    <path
       style="fill:#c7c7c7;fill-opacity:1;stroke:#1b0202;stroke-width:0.01334935;stroke-miterlimit:4;stroke-dasharray:none;stroke-dashoffset:0;stroke-opacity:1;paint-order:normal"
       d="m 690.72821,636.1081 h 2.37784 l 0.27308,0.0549 0.22254,0.14979 0.14979,0.22254 0.0549,0.27308 v 2.20605 l -0.0549,0.27309 -0.14979,0.22254 -0.22254,0.14979 -0.27308,0.0549 h -2.37784 l -0.27309,-0.0549 -0.22254,-0.14979 -0.14979,-0.22254 -0.0549,-0.27309 v -2.20605 l 0.0549,-0.27308 0.14979,-0.22254 0.22254,-0.14979 0.27309,-0.0549 v 0"
       id="path1898"
       inkscape:connector-curvature="0" />
    <path
       style="fill:#c7c7c7;fill-opacity:1;stroke:#1b0202;stroke-width:0.01334935;stroke-miterlimit:4;stroke-dasharray:none;stroke-dashoffset:0;stroke-opacity:1;paint-order:normal"
       d="m 702.95044,635.81657 h 2.37784 l 0.27309,0.0549 0.22254,0.14979 0.14979,0.22254 0.0549,0.27309 v 2.20604 l -0.0549,0.27309 -0.14979,0.22254 -0.22254,0.14979 -0.27309,0.0549 h -2.37784 l -0.27308,-0.0549 -0.22254,-0.14979 -0.14979,-0.22254 -0.0549,-0.27309 v -2.20604 l 0.0549,-0.27309 0.14979,-0.22254 0.22254,-0.14979 0.27308,-0.0549 v 0"
       id="path1900"
       inkscape:connector-curvature="0" />
    <path
       inkscape:connector-curvature="0"
       id="path1902"
       d="m 707.46415,636.1081 h 2.37784 l 0.27309,0.0549 0.22253,0.14979 0.1498,0.22254 0.0549,0.27308 v 2.20605 l -0.0549,0.27309 -0.1498,0.22254 -0.22253,0.14979 -0.27309,0.0549 h -2.37784 l -0.27309,-0.0549 -0.22253,-0.14979 -0.14979,-0.22254 -0.0549,-0.27309 v -2.20605 l 0.0549,-0.27308 0.14979,-0.22254 0.22253,-0.14979 0.27309,-0.0549 v 0"
       style="fill:#c7c7c7;fill-opacity:1;stroke:#1b0202;stroke-width:0.01334935;stroke-miterlimit:4;stroke-dasharray:none;stroke-dashoffset:0;stroke-opacity:1;paint-order:normal" />
    <path
       inkscape:connector-curvature="0"
       id="path1904"
       d="m 720.1089,636.20529 h 2.37784 l 0.27309,0.0549 0.22253,0.14979 0.1498,0.22254 0.0549,0.27309 v 2.20604 l -0.0549,0.27309 -0.1498,0.22254 -0.22253,0.14979 -0.27309,0.0549 h -2.37784 l -0.27309,-0.0549 -0.22253,-0.14979 -0.1498,-0.22254 -0.0549,-0.27309 v -2.20604 l 0.0549,-0.27309 0.1498,-0.22254 0.22253,-0.14979 0.27309,-0.0549 v 0"
       style="fill:#c7c7c7;fill-opacity:1;stroke:#1b0202;stroke-width:0.01334935;stroke-miterlimit:4;stroke-dasharray:none;stroke-dashoffset:0;stroke-opacity:1;paint-order:normal" />
    <path
       style="fill:#c7c7c7;fill-opacity:1;stroke:#1b0202;stroke-width:0.01334935;stroke-miterlimit:4;stroke-dasharray:none;stroke-dashoffset:0;stroke-opacity:1;paint-order:normal"
       d="m 724.46705,636.42055 2.34019,-0.42151 0.27849,0.006 0.24556,0.10798 0.18687,0.19246 0.1024,0.25904 0.39105,2.17111 -0.006,0.27848 -0.10797,0.24557 -0.19246,0.18687 -0.25903,0.1024 -2.34019,0.42151 -0.27849,-0.006 -0.24556,-0.10797 -0.18687,-0.19246 -0.1024,-0.25904 -0.39105,-2.17111 0.006,-0.27849 0.10797,-0.24556 0.19246,-0.18687 0.25903,-0.1024 v 0"
       id="path1906"
       inkscape:connector-curvature="0" />
    <path
       style="fill:#c7c7c7;fill-opacity:1;stroke:#1b0202;stroke-width:0.01334935;stroke-miterlimit:4;stroke-dasharray:none;stroke-dashoffset:0;stroke-opacity:1;paint-order:normal"
       d="m 685.58186,591.06408 h 2.37784 l 0.27308,0.0549 0.22254,0.1498 0.14979,0.22253 0.0549,0.27309 v 2.20605 l -0.0549,0.27309 -0.14979,0.22253 -0.22254,0.1498 -0.27308,0.0549 h -2.37784 l -0.27309,-0.0549 -0.22253,-0.1498 -0.1498,-0.22253 -0.0549,-0.27309 v -2.20605 l 0.0549,-0.27309 0.1498,-0.22253 0.22253,-0.1498 0.27309,-0.0549 v 0"
       id="path1908"
       inkscape:connector-curvature="0" />
    <path
       inkscape:connector-curvature="0"
       id="path1910"
       d="m 685.58186,587.2255 h 2.37784 l 0.27308,0.0549 0.22254,0.14979 0.14979,0.22253 0.0549,0.27309 v 2.20605 l -0.0549,0.27309 -0.14979,0.22253 -0.22254,0.1498 -0.27308,0.0549 h -2.37784 l -0.27309,-0.0549 -0.22253,-0.1498 -0.1498,-0.22253 -0.0549,-0.27309 v -2.20605 l 0.0549,-0.27309 0.1498,-0.22253 0.22253,-0.14979 0.27309,-0.0549 v 0"
       style="fill:#c7c7c7;fill-opacity:1;stroke:#1b0202;stroke-width:0.01334935;stroke-miterlimit:4;stroke-dasharray:none;stroke-dashoffset:0;stroke-opacity:1;paint-order:normal" />
    <path
       style="fill:#c7c7c7;fill-opacity:1;stroke:#1b0202;stroke-width:0.01334935;stroke-miterlimit:4;stroke-dasharray:none;stroke-dashoffset:0;stroke-opacity:1;paint-order:normal"
       d="m 690.75126,591.37554 2.37752,-0.0394 0.27396,0.0503 0.22498,0.14609 0.15345,0.22002 0.0594,0.27214 0.0365,2.20575 -0.0503,0.27396 -0.14609,0.22498 -0.22002,0.15346 -0.27215,0.0594 -2.37751,0.0393 -0.27396,-0.0503 -0.22498,-0.14609 -0.15346,-0.22003 -0.0594,-0.27214 -0.0365,-2.20575 0.0503,-0.27395 0.14609,-0.22499 0.22002,-0.15345 0.27214,-0.0594 v 0"
       id="path1912"
       inkscape:connector-curvature="0" />
    <path
       style="fill:#c7c7c7;fill-opacity:1;stroke:#1b0202;stroke-width:0.01334935;stroke-miterlimit:4;stroke-dasharray:none;stroke-dashoffset:0;stroke-opacity:1;paint-order:normal"
       d="m 690.65408,587.09966 2.37752,-0.0394 0.27396,0.0503 0.22498,0.14609 0.15346,0.22003 0.0594,0.27214 0.0365,2.20575 -0.0503,0.27396 -0.14609,0.22498 -0.22002,0.15345 -0.27215,0.0594 -2.37751,0.0394 -0.27396,-0.0503 -0.22498,-0.14609 -0.15346,-0.22002 -0.0594,-0.27214 -0.0365,-2.20575 0.0503,-0.27396 0.14609,-0.22498 0.22002,-0.15346 0.27214,-0.0594 v 0"
       id="path1914"
       inkscape:connector-curvature="0" />
    <path
       inkscape:connector-curvature="0"
       id="path1916"
       d="m 702.41498,591.25844 h 2.37784 l 0.27309,0.0549 0.22253,0.1498 0.1498,0.22253 0.0549,0.27309 v 2.20605 l -0.0549,0.27309 -0.1498,0.22253 -0.22253,0.14979 -0.27309,0.0549 h -2.37784 l -0.27309,-0.0549 -0.22253,-0.14979 -0.14979,-0.22253 -0.0549,-0.27309 v -2.20605 l 0.0549,-0.27309 0.14979,-0.22253 0.22253,-0.1498 0.27309,-0.0549 v 0"
       style="fill:#c7c7c7;fill-opacity:1;stroke:#1b0202;stroke-width:0.01334935;stroke-miterlimit:4;stroke-dasharray:none;stroke-dashoffset:0;stroke-opacity:1;paint-order:normal" />
    <path
       style="fill:#c7c7c7;fill-opacity:1;stroke:#1b0202;stroke-width:0.01334935;stroke-miterlimit:4;stroke-dasharray:none;stroke-dashoffset:0;stroke-opacity:1;paint-order:normal"
       d="m 702.41498,587.41986 h 2.37784 l 0.27309,0.0549 0.22253,0.1498 0.1498,0.22253 0.0549,0.27309 v 2.20605 l -0.0549,0.27309 -0.1498,0.22253 -0.22253,0.1498 -0.27309,0.0549 h -2.37784 l -0.27309,-0.0549 -0.22253,-0.1498 -0.14979,-0.22253 -0.0549,-0.27309 v -2.20605 l 0.0549,-0.27309 0.14979,-0.22253 0.22253,-0.1498 0.27309,-0.0549 v 0"
       id="path1918"
       inkscape:connector-curvature="0" />
    <path
       inkscape:connector-curvature="0"
       id="path1920"
       d="m 707.58439,591.5699 2.37751,-0.0394 0.27396,0.0503 0.22498,0.14609 0.15346,0.22002 0.0594,0.27214 0.0365,2.20575 -0.0503,0.27396 -0.14609,0.22498 -0.22003,0.15346 -0.27214,0.0594 -2.37752,0.0394 -0.27395,-0.0503 -0.22499,-0.14609 -0.15345,-0.22003 -0.0594,-0.27214 -0.0365,-2.20575 0.0503,-0.27396 0.14609,-0.22498 0.22003,-0.15346 0.27214,-0.0594 v 0"
       style="fill:#c7c7c7;fill-opacity:1;stroke:#1b0202;stroke-width:0.01334935;stroke-miterlimit:4;stroke-dasharray:none;stroke-dashoffset:0;stroke-opacity:1;paint-order:normal" />
    <path
       inkscape:connector-curvature="0"
       id="path1922"
       d="m 707.09849,587.39119 2.37752,-0.0394 0.27395,0.0503 0.22499,0.14609 0.15345,0.22003 0.0594,0.27214 0.0365,2.20575 -0.0503,0.27395 -0.14609,0.22499 -0.22003,0.15345 -0.27214,0.0594 -2.37751,0.0394 -0.27396,-0.0503 -0.22498,-0.14609 -0.15346,-0.22002 -0.0594,-0.27215 -0.0365,-2.20574 0.0503,-0.27396 0.14609,-0.22498 0.22003,-0.15346 0.27214,-0.0594 v 0"
       style="fill:#c7c7c7;fill-opacity:1;stroke:#1b0202;stroke-width:0.01334935;stroke-miterlimit:4;stroke-dasharray:none;stroke-dashoffset:0;stroke-opacity:1;paint-order:normal" />
    <path
       style="fill:#c7c7c7;fill-opacity:1;stroke:#1b0202;stroke-width:0.01334935;stroke-miterlimit:4;stroke-dasharray:none;stroke-dashoffset:0;stroke-opacity:1;paint-order:normal"
       d="M 719.96216,591.84152 H 722.34 l 0.27309,0.0549 0.22253,0.14979 0.14979,0.22254 0.0549,0.27308 v 2.20605 l -0.0549,0.27309 -0.14979,0.22254 -0.22253,0.14979 -0.27309,0.0549 h -2.37784 l -0.27309,-0.0549 -0.22254,-0.14979 -0.14979,-0.22254 -0.0549,-0.27309 v -2.20605 l 0.0549,-0.27308 0.14979,-0.22254 0.22254,-0.14979 0.27309,-0.0549 v 0"
       id="path1924"
       inkscape:connector-curvature="0" />
    <path
       inkscape:connector-curvature="0"
       id="path1926"
       d="m 719.5758,587.45379 2.34325,-0.40411 0.27844,0.008 0.24475,0.1098 0.18543,0.19384 0.10048,0.25979 0.37492,2.17396 -0.008,0.27843 -0.1098,0.24476 -0.19383,0.18543 -0.2598,0.10048 -2.34325,0.40411 -0.27843,-0.008 -0.24476,-0.10979 -0.18543,-0.19384 -0.10048,-0.25979 -0.37492,-2.17396 0.008,-0.27844 0.1098,-0.24475 0.19384,-0.18544 0.25979,-0.10048 v 0"
       style="fill:#c7c7c7;fill-opacity:1;stroke:#1b0202;stroke-width:0.01334935;stroke-miterlimit:4;stroke-dasharray:none;stroke-dashoffset:0;stroke-opacity:1;paint-order:normal" />
    <path
       style="fill:#c7c7c7;fill-opacity:1;stroke:#1b0202;stroke-width:0.01334935;stroke-miterlimit:4;stroke-dasharray:none;stroke-dashoffset:0;stroke-opacity:1;paint-order:normal"
       d="m 725.03438,591.37554 2.37752,-0.0394 0.27395,0.0503 0.22499,0.14609 0.15345,0.22002 0.0594,0.27214 0.0365,2.20575 -0.0503,0.27396 -0.14609,0.22498 -0.22003,0.15346 -0.27214,0.0594 -2.37752,0.0393 -0.27395,-0.0503 -0.22499,-0.14609 -0.15345,-0.22003 -0.0594,-0.27214 -0.0365,-2.20575 0.0503,-0.27395 0.14609,-0.22499 0.22003,-0.15345 0.27214,-0.0594 v 0"
       id="path1928"
       inkscape:connector-curvature="0" />
    <path
       style="fill:#c7c7c7;fill-opacity:1;stroke:#1b0202;stroke-width:0.01334935;stroke-miterlimit:4;stroke-dasharray:none;stroke-dashoffset:0;stroke-opacity:1;paint-order:normal"
       d="m 724.9372,587.09966 2.37752,-0.0394 0.27395,0.0503 0.22499,0.14609 0.15345,0.22003 0.0594,0.27214 0.0365,2.20575 -0.0503,0.27396 -0.14609,0.22498 -0.22003,0.15345 -0.27214,0.0594 -2.37751,0.0394 -0.27396,-0.0503 -0.22498,-0.14609 -0.15346,-0.22002 -0.0594,-0.27214 -0.0365,-2.20575 0.0503,-0.27396 0.14609,-0.22498 0.22003,-0.15346 0.27214,-0.0594 v 0"
       id="path1930"
       inkscape:connector-curvature="0" />
    <path
       style="fill:#c7c7c7;fill-opacity:1;stroke:#1b0202;stroke-width:0.01334935;stroke-miterlimit:4;stroke-dasharray:none;stroke-dashoffset:0;stroke-opacity:1;paint-order:normal"
       d="m 720.54523,577.50905 h 2.37784 l 0.27308,0.0549 0.22254,0.14979 0.1498,0.22254 0.0549,0.27309 v 2.20605 l -0.0549,0.27308 -0.1498,0.22254 -0.22254,0.14979 -0.27308,0.0549 h -2.37784 l -0.27309,-0.0549 -0.22253,-0.14979 -0.1498,-0.22254 -0.0549,-0.27308 v -2.20605 l 0.0549,-0.27309 0.1498,-0.22254 0.22253,-0.14979 0.27309,-0.0549 v 0"
       id="path1932"
       inkscape:connector-curvature="0" />
    <path
       style="fill:#c7c7c7;fill-opacity:1;stroke:#1b0202;stroke-width:0.01334935;stroke-miterlimit:4;stroke-dasharray:none;stroke-dashoffset:0;stroke-opacity:1;paint-order:normal"
       d="m 724.65105,577.60501 h 2.37784 l 0.27309,0.0549 0.22253,0.14979 0.1498,0.22254 0.0549,0.27308 v 2.20606 l -0.0549,0.27308 -0.1498,0.22254 -0.22253,0.14979 -0.27309,0.0549 h -2.37784 l -0.27309,-0.0549 -0.22253,-0.14979 -0.1498,-0.22254 -0.0549,-0.27308 v -2.20606 l 0.0549,-0.27308 0.1498,-0.22254 0.22253,-0.14979 0.27309,-0.0549 v 0"
       id="path1934"
       inkscape:connector-curvature="0" />
    <path
       style="fill:#c7c7c7;fill-opacity:1;stroke:#1b0202;stroke-width:0.01334935;stroke-miterlimit:4;stroke-dasharray:none;stroke-dashoffset:0;stroke-opacity:1;paint-order:normal"
       d="m 656.47669,577.31469 h 2.37784 l 0.27308,0.0549 0.22254,0.1498 0.14979,0.22253 0.0549,0.27309 v 2.20605 l -0.0549,0.27308 -0.14979,0.22254 -0.22254,0.14979 -0.27308,0.0549 h -2.37784 l -0.27309,-0.0549 -0.22254,-0.14979 -0.14979,-0.22254 -0.0549,-0.27308 v -2.20605 l 0.0549,-0.27309 0.14979,-0.22253 0.22254,-0.1498 0.27309,-0.0549 v 0"
       id="path1936"
       inkscape:connector-curvature="0" />
    <path
       inkscape:connector-curvature="0"
       id="path1938"
       d="m 660.58251,577.31469 h 2.37784 l 0.27309,0.0549 0.22253,0.1498 0.14979,0.22253 0.0549,0.27309 v 2.20605 l -0.0549,0.27308 -0.14979,0.22254 -0.22253,0.14979 -0.27309,0.0549 h -2.37784 l -0.27309,-0.0549 -0.22253,-0.14979 -0.1498,-0.22254 -0.0549,-0.27308 v -2.20605 l 0.0549,-0.27309 0.1498,-0.22253 0.22253,-0.1498 0.27309,-0.0549 v 0"
       style="fill:#c7c7c7;fill-opacity:1;stroke:#1b0202;stroke-width:0.01334935;stroke-miterlimit:4;stroke-dasharray:none;stroke-dashoffset:0;stroke-opacity:1;paint-order:normal" />
    <path
       style="fill:#c7c7c7;fill-opacity:1;stroke:#1b0202;stroke-width:0.01334935;stroke-miterlimit:4;stroke-dasharray:none;stroke-dashoffset:0;stroke-opacity:1;paint-order:normal"
       d="m 664.78551,577.31469 h 2.37784 l 0.27309,0.0549 0.22253,0.1498 0.1498,0.22253 0.0549,0.27309 v 2.20605 l -0.0549,0.27308 -0.1498,0.22254 -0.22253,0.14979 -0.27309,0.0549 h -2.37784 l -0.27309,-0.0549 -0.22253,-0.14979 -0.1498,-0.22254 -0.0549,-0.27308 v -2.20605 l 0.0549,-0.27309 0.1498,-0.22253 0.22253,-0.1498 0.27309,-0.0549 v 0"
       id="path1940"
       inkscape:connector-curvature="0" />
    <path
       inkscape:connector-curvature="0"
       style="fill:#c7c7c7;fill-opacity:1;stroke:#000000;stroke-width:0.06437846;stroke-miterlimit:4;stroke-dasharray:none;stroke-dashoffset:0;stroke-opacity:1;paint-order:markers stroke fill"
       d="m 659.8261,581.61008 -0.0643,36.68062 -0.0707,0.3037 -0.18946,0.24752 -0.28018,0.16665 -0.34293,0.0611 -2.23592,6.8e-4 -0.34217,-0.0609 -0.27809,-0.16649 -0.18633,-0.24741 -0.0669,-0.30365 0.0643,-36.68138 0.0707,-0.0588 0.18945,-0.0912 0.28019,-0.0614 0.34293,-0.0985 2.23592,-7.3e-4 0.34216,0.0989 0.27809,0.0614 0.18634,0.0912 0.0669,0.0588 v 0"
       id="path1942"
       sodipodi:nodetypes="cccccccccccccccccccccc" />
    <path
       sodipodi:nodetypes="cccccccccccccccccccccc"
       id="path1944"
       d="m 659.80549,620.28691 -0.0643,36.68062 -0.0707,0.30369 -0.18945,0.24752 -0.28019,0.16666 -0.34293,0.0611 -2.23592,6.8e-4 -0.34216,-0.0609 -0.27809,-0.16648 -0.18634,-0.24741 -0.0669,-0.30366 0.0643,-36.68137 0.0707,-0.0588 0.18945,-0.0912 0.28019,-0.0614 0.34293,-0.0985 2.23592,-7.2e-4 0.34217,0.0989 0.27809,0.0614 0.18633,0.0912 0.0669,0.0588 v 0"
       style="fill:#c7c7c7;fill-opacity:1;stroke:#000000;stroke-width:0.06437846;stroke-miterlimit:4;stroke-dasharray:none;stroke-dashoffset:0;stroke-opacity:1;paint-order:markers stroke fill"
       inkscape:connector-curvature="0" />
    <path
       style="fill:#c7c7c7;fill-opacity:1;stroke:#1b0202;stroke-width:0.01334935;stroke-miterlimit:4;stroke-dasharray:none;stroke-dashoffset:0;stroke-opacity:1;paint-order:normal"
       d="m 670.17895,653.79472 h 2.37785 l 0.27308,0.0549 0.22254,0.14979 0.14979,0.22254 0.0549,0.27309 v 2.20605 l -0.0549,0.27309 -0.14979,0.22253 -0.22254,0.14979 -0.27308,0.0549 h -2.37785 l -0.27308,-0.0549 -0.22254,-0.14979 -0.14979,-0.22253 -0.0549,-0.27309 V 654.495 l 0.0549,-0.27309 0.14979,-0.22254 0.22254,-0.14979 0.27308,-0.0549 v 0"
       id="path1946"
       inkscape:connector-curvature="0" />
    <path
       inkscape:connector-curvature="0"
       id="path1948"
       d="m 674.28478,653.79472 h 2.37784 l 0.27308,0.0549 0.22254,0.14979 0.14979,0.22254 0.0549,0.27309 v 2.20605 l -0.0549,0.27309 -0.14979,0.22253 -0.22254,0.14979 -0.27308,0.0549 h -2.37784 l -0.27309,-0.0549 -0.22254,-0.14979 -0.14979,-0.22253 -0.0549,-0.27309 V 654.495 l 0.0549,-0.27309 0.14979,-0.22254 0.22254,-0.14979 0.27309,-0.0549 v 0"
       style="fill:#c7c7c7;fill-opacity:1;stroke:#1b0202;stroke-width:0.01334935;stroke-miterlimit:4;stroke-dasharray:none;stroke-dashoffset:0;stroke-opacity:1;paint-order:normal" />
    <path
       style="fill:#c7c7c7;fill-opacity:1;stroke:#1b0202;stroke-width:0.01334935;stroke-miterlimit:4;stroke-dasharray:none;stroke-dashoffset:0;stroke-opacity:1;paint-order:normal"
       d="m 678.48778,653.79472 h 2.37784 l 0.27308,0.0549 0.22254,0.14979 0.14979,0.22254 0.0549,0.27309 v 2.20605 l -0.0549,0.27309 -0.14979,0.22253 -0.22254,0.14979 -0.27308,0.0549 h -2.37784 l -0.27309,-0.0549 -0.22254,-0.14979 -0.14979,-0.22253 -0.0549,-0.27309 V 654.495 l 0.0549,-0.27309 0.14979,-0.22254 0.22254,-0.14979 0.27309,-0.0549 v 0"
       id="path1950"
       inkscape:connector-curvature="0" />
    <path
       style="fill:#c7c7c7;fill-opacity:1;stroke:#1b0202;stroke-width:0.01334935;stroke-miterlimit:4;stroke-dasharray:none;stroke-dashoffset:0;stroke-opacity:1;paint-order:normal"
       d="m 682.5936,653.89068 h 2.37784 l 0.27308,0.0549 0.22254,0.14979 0.14979,0.22254 0.0549,0.27309 v 2.20605 l -0.0549,0.27308 -0.14979,0.22254 -0.22254,0.14979 -0.27308,0.0549 h -2.37784 l -0.27309,-0.0549 -0.22253,-0.14979 -0.1498,-0.22254 -0.0549,-0.27308 V 654.591 l 0.0549,-0.27309 0.1498,-0.22254 0.22253,-0.14979 0.27309,-0.0549 v 0"
       id="path1952"
       inkscape:connector-curvature="0" />
    <path
       inkscape:connector-curvature="0"
       id="path1954"
       d="m 687.08813,653.79472 h 2.37785 l 0.27308,0.0549 0.22254,0.14979 0.14979,0.22254 0.0549,0.27309 v 2.20605 l -0.0549,0.27309 -0.14979,0.22253 -0.22254,0.14979 -0.27308,0.0549 h -2.37785 l -0.27308,-0.0549 -0.22254,-0.14979 -0.14979,-0.22253 -0.0549,-0.27309 V 654.495 l 0.0549,-0.27309 0.14979,-0.22254 0.22254,-0.14979 0.27308,-0.0549 v 0"
       style="fill:#c7c7c7;fill-opacity:1;stroke:#1b0202;stroke-width:0.01334935;stroke-miterlimit:4;stroke-dasharray:none;stroke-dashoffset:0;stroke-opacity:1;paint-order:normal" />
    <path
       style="fill:#c7c7c7;fill-opacity:1;stroke:#1b0202;stroke-width:0.01334935;stroke-miterlimit:4;stroke-dasharray:none;stroke-dashoffset:0;stroke-opacity:1;paint-order:normal"
       d="m 691.19396,653.79472 h 2.37784 l 0.27308,0.0549 0.22254,0.14979 0.14979,0.22254 0.0549,0.27309 v 2.20605 l -0.0549,0.27309 -0.14979,0.22253 -0.22254,0.14979 -0.27308,0.0549 h -2.37784 l -0.27309,-0.0549 -0.22254,-0.14979 -0.14979,-0.22253 -0.0549,-0.27309 V 654.495 l 0.0549,-0.27309 0.14979,-0.22254 0.22254,-0.14979 0.27309,-0.0549 v 0"
       id="path1956"
       inkscape:connector-curvature="0" />
    <path
       inkscape:connector-curvature="0"
       id="path1958"
       d="m 695.39696,653.79472 h 2.37784 l 0.27308,0.0549 0.22254,0.14979 0.14979,0.22254 0.0549,0.27309 v 2.20605 l -0.0549,0.27309 -0.14979,0.22253 -0.22254,0.14979 -0.27308,0.0549 h -2.37784 l -0.27309,-0.0549 -0.22254,-0.14979 -0.14979,-0.22253 -0.0549,-0.27309 V 654.495 l 0.0549,-0.27309 0.14979,-0.22254 0.22254,-0.14979 0.27309,-0.0549 v 0"
       style="fill:#c7c7c7;fill-opacity:1;stroke:#1b0202;stroke-width:0.01334935;stroke-miterlimit:4;stroke-dasharray:none;stroke-dashoffset:0;stroke-opacity:1;paint-order:normal" />
    <path
       inkscape:connector-curvature="0"
       id="path1960"
       d="m 699.69518,653.84258 h 2.37785 l 0.27308,0.0549 0.22254,0.14979 0.14979,0.22254 0.0549,0.27309 v 2.20604 l -0.0549,0.27309 -0.14979,0.22254 -0.22254,0.14979 -0.27308,0.0549 h -2.37785 l -0.27308,-0.0549 -0.22254,-0.14979 -0.14979,-0.22254 -0.0549,-0.27309 v -2.20604 l 0.0549,-0.27309 0.14979,-0.22254 0.22254,-0.14979 0.27308,-0.0549 v 0"
       style="fill:#c7c7c7;fill-opacity:1;stroke:#1b0202;stroke-width:0.01334935;stroke-miterlimit:4;stroke-dasharray:none;stroke-dashoffset:0;stroke-opacity:1;paint-order:normal" />
    <path
       style="fill:#c7c7c7;fill-opacity:1;stroke:#1b0202;stroke-width:0.01334935;stroke-miterlimit:4;stroke-dasharray:none;stroke-dashoffset:0;stroke-opacity:1;paint-order:normal"
       d="m 704.11562,653.79472 h 2.37784 l 0.27308,0.0549 0.22254,0.14979 0.14979,0.22254 0.0549,0.27309 v 2.20605 l -0.0549,0.27309 -0.14979,0.22253 -0.22254,0.14979 -0.27308,0.0549 h -2.37784 l -0.27309,-0.0549 -0.22253,-0.14979 -0.1498,-0.22253 -0.0549,-0.27309 V 654.495 l 0.0549,-0.27309 0.1498,-0.22254 0.22253,-0.14979 0.27309,-0.0549 v 0"
       id="path1962"
       inkscape:connector-curvature="0" />
    <path
       inkscape:connector-curvature="0"
       id="path1964"
       d="m 708.31764,653.79472 h 2.37784 l 0.27309,0.0549 0.22253,0.14979 0.1498,0.22254 0.0549,0.27309 v 2.20605 l -0.0549,0.27309 -0.1498,0.22253 -0.22253,0.14979 -0.27309,0.0549 h -2.37784 l -0.27308,-0.0549 -0.22254,-0.14979 -0.14979,-0.22253 -0.0549,-0.27309 V 654.495 l 0.0549,-0.27309 0.14979,-0.22254 0.22254,-0.14979 0.27308,-0.0549 v 0"
       style="fill:#c7c7c7;fill-opacity:1;stroke:#1b0202;stroke-width:0.01334935;stroke-miterlimit:4;stroke-dasharray:none;stroke-dashoffset:0;stroke-opacity:1;paint-order:normal" />
    <path
       style="fill:#c7c7c7;fill-opacity:1;stroke:#1b0202;stroke-width:0.01334935;stroke-miterlimit:4;stroke-dasharray:none;stroke-dashoffset:0;stroke-opacity:1;paint-order:normal"
       d="m 712.66495,653.79472 h 2.37787 l 0.27308,0.0549 0.22254,0.14979 0.14979,0.22254 0.0549,0.27309 v 2.20605 l -0.0549,0.27309 -0.14979,0.22253 -0.22254,0.14979 -0.27308,0.0549 h -2.37787 l -0.27309,-0.0549 -0.22253,-0.14979 -0.1498,-0.22253 -0.0549,-0.27309 V 654.495 l 0.0549,-0.27309 0.1498,-0.22254 0.22253,-0.14979 0.27309,-0.0549 v 0"
       id="path1966"
       inkscape:connector-curvature="0" />
    <path
       style="fill:#c7c7c7;fill-opacity:1;stroke:#1b0202;stroke-width:0.01334935;stroke-miterlimit:4;stroke-dasharray:none;stroke-dashoffset:0;stroke-opacity:1;paint-order:normal"
       d="m 716.93916,653.89068 h 2.37784 l 0.27309,0.0549 0.22253,0.14979 0.1498,0.22254 0.0549,0.27309 v 2.20605 l -0.0549,0.27308 -0.1498,0.22254 -0.22253,0.14979 -0.27309,0.0549 h -2.37784 l -0.27308,-0.0549 -0.22254,-0.14979 -0.1498,-0.22254 -0.0549,-0.27308 V 654.591 l 0.0549,-0.27309 0.1498,-0.22254 0.22254,-0.14979 0.27308,-0.0549 v 0"
       id="path1968"
       inkscape:connector-curvature="0" />
    <path
       inkscape:connector-curvature="0"
       id="path1970"
       d="m 721.32266,653.98908 h 2.37784 l 0.27309,0.0549 0.22253,0.14979 0.1498,0.22254 0.0549,0.27309 v 2.20605 l -0.0549,0.27308 -0.1498,0.22254 -0.22253,0.14979 -0.27309,0.0549 h -2.37784 l -0.27309,-0.0549 -0.22253,-0.14979 -0.1498,-0.22254 -0.0549,-0.27308 v -2.20605 l 0.0549,-0.27309 0.1498,-0.22254 0.22253,-0.14979 0.27309,-0.0549 v 0"
       style="fill:#c7c7c7;fill-opacity:1;stroke:#1b0202;stroke-width:0.01334935;stroke-miterlimit:4;stroke-dasharray:none;stroke-dashoffset:0;stroke-opacity:1;paint-order:normal" />
    <path
       inkscape:connector-curvature="0"
       id="path1972"
       d="m 725.42848,654.08504 h 2.37784 l 0.27309,0.0549 0.22253,0.14979 0.1498,0.22254 0.0549,0.27308 v 2.20606 l -0.0549,0.27308 -0.1498,0.22254 -0.22253,0.14979 -0.27309,0.0549 h -2.37784 l -0.27309,-0.0549 -0.22253,-0.14979 -0.1498,-0.22254 -0.0549,-0.27308 v -2.20606 l 0.0549,-0.27308 0.1498,-0.22254 0.22253,-0.14979 0.27309,-0.0549 v 0"
       style="fill:#c7c7c7;fill-opacity:1;stroke:#1b0202;stroke-width:0.01334935;stroke-miterlimit:4;stroke-dasharray:none;stroke-dashoffset:0;stroke-opacity:1;paint-order:normal" />
    <path
       style="fill:#c7c7c7;fill-opacity:1;stroke:#1b0202;stroke-width:0.01334935;stroke-miterlimit:4;stroke-dasharray:none;stroke-dashoffset:0;stroke-opacity:1;paint-order:normal"
       d="m 661.35994,653.79472 h 2.37784 l 0.27309,0.0549 0.22253,0.14979 0.1498,0.22254 0.0549,0.27309 v 2.20605 l -0.0549,0.27309 -0.1498,0.22253 -0.22253,0.14979 -0.27309,0.0549 h -2.37784 l -0.27308,-0.0549 -0.22254,-0.14979 -0.14979,-0.22253 -0.0549,-0.27309 V 654.495 l 0.0549,-0.27309 0.14979,-0.22254 0.22254,-0.14979 0.27308,-0.0549 v 0"
       id="path1974"
       inkscape:connector-curvature="0" />
    <path
       inkscape:connector-curvature="0"
       id="path1976"
       d="m 665.56294,653.79472 h 2.37784 l 0.27309,0.0549 0.22253,0.14979 0.1498,0.22254 0.0549,0.27309 v 2.20605 l -0.0549,0.27309 -0.1498,0.22253 -0.22253,0.14979 -0.27309,0.0549 h -2.37784 l -0.27308,-0.0549 -0.22254,-0.14979 -0.14979,-0.22253 -0.0549,-0.27309 V 654.495 l 0.0549,-0.27309 0.14979,-0.22254 0.22254,-0.14979 0.27308,-0.0549 v 0"
       style="fill:#c7c7c7;fill-opacity:1;stroke:#1b0202;stroke-width:0.01334935;stroke-miterlimit:4;stroke-dasharray:none;stroke-dashoffset:0;stroke-opacity:1;paint-order:normal" />
    <path
       inkscape:connector-curvature="0"
       id="path1978"
       d="m 670.17895,649.03293 h 2.37785 l 0.27308,0.0549 0.22254,0.14979 0.14979,0.22254 0.0549,0.27308 v 2.20606 l -0.0549,0.27308 -0.14979,0.22254 -0.22254,0.14979 -0.27308,0.0549 h -2.37785 l -0.27308,-0.0549 -0.22254,-0.14979 -0.14979,-0.22254 -0.0549,-0.27308 v -2.20606 l 0.0549,-0.27308 0.14979,-0.22254 0.22254,-0.14979 0.27308,-0.0549 v 0"
       style="fill:#c7c7c7;fill-opacity:1;stroke:#1b0202;stroke-width:0.01334935;stroke-miterlimit:4;stroke-dasharray:none;stroke-dashoffset:0;stroke-opacity:1;paint-order:normal" />
    <path
       style="fill:#c7c7c7;fill-opacity:1;stroke:#1b0202;stroke-width:0.01334935;stroke-miterlimit:4;stroke-dasharray:none;stroke-dashoffset:0;stroke-opacity:1;paint-order:normal"
       d="m 674.28478,649.03293 h 2.37784 l 0.27308,0.0549 0.22254,0.14979 0.14979,0.22254 0.0549,0.27308 v 2.20606 l -0.0549,0.27308 -0.14979,0.22254 -0.22254,0.14979 -0.27308,0.0549 h -2.37784 l -0.27309,-0.0549 -0.22254,-0.14979 -0.14979,-0.22254 -0.0549,-0.27308 v -2.20606 l 0.0549,-0.27308 0.14979,-0.22254 0.22254,-0.14979 0.27309,-0.0549 v 0"
       id="path1980"
       inkscape:connector-curvature="0" />
    <path
       inkscape:connector-curvature="0"
       id="path1982"
       d="m 678.48778,649.03293 h 2.37784 l 0.27308,0.0549 0.22254,0.14979 0.14979,0.22254 0.0549,0.27308 v 2.20606 l -0.0549,0.27308 -0.14979,0.22254 -0.22254,0.14979 -0.27308,0.0549 h -2.37784 l -0.27309,-0.0549 -0.22254,-0.14979 -0.14979,-0.22254 -0.0549,-0.27308 v -2.20606 l 0.0549,-0.27308 0.14979,-0.22254 0.22254,-0.14979 0.27309,-0.0549 v 0"
       style="fill:#c7c7c7;fill-opacity:1;stroke:#1b0202;stroke-width:0.01334935;stroke-miterlimit:4;stroke-dasharray:none;stroke-dashoffset:0;stroke-opacity:1;paint-order:normal" />
    <path
       inkscape:connector-curvature="0"
       id="path1984"
       d="m 682.5936,649.12889 h 2.37784 l 0.27308,0.0549 0.22254,0.14979 0.14979,0.22254 0.0549,0.27308 v 2.20606 l -0.0549,0.27308 -0.14979,0.22253 -0.22254,0.1498 -0.27308,0.0549 h -2.37784 l -0.27309,-0.0549 -0.22253,-0.1498 -0.1498,-0.22253 -0.0549,-0.27308 v -2.20606 l 0.0549,-0.27308 0.1498,-0.22254 0.22253,-0.14979 0.27309,-0.0549 v 0"
       style="fill:#c7c7c7;fill-opacity:1;stroke:#1b0202;stroke-width:0.01334935;stroke-miterlimit:4;stroke-dasharray:none;stroke-dashoffset:0;stroke-opacity:1;paint-order:normal" />
    <path
       style="fill:#c7c7c7;fill-opacity:1;stroke:#1b0202;stroke-width:0.01334935;stroke-miterlimit:4;stroke-dasharray:none;stroke-dashoffset:0;stroke-opacity:1;paint-order:normal"
       d="m 687.08813,649.03293 h 2.37785 l 0.27308,0.0549 0.22254,0.14979 0.14979,0.22254 0.0549,0.27308 v 2.20606 l -0.0549,0.27308 -0.14979,0.22254 -0.22254,0.14979 -0.27308,0.0549 h -2.37785 l -0.27308,-0.0549 -0.22254,-0.14979 -0.14979,-0.22254 -0.0549,-0.27308 v -2.20606 l 0.0549,-0.27308 0.14979,-0.22254 0.22254,-0.14979 0.27308,-0.0549 v 0"
       id="path1986"
       inkscape:connector-curvature="0" />
    <path
       inkscape:connector-curvature="0"
       id="path1988"
       d="m 691.19396,649.03293 h 2.37784 l 0.27308,0.0549 0.22254,0.14979 0.14979,0.22254 0.0549,0.27308 v 2.20606 l -0.0549,0.27308 -0.14979,0.22254 -0.22254,0.14979 -0.27308,0.0549 h -2.37784 l -0.27309,-0.0549 -0.22254,-0.14979 -0.14979,-0.22254 -0.0549,-0.27308 v -2.20606 l 0.0549,-0.27308 0.14979,-0.22254 0.22254,-0.14979 0.27309,-0.0549 v 0"
       style="fill:#c7c7c7;fill-opacity:1;stroke:#1b0202;stroke-width:0.01334935;stroke-miterlimit:4;stroke-dasharray:none;stroke-dashoffset:0;stroke-opacity:1;paint-order:normal" />
    <path
       style="fill:#c7c7c7;fill-opacity:1;stroke:#1b0202;stroke-width:0.01334935;stroke-miterlimit:4;stroke-dasharray:none;stroke-dashoffset:0;stroke-opacity:1;paint-order:normal"
       d="m 695.39696,649.03293 h 2.37784 l 0.27308,0.0549 0.22254,0.14979 0.14979,0.22254 0.0549,0.27308 v 2.20606 l -0.0549,0.27308 -0.14979,0.22254 -0.22254,0.14979 -0.27308,0.0549 h -2.37784 l -0.27309,-0.0549 -0.22254,-0.14979 -0.14979,-0.22254 -0.0549,-0.27308 v -2.20606 l 0.0549,-0.27308 0.14979,-0.22254 0.22254,-0.14979 0.27309,-0.0549 v 0"
       id="path1990"
       inkscape:connector-curvature="0" />
    <path
       style="fill:#c7c7c7;fill-opacity:1;stroke:#1b0202;stroke-width:0.01334935;stroke-miterlimit:4;stroke-dasharray:none;stroke-dashoffset:0;stroke-opacity:1;paint-order:normal"
       d="m 699.69518,649.08079 h 2.37785 l 0.27308,0.0549 0.22254,0.14979 0.14979,0.22254 0.0549,0.27308 v 2.20605 l -0.0549,0.27309 -0.14979,0.22253 -0.22254,0.1498 -0.27308,0.0549 h -2.37785 l -0.27308,-0.0549 -0.22254,-0.1498 -0.14979,-0.22253 -0.0549,-0.27309 v -2.20605 l 0.0549,-0.27308 0.14979,-0.22254 0.22254,-0.14979 0.27308,-0.0549 v 0"
       id="path1992"
       inkscape:connector-curvature="0" />
    <path
       inkscape:connector-curvature="0"
       id="path1994"
       d="m 704.11562,649.03293 h 2.37784 l 0.27308,0.0549 0.22254,0.14979 0.14979,0.22254 0.0549,0.27308 v 2.20606 l -0.0549,0.27308 -0.14979,0.22254 -0.22254,0.14979 -0.27308,0.0549 h -2.37784 l -0.27309,-0.0549 -0.22253,-0.14979 -0.1498,-0.22254 -0.0549,-0.27308 v -2.20606 l 0.0549,-0.27308 0.1498,-0.22254 0.22253,-0.14979 0.27309,-0.0549 v 0"
       style="fill:#c7c7c7;fill-opacity:1;stroke:#1b0202;stroke-width:0.01334935;stroke-miterlimit:4;stroke-dasharray:none;stroke-dashoffset:0;stroke-opacity:1;paint-order:normal" />
    <path
       style="fill:#c7c7c7;fill-opacity:1;stroke:#1b0202;stroke-width:0.01334935;stroke-miterlimit:4;stroke-dasharray:none;stroke-dashoffset:0;stroke-opacity:1;paint-order:normal"
       d="m 708.31764,649.03293 h 2.37784 l 0.27309,0.0549 0.22253,0.14979 0.1498,0.22254 0.0549,0.27308 v 2.20606 l -0.0549,0.27308 -0.1498,0.22254 -0.22253,0.14979 -0.27309,0.0549 h -2.37784 l -0.27308,-0.0549 -0.22254,-0.14979 -0.14979,-0.22254 -0.0549,-0.27308 v -2.20606 l 0.0549,-0.27308 0.14979,-0.22254 0.22254,-0.14979 0.27308,-0.0549 v 0"
       id="path1996"
       inkscape:connector-curvature="0" />
    <path
       inkscape:connector-curvature="0"
       id="path1998"
       d="m 712.66495,649.03293 h 2.37787 l 0.27308,0.0549 0.22254,0.14979 0.14979,0.22254 0.0549,0.27308 v 2.20606 l -0.0549,0.27308 -0.14979,0.22254 -0.22254,0.14979 -0.27308,0.0549 h -2.37787 l -0.27309,-0.0549 -0.22253,-0.14979 -0.1498,-0.22254 -0.0549,-0.27308 v -2.20606 l 0.0549,-0.27308 0.1498,-0.22254 0.22253,-0.14979 0.27309,-0.0549 v 0"
       style="fill:#c7c7c7;fill-opacity:1;stroke:#1b0202;stroke-width:0.01334935;stroke-miterlimit:4;stroke-dasharray:none;stroke-dashoffset:0;stroke-opacity:1;paint-order:normal" />
    <path
       inkscape:connector-curvature="0"
       id="path2000"
       d="m 716.93916,649.12889 h 2.37784 l 0.27309,0.0549 0.22253,0.14979 0.1498,0.22254 0.0549,0.27308 v 2.20606 l -0.0549,0.27308 -0.1498,0.22253 -0.22253,0.1498 -0.27309,0.0549 h -2.37784 l -0.27308,-0.0549 -0.22254,-0.1498 -0.1498,-0.22253 -0.0549,-0.27308 v -2.20606 l 0.0549,-0.27308 0.1498,-0.22254 0.22254,-0.14979 0.27308,-0.0549 v 0"
       style="fill:#c7c7c7;fill-opacity:1;stroke:#1b0202;stroke-width:0.01334935;stroke-miterlimit:4;stroke-dasharray:none;stroke-dashoffset:0;stroke-opacity:1;paint-order:normal" />
    <path
       style="fill:#c7c7c7;fill-opacity:1;stroke:#1b0202;stroke-width:0.01334935;stroke-miterlimit:4;stroke-dasharray:none;stroke-dashoffset:0;stroke-opacity:1;paint-order:normal"
       d="m 721.32266,649.2273 h 2.37784 l 0.27309,0.0549 0.22253,0.14979 0.1498,0.22254 0.0549,0.27308 v 2.20605 l -0.0549,0.27309 -0.1498,0.22253 -0.22253,0.1498 -0.27309,0.0549 h -2.37784 l -0.27309,-0.0549 -0.22253,-0.1498 -0.1498,-0.22253 -0.0549,-0.27309 v -2.20605 l 0.0549,-0.27308 0.1498,-0.22254 0.22253,-0.14979 0.27309,-0.0549 v 0"
       id="path2002"
       inkscape:connector-curvature="0" />
    <path
       style="fill:#c7c7c7;fill-opacity:1;stroke:#1b0202;stroke-width:0.01334935;stroke-miterlimit:4;stroke-dasharray:none;stroke-dashoffset:0;stroke-opacity:1;paint-order:normal"
       d="m 725.42848,649.32326 h 2.37784 l 0.27309,0.0548 0.22253,0.1498 0.1498,0.22254 0.0549,0.27308 v 2.20605 l -0.0549,0.27309 -0.1498,0.22254 -0.22253,0.14979 -0.27309,0.0549 h -2.37784 l -0.27309,-0.0549 -0.22253,-0.14979 -0.1498,-0.22254 -0.0549,-0.27309 v -2.20605 l 0.0549,-0.27308 0.1498,-0.22254 0.22253,-0.1498 0.27309,-0.0548 v 0"
       id="path2004"
       inkscape:connector-curvature="0" />
    <path
       inkscape:connector-curvature="0"
       id="path2006"
       d="m 661.35994,649.03293 h 2.37784 l 0.27309,0.0549 0.22253,0.14979 0.1498,0.22254 0.0549,0.27308 v 2.20606 l -0.0549,0.27308 -0.1498,0.22254 -0.22253,0.14979 -0.27309,0.0549 h -2.37784 l -0.27308,-0.0549 -0.22254,-0.14979 -0.14979,-0.22254 -0.0549,-0.27308 v -2.20606 l 0.0549,-0.27308 0.14979,-0.22254 0.22254,-0.14979 0.27308,-0.0549 v 0"
       style="fill:#c7c7c7;fill-opacity:1;stroke:#1b0202;stroke-width:0.01334935;stroke-miterlimit:4;stroke-dasharray:none;stroke-dashoffset:0;stroke-opacity:1;paint-order:normal" />
    <path
       style="fill:#c7c7c7;fill-opacity:1;stroke:#1b0202;stroke-width:0.01334935;stroke-miterlimit:4;stroke-dasharray:none;stroke-dashoffset:0;stroke-opacity:1;paint-order:normal"
       d="m 665.56294,649.03293 h 2.37784 l 0.27309,0.0549 0.22253,0.14979 0.1498,0.22254 0.0549,0.27308 v 2.20606 l -0.0549,0.27308 -0.1498,0.22254 -0.22253,0.14979 -0.27309,0.0549 h -2.37784 l -0.27308,-0.0549 -0.22254,-0.14979 -0.14979,-0.22254 -0.0549,-0.27308 v -2.20606 l 0.0549,-0.27308 0.14979,-0.22254 0.22254,-0.14979 0.27308,-0.0549 v 0"
       id="path2008"
       inkscape:connector-curvature="0" />
    <path
       style="fill:#c7c7c7;fill-opacity:1;stroke:#1b0202;stroke-width:0.01334935;stroke-miterlimit:4;stroke-dasharray:none;stroke-dashoffset:0;stroke-opacity:1;paint-order:normal"
       d="m 729.66964,577.41065 h 2.37784 l 0.27308,0.0549 0.22254,0.14979 0.1498,0.22254 0.0549,0.27309 v 2.20605 l -0.0549,0.27308 -0.1498,0.22254 -0.22254,0.14979 -0.27308,0.0549 h -2.37784 l -0.27309,-0.0549 -0.22253,-0.14979 -0.1498,-0.22254 -0.0549,-0.27308 v -2.20605 l 0.0549,-0.27309 0.1498,-0.22254 0.22253,-0.14979 0.27309,-0.0549 v 0"
       id="path2010"
       inkscape:connector-curvature="0" />
    <path
       inkscape:connector-curvature="0"
       id="path2012"
       d="m 734.05314,577.50905 h 2.37784 l 0.27308,0.0549 0.22254,0.14979 0.14979,0.22254 0.0549,0.27309 v 2.20605 l -0.0549,0.27308 -0.14979,0.22254 -0.22254,0.14979 -0.27308,0.0549 h -2.37784 l -0.27309,-0.0549 -0.22254,-0.14979 -0.14979,-0.22254 -0.0549,-0.27308 v -2.20605 l 0.0549,-0.27309 0.14979,-0.22254 0.22254,-0.14979 0.27309,-0.0549 v 0"
       style="fill:#c7c7c7;fill-opacity:1;stroke:#1b0202;stroke-width:0.01334935;stroke-miterlimit:4;stroke-dasharray:none;stroke-dashoffset:0;stroke-opacity:1;paint-order:normal" />
    <path
       inkscape:connector-curvature="0"
       id="path2014"
       d="m 738.15896,577.60501 h 2.37784 l 0.27308,0.0549 0.22254,0.14979 0.14979,0.22254 0.0549,0.27308 v 2.20606 l -0.0549,0.27308 -0.14979,0.22254 -0.22254,0.14979 -0.27308,0.0549 h -2.37784 l -0.27309,-0.0549 -0.22254,-0.14979 -0.14979,-0.22254 -0.0549,-0.27308 v -2.20606 l 0.0549,-0.27308 0.14979,-0.22254 0.22254,-0.14979 0.27309,-0.0549 v 0"
       style="fill:#c7c7c7;fill-opacity:1;stroke:#1b0202;stroke-width:0.01334935;stroke-miterlimit:4;stroke-dasharray:none;stroke-dashoffset:0;stroke-opacity:1;paint-order:normal" />
    <path
       sodipodi:nodetypes="cccccccccccccccccccccc"
       id="path2016"
       d="m 741.45663,581.99879 -0.0643,36.68063 -0.0707,0.30369 -0.18946,0.24752 -0.28018,0.16666 -0.34294,0.0611 -2.23591,6.7e-4 -0.34217,-0.0609 -0.27809,-0.16649 -0.18634,-0.24741 -0.0669,-0.30366 0.0643,-36.68138 0.0707,-0.0588 0.18946,-0.0912 0.28018,-0.0614 0.34294,-0.0985 2.23591,-7.2e-4 0.34217,0.0989 0.27809,0.0614 0.18634,0.0912 0.0669,0.0588 v 0"
       style="fill:#c7c7c7;fill-opacity:1;stroke:#000000;stroke-width:0.06437846;stroke-miterlimit:4;stroke-dasharray:none;stroke-dashoffset:0;stroke-opacity:1;paint-order:markers stroke fill"
       inkscape:connector-curvature="0" />
    <path
       inkscape:connector-curvature="0"
       style="fill:#c7c7c7;fill-opacity:1;stroke:#000000;stroke-width:0.06437846;stroke-miterlimit:4;stroke-dasharray:none;stroke-dashoffset:0;stroke-opacity:1;paint-order:markers stroke fill"
       d="m 741.43602,620.26872 -0.0643,36.68058 -0.0707,0.30369 -0.18945,0.24752 -0.28019,0.16666 -0.34293,0.0611 -2.23592,6.8e-4 -0.34216,-0.0609 -0.27809,-0.16648 -0.18634,-0.24741 -0.0669,-0.30366 0.0643,-36.68133 0.0707,-0.0588 0.18945,-0.0912 0.28019,-0.0614 0.34293,-0.0985 2.23592,-7.2e-4 0.34216,0.0989 0.27809,0.0614 0.18634,0.0912 0.0669,0.0588 v 0"
       id="path2018"
       sodipodi:nodetypes="cccccccccccccccccccccc" />
    <path
       style="fill:#c7c7c7;fill-opacity:1;stroke:#1b0202;stroke-width:0.01334935;stroke-miterlimit:4;stroke-dasharray:none;stroke-dashoffset:0;stroke-opacity:1;paint-order:normal"
       d="m 729.77725,653.98908 h 2.37784 l 0.27309,0.0549 0.22253,0.14979 0.1498,0.22254 0.0549,0.27309 v 2.20605 l -0.0549,0.27308 -0.1498,0.22254 -0.22253,0.14979 -0.27309,0.0549 h -2.37784 l -0.27309,-0.0549 -0.22253,-0.14979 -0.1498,-0.22254 -0.0549,-0.27308 v -2.20605 l 0.0549,-0.27309 0.1498,-0.22254 0.22253,-0.14979 0.27309,-0.0549 v 0"
       id="path2020"
       inkscape:connector-curvature="0" />
    <path
       style="fill:#c7c7c7;fill-opacity:1;stroke:#1b0202;stroke-width:0.01334935;stroke-miterlimit:4;stroke-dasharray:none;stroke-dashoffset:0;stroke-opacity:1;paint-order:normal"
       d="m 733.88307,654.08504 h 2.37784 l 0.27309,0.0549 0.22253,0.14979 0.1498,0.22254 0.0549,0.27308 v 2.20606 l -0.0549,0.27308 -0.1498,0.22254 -0.22253,0.14979 -0.27309,0.0549 h -2.37784 l -0.27308,-0.0549 -0.22254,-0.14979 -0.1498,-0.22254 -0.0549,-0.27308 v -2.20606 l 0.0549,-0.27308 0.1498,-0.22254 0.22254,-0.14979 0.27308,-0.0549 v 0"
       id="path2022"
       inkscape:connector-curvature="0" />
    <path
       inkscape:connector-curvature="0"
       id="path2024"
       d="m 729.77725,649.2273 h 2.37784 l 0.27309,0.0549 0.22253,0.14979 0.1498,0.22254 0.0549,0.27308 v 2.20605 l -0.0549,0.27309 -0.1498,0.22253 -0.22253,0.1498 -0.27309,0.0549 h -2.37784 l -0.27309,-0.0549 -0.22253,-0.1498 -0.1498,-0.22253 -0.0549,-0.27309 v -2.20605 l 0.0549,-0.27308 0.1498,-0.22254 0.22253,-0.14979 0.27309,-0.0549 v 0"
       style="fill:#c7c7c7;fill-opacity:1;stroke:#1b0202;stroke-width:0.01334935;stroke-miterlimit:4;stroke-dasharray:none;stroke-dashoffset:0;stroke-opacity:1;paint-order:normal" />
    <path
       inkscape:connector-curvature="0"
       id="path2026"
       d="m 733.88307,649.32326 h 2.37784 l 0.27309,0.0548 0.22253,0.1498 0.1498,0.22254 0.0549,0.27308 v 2.20605 l -0.0549,0.27309 -0.1498,0.22254 -0.22253,0.14979 -0.27309,0.0549 h -2.37784 l -0.27308,-0.0549 -0.22254,-0.14979 -0.1498,-0.22254 -0.0549,-0.27309 v -2.20605 l 0.0549,-0.27308 0.1498,-0.22254 0.22254,-0.1498 0.27308,-0.0548 v 0"
       style="fill:#c7c7c7;fill-opacity:1;stroke:#1b0202;stroke-width:0.01334935;stroke-miterlimit:4;stroke-dasharray:none;stroke-dashoffset:0;stroke-opacity:1;paint-order:normal" />
  </g>
</svg>
