<?xml version="1.0" encoding="UTF-8" standalone="no"?>
<!-- Created with Inkscape (http://www.inkscape.org/) -->

<svg
   xmlns:dc="http://purl.org/dc/elements/1.1/"
   xmlns:cc="http://creativecommons.org/ns#"
   xmlns:rdf="http://www.w3.org/1999/02/22-rdf-syntax-ns#"
   xmlns:svg="http://www.w3.org/2000/svg"
   xmlns="http://www.w3.org/2000/svg"
   xmlns:sodipodi="http://sodipodi.sourceforge.net/DTD/sodipodi-0.dtd"
   xmlns:inkscape="http://www.inkscape.org/namespaces/inkscape"
   width="124.48051mm"
   height="81.300697mm"
   viewBox="0 0 124.48051 81.300697"
   version="1.1"
   id="svg8"
   inkscape:version="0.92.4 (5da689c313, 2019-01-14)"
   sodipodi:docname="warehouse2.svg">
  <sodipodi:namedview
     id="base"
     pagecolor="#ffffff"
     bordercolor="#666666"
     borderopacity="1.0"
     inkscape:pageopacity="0.0"
     inkscape:pageshadow="2"
     inkscape:zoom="1.979899"
     inkscape:cx="220.61357"
     inkscape:cy="135.41542"
     inkscape:document-units="mm"
     inkscape:current-layer="layer1"
     showgrid="false"
     inkscape:window-width="1920"
     inkscape:window-height="1043"
     inkscape:window-x="0"
     inkscape:window-y="174"
     inkscape:window-maximized="1"
     fit-margin-top="0"
     fit-margin-left="0"
     fit-margin-right="0"
     fit-margin-bottom="0"
     inkscape:snap-nodes="false"
     inkscape:snap-global="false" />
  <defs
     id="defs2" />
  <metadata
     id="metadata5">
    <rdf:RDF>
      <cc:Work
         rdf:about="">
        <dc:format>image/svg+xml</dc:format>
        <dc:type
           rdf:resource="http://purl.org/dc/dcmitype/StillImage" />
        <dc:title></dc:title>
      </cc:Work>
    </rdf:RDF>
  </metadata>
  <g
     transform="translate(-655.71622,-576.47863)"
     inkscape:label="Layer 1"
     inkscape:groupmode="layer"
     id="layer1">
    <path
       id="path1024"
       d="m 702.40509,596.49548 -32.67389,-0.16084 -0.9719,-0.17703 -0.79211,-0.4742 -0.53334,-0.70131 -0.19557,-0.85836 -0.002,-5.59652 0.19491,-0.85644 0.53281,-0.69607 0.79175,-0.4664 0.97177,-0.16746 32.67389,0.16083 0.9719,0.17704 0.79212,0.4742 0.53333,0.70131 0.19556,0.85836 0.002,5.59652 -0.1949,0.85644 -0.53282,0.69606 -0.79176,0.4664 -0.97176,0.16747 v 0"
       style="fill:#c7c7c7;fill-opacity:1;stroke:#000000;stroke-width:0.10180195;stroke-miterlimit:4;stroke-dasharray:none;stroke-dashoffset:0;stroke-opacity:1;paint-order:markers stroke fill"
       inkscape:connector-curvature="0" />
    <path
       id="rect1592"
       d="m 711.8158,641.97371 2.03446,1.2309 0.20523,0.18834 0.11285,0.24336 0.013,0.26794 -0.0944,0.26207 -1.14197,1.88747 -0.18834,0.20524 -0.24336,0.11285 -0.26794,0.013 -0.26207,-0.0944 -2.03446,-1.2309 -0.20523,-0.18834 -0.11285,-0.24336 -0.013,-0.26794 0.0944,-0.26207 1.14198,-1.88747 0.18834,-0.20523 0.24335,-0.11286 0.26794,-0.013 0.26207,0.0944 v 0"
       style="fill:#c7c7c7;fill-opacity:1;stroke:#1b0202;stroke-width:0.01334935;stroke-miterlimit:4;stroke-dasharray:none;stroke-dashoffset:0;stroke-opacity:1;paint-order:normal"
       inkscape:connector-curvature="0" />
    <path
       style="fill:#c7c7c7;fill-opacity:1;stroke:#1b0202;stroke-width:0.01334935;stroke-miterlimit:4;stroke-dasharray:none;stroke-dashoffset:0;stroke-opacity:1;paint-order:normal"
       d="m 713.80287,638.68946 2.03445,1.23091 0.20524,0.18834 0.11285,0.24335 0.013,0.26794 -0.0944,0.26207 -1.14198,1.88747 -0.18834,0.20524 -0.24336,0.11284 -0.26794,0.013 -0.26207,-0.0944 -2.03445,-1.2309 -0.20523,-0.18834 -0.11285,-0.24336 -0.013,-0.26794 0.0944,-0.26207 1.14198,-1.88747 0.18833,-0.20523 0.24336,-0.11286 0.26793,-0.013 0.26207,0.0944 v 0"
       id="path1856"
       inkscape:connector-curvature="0" />
    <path
       style="fill:#c7c7c7;fill-opacity:1;stroke:#1b0202;stroke-width:0.01334935;stroke-miterlimit:4;stroke-dasharray:none;stroke-dashoffset:0;stroke-opacity:1;paint-order:normal"
       d="m 718.46934,641.20101 1.95147,1.35865 0.19278,0.20103 0.097,0.25008 -0.004,0.26822 -0.11098,0.25549 -1.26049,1.81047 -0.20103,0.1928 -0.25009,0.097 -0.26822,-0.004 -0.25549,-0.11099 -1.95146,-1.35864 -0.19279,-0.20103 -0.097,-0.25008 0.004,-0.26822 0.11098,-0.25549 1.26049,-1.81048 0.20103,-0.19279 0.25009,-0.097 0.26822,0.004 0.25549,0.11098 v 0"
       id="path1864"
       inkscape:connector-curvature="0" />
    <path
       inkscape:connector-curvature="0"
       id="path1866"
       d="m 716.07746,644.91617 2.05456,1.19703 0.20836,0.18485 0.11687,0.24146 0.0174,0.26768 -0.0901,0.26359 -1.11059,1.90611 -0.18486,0.20836 -0.24146,0.11686 -0.26769,0.0174 -0.26359,-0.0901 -2.05457,-1.19703 -0.20835,-0.18485 -0.11687,-0.24146 -0.0174,-0.26769 0.0901,-0.26359 1.11059,-1.90611 0.18485,-0.20835 0.24146,-0.11687 0.26769,-0.0174 0.26359,0.0901 v 0"
       style="fill:#c7c7c7;fill-opacity:1;stroke:#1b0202;stroke-width:0.01334935;stroke-miterlimit:4;stroke-dasharray:none;stroke-dashoffset:0;stroke-opacity:1;paint-order:normal" />
    <path
       inkscape:connector-curvature="0"
       style="fill:#c7c7c7;fill-opacity:1;stroke:#000000;stroke-width:0.10180195;stroke-miterlimit:4;stroke-dasharray:none;stroke-dashoffset:0;stroke-opacity:1;paint-order:markers stroke fill"
       d="m 702.40509,612.91876 -32.67389,-0.16084 -0.9719,-0.17703 -0.79211,-0.4742 -0.53334,-0.70131 -0.19557,-0.85836 -0.002,-5.59652 0.19491,-0.85644 0.53281,-0.69606 0.79175,-0.4664 0.97177,-0.16747 32.67389,0.16084 0.9719,0.17703 0.79212,0.4742 0.53333,0.70131 0.19556,0.85836 0.002,5.59652 -0.1949,0.85644 -0.53282,0.69606 -0.79176,0.46641 -0.97176,0.16746 v 0"
       id="path1870" />
    <path
       id="path1872"
       d="m 702.63024,629.96409 -32.67389,-0.16084 -0.9719,-0.17703 -0.79211,-0.4742 -0.53334,-0.70131 -0.19557,-0.85836 -0.002,-5.59652 0.19491,-0.85644 0.53281,-0.69607 0.79175,-0.4664 0.97177,-0.16746 32.67389,0.16083 0.9719,0.17704 0.79212,0.4742 0.53333,0.70131 0.19556,0.85835 0.002,5.59653 -0.1949,0.85644 -0.53282,0.69606 -0.79176,0.4664 -0.97176,0.16747 v 0"
       style="fill:#c7c7c7;fill-opacity:1;stroke:#000000;stroke-width:0.10180195;stroke-miterlimit:4;stroke-dasharray:none;stroke-dashoffset:0;stroke-opacity:1;paint-order:markers stroke fill"
       inkscape:connector-curvature="0" />
    <path
       inkscape:connector-curvature="0"
       style="fill:#c7c7c7;fill-opacity:1;stroke:#000000;stroke-width:0.10180195;stroke-miterlimit:4;stroke-dasharray:none;stroke-dashoffset:0;stroke-opacity:1;paint-order:markers stroke fill"
       d="m 702.34327,646.1339 -32.67389,-0.16084 -0.9719,-0.17703 -0.79211,-0.4742 -0.53334,-0.70131 -0.19557,-0.85836 -0.002,-5.59652 0.19491,-0.85644 0.53281,-0.69606 0.79175,-0.4664 0.97177,-0.16747 32.67389,0.16084 0.9719,0.17703 0.79212,0.4742 0.53333,0.70131 0.19556,0.85836 0.002,5.59652 -0.1949,0.85644 -0.53282,0.69606 -0.79176,0.46641 -0.97176,0.16746 v 0"
       id="path1890" />
    <path
       style="fill:#c7c7c7;fill-opacity:1;stroke:#1b0202;stroke-width:0.01334935;stroke-miterlimit:4;stroke-dasharray:none;stroke-dashoffset:0;stroke-opacity:1;paint-order:normal"
       d="m 716.8831,632.4529 2.20148,-0.89869 0.27357,-0.0524 0.26265,0.0546 0.22278,0.14941 0.15404,0.23209 0.83377,2.04242 0.0524,0.27359 -0.0546,0.26263 -0.14942,0.2228 -0.23208,0.15404 -2.20147,0.89869 -0.27358,0.0524 -0.26264,-0.0546 -0.2228,-0.14941 -0.15404,-0.23209 -0.83376,-2.04242 -0.0524,-0.27358 0.0546,-0.26265 0.14941,-0.22279 0.23208,-0.15404 v 0"
       id="path1908"
       inkscape:connector-curvature="0" />
    <path
       inkscape:connector-curvature="0"
       id="path1910"
       d="m 715.43234,628.89903 2.20147,-0.89869 0.27357,-0.0524 0.26265,0.0546 0.22278,0.14941 0.15404,0.23208 0.83377,2.04243 0.0524,0.27358 -0.0546,0.26264 -0.14941,0.22279 -0.23208,0.15404 -2.20147,0.89869 -0.27358,0.0524 -0.26265,-0.0546 -0.22279,-0.14941 -0.15404,-0.23208 -0.83376,-2.04243 -0.0524,-0.27358 0.0546,-0.26264 0.14941,-0.22278 0.23209,-0.15405 v 0"
       style="fill:#c7c7c7;fill-opacity:1;stroke:#1b0202;stroke-width:0.01334935;stroke-miterlimit:4;stroke-dasharray:none;stroke-dashoffset:0;stroke-opacity:1;paint-order:normal" />
    <path
       style="fill:#c7c7c7;fill-opacity:1;stroke:#1b0202;stroke-width:0.01334935;stroke-miterlimit:4;stroke-dasharray:none;stroke-dashoffset:0;stroke-opacity:1;paint-order:normal"
       d="m 721.7868,630.78752 2.18628,-0.93505 0.27265,-0.057 0.26351,0.0502 0.22522,0.1457 0.15785,0.22951 0.86744,2.02835 0.057,0.27265 -0.0502,0.26351 -0.1457,0.22523 -0.22952,0.15785 -2.18631,0.93495 -0.27265,0.057 -0.26351,-0.0502 -0.22523,-0.14571 -0.15785,-0.2295 -0.86744,-2.02835 -0.057,-0.27265 0.0502,-0.26351 0.1457,-0.22523 0.22951,-0.15784 v 0"
       id="path1912"
       inkscape:connector-curvature="0" />
    <path
       style="fill:#c7c7c7;fill-opacity:1;stroke:#1b0202;stroke-width:0.01334935;stroke-miterlimit:4;stroke-dasharray:none;stroke-dashoffset:0;stroke-opacity:1;paint-order:normal"
       d="m 720.08078,626.86551 2.18628,-0.93504 0.27266,-0.057 0.2635,0.0502 0.22524,0.14571 0.15785,0.2295 0.86744,2.02835 0.057,0.27265 -0.0502,0.26351 -0.14571,0.22522 -0.22951,0.15786 -2.18628,0.93504 -0.27265,0.057 -0.2635,-0.0502 -0.22524,-0.1457 -0.15785,-0.22951 -0.86744,-2.02835 -0.057,-0.27265 0.0502,-0.26351 0.14571,-0.22523 0.2295,-0.15785 v 0"
       id="path1914"
       inkscape:connector-curvature="0" />
    <path
       inkscape:connector-curvature="0"
       id="path1916"
       d="m 714.19484,611.30865 2.11584,1.08506 0.21795,0.17346 0.12965,0.23484 0.0317,0.26637 -0.0758,0.26805 -1.00667,1.96298 -0.17346,0.21795 -0.23484,0.12965 -0.26637,0.0317 -0.26805,-0.0758 -2.11584,-1.08506 -0.21794,-0.17346 -0.12966,-0.23483 -0.0317,-0.26637 0.0758,-0.26805 1.00666,-1.96297 0.17347,-0.21795 0.23483,-0.12966 0.26637,-0.0317 0.26805,0.0758 v 0"
       style="fill:#c7c7c7;fill-opacity:1;stroke:#1b0202;stroke-width:0.01334935;stroke-miterlimit:4;stroke-dasharray:none;stroke-dashoffset:0;stroke-opacity:1;paint-order:normal" />
    <path
       style="fill:#c7c7c7;fill-opacity:1;stroke:#1b0202;stroke-width:0.01334935;stroke-miterlimit:4;stroke-dasharray:none;stroke-dashoffset:0;stroke-opacity:1;paint-order:normal"
       d="m 715.94647,607.89302 2.11584,1.08506 0.21794,0.17347 0.12966,0.23484 0.0317,0.26637 -0.0758,0.26805 -1.00667,1.96297 -0.17347,0.21795 -0.23484,0.12966 -0.26636,0.0317 -0.26805,-0.0758 -2.11584,-1.08506 -0.21795,-0.17347 -0.12965,-0.23484 -0.0317,-0.26636 0.0758,-0.26805 1.00667,-1.96298 0.17347,-0.21795 0.23483,-0.12966 0.26637,-0.0317 0.26805,0.0758 v 0"
       id="path1918"
       inkscape:connector-curvature="0" />
    <path
       inkscape:connector-curvature="0"
       id="path1920"
       d="m 718.65253,613.9447 2.13353,1.04985 0.22082,0.16978 0.13352,0.23265 0.0362,0.26581 -0.0713,0.26926 -0.97406,1.97936 -0.16977,0.22082 -0.23266,0.13353 -0.26581,0.0361 -0.26926,-0.0713 -2.13353,-1.04986 -0.22081,-0.16977 -0.13354,-0.23266 -0.0361,-0.26581 0.0713,-0.26926 0.97406,-1.97936 0.16977,-0.22082 0.23265,-0.13353 0.26582,-0.0361 0.26926,0.0713 v 0"
       style="fill:#c7c7c7;fill-opacity:1;stroke:#1b0202;stroke-width:0.01334935;stroke-miterlimit:4;stroke-dasharray:none;stroke-dashoffset:0;stroke-opacity:1;paint-order:normal" />
    <path
       inkscape:connector-curvature="0"
       id="path1922"
       d="m 720.12701,610.0047 2.13353,1.04985 0.22081,0.16977 0.13354,0.23266 0.0361,0.26581 -0.0713,0.26926 -0.97406,1.97936 -0.16976,0.22082 -0.23267,0.13353 -0.2658,0.0361 -0.26926,-0.0713 -2.13353,-1.04985 -0.22082,-0.16977 -0.13352,-0.23266 -0.0362,-0.2658 0.0713,-0.26927 0.97405,-1.97936 0.16977,-0.22082 0.23266,-0.13352 0.26581,-0.0362 0.26926,0.0713 v 0"
       style="fill:#c7c7c7;fill-opacity:1;stroke:#1b0202;stroke-width:0.01334935;stroke-miterlimit:4;stroke-dasharray:none;stroke-dashoffset:0;stroke-opacity:1;paint-order:normal" />
    <path
       style="fill:#c7c7c7;fill-opacity:1;stroke:#1b0202;stroke-width:0.01334935;stroke-miterlimit:4;stroke-dasharray:none;stroke-dashoffset:0;stroke-opacity:1;paint-order:normal"
       d="m 716.40031,597.63344 2.22249,-0.84538 0.27476,-0.0458 0.26125,0.0609 0.21912,0.15474 0.1484,0.23572 0.78431,2.06192 0.0458,0.27477 -0.0609,0.26125 -0.15473,0.21912 -0.23573,0.14841 -2.22249,0.84538 -0.27477,0.0458 -0.26125,-0.0609 -0.21912,-0.15475 -0.14841,-0.23573 -0.78431,-2.06192 -0.0458,-0.27476 0.0609,-0.26125 0.15475,-0.21912 0.23573,-0.14841 v 0"
       id="path1924"
       inkscape:connector-curvature="0" />
    <path
       inkscape:connector-curvature="0"
       id="path1926"
       d="m 714.47924,593.66974 2.04648,-1.2108 0.26309,-0.0915 0.2678,0.0156 0.24223,0.11525 0.18628,0.20709 1.12332,1.89864 0.0915,0.26308 -0.0156,0.26781 -0.11524,0.24222 -0.20711,0.18628 -2.04648,1.2108 -0.26308,0.0915 -0.26781,-0.0156 -0.24223,-0.11525 -0.18627,-0.20709 -1.12333,-1.89863 -0.0915,-0.2631 0.0156,-0.26779 0.11524,-0.24224 0.2071,-0.18628 v 0"
       style="fill:#c7c7c7;fill-opacity:1;stroke:#1b0202;stroke-width:0.01334935;stroke-miterlimit:4;stroke-dasharray:none;stroke-dashoffset:0;stroke-opacity:1;paint-order:normal" />
    <path
       style="fill:#c7c7c7;fill-opacity:1;stroke:#1b0202;stroke-width:0.01334935;stroke-miterlimit:4;stroke-dasharray:none;stroke-dashoffset:0;stroke-opacity:1;paint-order:normal"
       d="m 720.97547,595.3946 2.20818,-0.8821 0.27394,-0.0504 0.26223,0.0566 0.22164,0.15109 0.15228,0.23324 0.81831,2.04867 0.0504,0.27394 -0.0566,0.26222 -0.15109,0.22166 -0.23325,0.15227 -2.20821,0.88201 -0.27394,0.0504 -0.26222,-0.0566 -0.22166,-0.15109 -0.15227,-0.23325 -0.81832,-2.04866 -0.0504,-0.27393 0.0566,-0.26223 0.1511,-0.22165 0.23324,-0.15228 v 0"
       id="path1928"
       inkscape:connector-curvature="0" />
    <path
       style="fill:#c7c7c7;fill-opacity:1;stroke:#1b0202;stroke-width:0.01334935;stroke-miterlimit:4;stroke-dasharray:none;stroke-dashoffset:0;stroke-opacity:1;paint-order:normal"
       d="m 719.36445,591.43263 2.20818,-0.8821 0.27394,-0.0504 0.26223,0.0566 0.22165,0.1511 0.15227,0.23324 0.81832,2.04867 0.0504,0.27394 -0.0566,0.26222 -0.15109,0.22165 -0.23325,0.15227 -2.20817,0.8821 -0.27394,0.0504 -0.26222,-0.0566 -0.22166,-0.15108 -0.15227,-0.23324 -0.81832,-2.04867 -0.0504,-0.27394 0.0566,-0.26222 0.1511,-0.22166 0.23324,-0.15227 v 0"
       id="path1930"
       inkscape:connector-curvature="0" />
    <path
       inkscape:connector-curvature="0"
       style="fill:#c7c7c7;fill-opacity:1;stroke:#000000;stroke-width:0.0663022;stroke-miterlimit:4;stroke-dasharray:none;stroke-dashoffset:0;stroke-opacity:1;paint-order:markers stroke fill"
       d="m 659.82514,576.9528 -0.0643,38.9239 -0.0707,0.32227 -0.18937,0.26266 -0.28005,0.17684 -0.34276,0.0648 -2.23487,7.3e-4 -0.34201,-0.0646 -0.27796,-0.17667 -0.18624,-0.26254 -0.0669,-0.32222 0.0643,-38.92471 0.0707,-0.0624 0.18936,-0.0968 0.28006,-0.0652 0.34277,-0.10452 2.23486,-7.7e-4 0.342,0.10494 0.27796,0.0652 0.18625,0.0968 0.0669,0.0624 v 0"
       id="path1942"
       sodipodi:nodetypes="cccccccccccccccccccccc" />
    <path
       sodipodi:nodetypes="cccccccccccccccccccccc"
       id="path1944"
       d="m 659.80454,617.99499 -0.0643,38.9239 -0.0707,0.32226 -0.18936,0.26266 -0.28006,0.17685 -0.34277,0.0648 -2.23486,7.2e-4 -0.342,-0.0646 -0.27796,-0.17666 -0.18625,-0.26254 -0.0669,-0.32223 0.0643,-38.92469 0.0707,-0.0624 0.18936,-0.0968 0.28006,-0.0652 0.34276,-0.10453 2.23487,-7.6e-4 0.34201,0.10495 0.27796,0.0652 0.18624,0.0968 0.0669,0.0624 v 0"
       style="fill:#c7c7c7;fill-opacity:1;stroke:#000000;stroke-width:0.0663022;stroke-miterlimit:4;stroke-dasharray:none;stroke-dashoffset:0;stroke-opacity:1;paint-order:markers stroke fill"
       inkscape:connector-curvature="0" />
    <path
       style="fill:#c7c7c7;fill-opacity:1;stroke:#1b0202;stroke-width:0.01334935;stroke-miterlimit:4;stroke-dasharray:none;stroke-dashoffset:0;stroke-opacity:1;paint-order:normal"
       d="m 753.70067,593.39181 h 2.37785 l 0.27308,0.0549 0.22254,0.14979 0.14979,0.22254 0.0549,0.27309 v 2.20605 l -0.0549,0.27309 -0.14979,0.22253 -0.22254,0.14979 -0.27308,0.0549 h -2.37785 l -0.27308,-0.0549 -0.22254,-0.14979 -0.14979,-0.22253 -0.0549,-0.27309 v -2.20609 l 0.0549,-0.27309 0.14979,-0.22254 0.22254,-0.14979 0.27308,-0.0549 v 0"
       id="path1946"
       inkscape:connector-curvature="0" />
    <path
       inkscape:connector-curvature="0"
       id="path1948"
       d="m 757.8065,593.39181 h 2.37784 l 0.27308,0.0549 0.22254,0.14979 0.14979,0.22254 0.0549,0.27309 v 2.20605 l -0.0549,0.27309 -0.14979,0.22253 -0.22254,0.14979 -0.27308,0.0549 h -2.37784 l -0.27309,-0.0549 -0.22254,-0.14979 -0.14979,-0.22253 -0.0549,-0.27309 v -2.20609 l 0.0549,-0.27309 0.14979,-0.22254 0.22254,-0.14979 0.27309,-0.0549 v 0"
       style="fill:#c7c7c7;fill-opacity:1;stroke:#1b0202;stroke-width:0.01334935;stroke-miterlimit:4;stroke-dasharray:none;stroke-dashoffset:0;stroke-opacity:1;paint-order:normal" />
    <path
       style="fill:#c7c7c7;fill-opacity:1;stroke:#1b0202;stroke-width:0.01334935;stroke-miterlimit:4;stroke-dasharray:none;stroke-dashoffset:0;stroke-opacity:1;paint-order:normal"
       d="m 762.0095,593.39181 h 2.37784 l 0.27308,0.0549 0.22254,0.14979 0.14979,0.22254 0.0549,0.27309 v 2.20605 l -0.0549,0.27309 -0.14979,0.22253 -0.22254,0.14979 -0.27308,0.0549 h -2.37784 l -0.27309,-0.0549 -0.22254,-0.14979 -0.14979,-0.22253 -0.0549,-0.27309 v -2.20609 l 0.0549,-0.27309 0.14979,-0.22254 0.22254,-0.14979 0.27309,-0.0549 v 0"
       id="path1950"
       inkscape:connector-curvature="0" />
    <path
       style="fill:#c7c7c7;fill-opacity:1;stroke:#1b0202;stroke-width:0.01334935;stroke-miterlimit:4;stroke-dasharray:none;stroke-dashoffset:0;stroke-opacity:1;paint-order:normal"
       d="m 766.11532,593.48777 h 2.37784 l 0.27308,0.0549 0.22254,0.14979 0.14979,0.22254 0.0549,0.27309 v 2.20605 l -0.0549,0.27308 -0.14979,0.22254 -0.22254,0.14979 -0.27308,0.0549 h -2.37784 l -0.27309,-0.0549 -0.22253,-0.14979 -0.1498,-0.22254 -0.0549,-0.27308 v -2.20605 l 0.0549,-0.27309 0.1498,-0.22254 0.22253,-0.14979 0.27309,-0.0549 v 0"
       id="path1952"
       inkscape:connector-curvature="0" />
    <path
       inkscape:connector-curvature="0"
       id="path1954"
       d="m 744.55107,609.42798 h 2.37785 l 0.27308,0.0549 0.22254,0.14979 0.14979,0.22254 0.0549,0.27309 v 2.20605 l -0.0549,0.27309 -0.14979,0.22253 -0.22254,0.14979 -0.27308,0.0549 h -2.37785 l -0.27308,-0.0549 -0.22254,-0.14979 -0.14979,-0.22253 -0.0549,-0.27309 v -2.20609 l 0.0549,-0.27309 0.14979,-0.22254 0.22254,-0.14979 0.27308,-0.0549 v 0"
       style="fill:#c7c7c7;fill-opacity:1;stroke:#1b0202;stroke-width:0.01334935;stroke-miterlimit:4;stroke-dasharray:none;stroke-dashoffset:0;stroke-opacity:1;paint-order:normal" />
    <path
       style="fill:#c7c7c7;fill-opacity:1;stroke:#1b0202;stroke-width:0.01334935;stroke-miterlimit:4;stroke-dasharray:none;stroke-dashoffset:0;stroke-opacity:1;paint-order:normal"
       d="m 748.6569,609.42798 h 2.37784 l 0.27308,0.0549 0.22254,0.14979 0.14979,0.22254 0.0549,0.27309 v 2.20605 l -0.0549,0.27309 -0.14979,0.22253 -0.22254,0.14979 -0.27308,0.0549 h -2.37784 l -0.27309,-0.0549 -0.22254,-0.14979 -0.14979,-0.22253 -0.0549,-0.27309 v -2.20609 l 0.0549,-0.27309 0.14979,-0.22254 0.22254,-0.14979 0.27309,-0.0549 v 0"
       id="path1956"
       inkscape:connector-curvature="0" />
    <path
       inkscape:connector-curvature="0"
       id="path1958"
       d="m 752.8599,609.42798 h 2.37784 l 0.27308,0.0549 0.22254,0.14979 0.14979,0.22254 0.0549,0.27309 v 2.20605 l -0.0549,0.27309 -0.14979,0.22253 -0.22254,0.14979 -0.27308,0.0549 h -2.37784 l -0.27309,-0.0549 -0.22254,-0.14979 -0.14979,-0.22253 -0.0549,-0.27309 v -2.20609 l 0.0549,-0.27309 0.14979,-0.22254 0.22254,-0.14979 0.27309,-0.0549 v 0"
       style="fill:#c7c7c7;fill-opacity:1;stroke:#1b0202;stroke-width:0.01334935;stroke-miterlimit:4;stroke-dasharray:none;stroke-dashoffset:0;stroke-opacity:1;paint-order:normal" />
    <path
       inkscape:connector-curvature="0"
       id="path1960"
       d="m 757.15812,609.47584 h 2.37785 l 0.27308,0.0549 0.22254,0.14979 0.14979,0.22254 0.0549,0.27309 v 2.20604 l -0.0549,0.27309 -0.14979,0.22254 -0.22254,0.14979 -0.27308,0.0549 h -2.37785 l -0.27308,-0.0549 -0.22254,-0.14979 -0.14979,-0.22254 -0.0549,-0.27309 v -2.20604 l 0.0549,-0.27309 0.14979,-0.22254 0.22254,-0.14979 0.27308,-0.0549 v 0"
       style="fill:#c7c7c7;fill-opacity:1;stroke:#1b0202;stroke-width:0.01334935;stroke-miterlimit:4;stroke-dasharray:none;stroke-dashoffset:0;stroke-opacity:1;paint-order:normal" />
    <path
       style="fill:#c7c7c7;fill-opacity:1;stroke:#1b0202;stroke-width:0.01334935;stroke-miterlimit:4;stroke-dasharray:none;stroke-dashoffset:0;stroke-opacity:1;paint-order:normal"
       d="m 761.57856,609.42798 h 2.37784 l 0.27308,0.0549 0.22254,0.14979 0.14979,0.22254 0.0549,0.27309 v 2.20605 l -0.0549,0.27309 -0.14979,0.22253 -0.22254,0.14979 -0.27308,0.0549 h -2.37784 l -0.27309,-0.0549 -0.22253,-0.14979 -0.1498,-0.22253 -0.0549,-0.27309 v -2.20609 l 0.0549,-0.27309 0.1498,-0.22254 0.22253,-0.14979 0.27309,-0.0549 v 0"
       id="path1962"
       inkscape:connector-curvature="0" />
    <path
       inkscape:connector-curvature="0"
       id="path1964"
       d="m 765.78058,609.42798 h 2.37784 l 0.27309,0.0549 0.22253,0.14979 0.1498,0.22254 0.0549,0.27309 v 2.20605 l -0.0549,0.27309 -0.1498,0.22253 -0.22253,0.14979 -0.27309,0.0549 h -2.37784 l -0.27308,-0.0549 -0.22254,-0.14979 -0.14979,-0.22253 -0.0549,-0.27309 v -2.20609 l 0.0549,-0.27309 0.14979,-0.22254 0.22254,-0.14979 0.27308,-0.0549 v 0"
       style="fill:#c7c7c7;fill-opacity:1;stroke:#1b0202;stroke-width:0.01334935;stroke-miterlimit:4;stroke-dasharray:none;stroke-dashoffset:0;stroke-opacity:1;paint-order:normal" />
    <path
       style="fill:#c7c7c7;fill-opacity:1;stroke:#1b0202;stroke-width:0.01334935;stroke-miterlimit:4;stroke-dasharray:none;stroke-dashoffset:0;stroke-opacity:1;paint-order:normal"
       d="m 744.47002,626.13232 h 2.37787 l 0.27308,0.0549 0.22254,0.14979 0.14979,0.22254 0.0549,0.27309 v 2.20605 l -0.0549,0.27309 -0.14979,0.22253 -0.22254,0.14979 -0.27308,0.0549 h -2.37787 l -0.27309,-0.0549 -0.22253,-0.14979 -0.1498,-0.22253 -0.0549,-0.27309 v -2.20609 l 0.0549,-0.27309 0.1498,-0.22254 0.22253,-0.14979 0.27309,-0.0549 v 0"
       id="path1966"
       inkscape:connector-curvature="0" />
    <path
       style="fill:#c7c7c7;fill-opacity:1;stroke:#1b0202;stroke-width:0.01334935;stroke-miterlimit:4;stroke-dasharray:none;stroke-dashoffset:0;stroke-opacity:1;paint-order:normal"
       d="m 748.74423,626.22828 h 2.37784 l 0.27309,0.0549 0.22253,0.14979 0.1498,0.22254 0.0549,0.27309 v 2.20605 l -0.0549,0.27308 -0.1498,0.22254 -0.22253,0.14979 -0.27309,0.0549 h -2.37784 l -0.27308,-0.0549 -0.22254,-0.14979 -0.1498,-0.22254 -0.0549,-0.27308 v -2.20605 l 0.0549,-0.27309 0.1498,-0.22254 0.22254,-0.14979 0.27308,-0.0549 v 0"
       id="path1968"
       inkscape:connector-curvature="0" />
    <path
       inkscape:connector-curvature="0"
       id="path1970"
       d="m 753.12773,626.32668 h 2.37784 l 0.27309,0.0549 0.22253,0.14979 0.1498,0.22254 0.0549,0.27309 v 2.20605 l -0.0549,0.27308 -0.1498,0.22254 -0.22253,0.14979 -0.27309,0.0549 h -2.37784 l -0.27309,-0.0549 -0.22253,-0.14979 -0.1498,-0.22254 -0.0549,-0.27308 V 627.027 l 0.0549,-0.27309 0.1498,-0.22254 0.22253,-0.14979 0.27309,-0.0549 v 0"
       style="fill:#c7c7c7;fill-opacity:1;stroke:#1b0202;stroke-width:0.01334935;stroke-miterlimit:4;stroke-dasharray:none;stroke-dashoffset:0;stroke-opacity:1;paint-order:normal" />
    <path
       inkscape:connector-curvature="0"
       id="path1972"
       d="m 757.23355,626.42264 h 2.37784 l 0.27309,0.0549 0.22253,0.14979 0.1498,0.22254 0.0549,0.27308 v 2.20606 l -0.0549,0.27308 -0.1498,0.22254 -0.22253,0.14979 -0.27309,0.0549 h -2.37784 l -0.27309,-0.0549 -0.22253,-0.14979 -0.1498,-0.22254 -0.0549,-0.27308 v -2.20606 l 0.0549,-0.27308 0.1498,-0.22254 0.22253,-0.14979 0.27309,-0.0549 v 0"
       style="fill:#c7c7c7;fill-opacity:1;stroke:#1b0202;stroke-width:0.01334935;stroke-miterlimit:4;stroke-dasharray:none;stroke-dashoffset:0;stroke-opacity:1;paint-order:normal" />
    <path
       style="fill:#c7c7c7;fill-opacity:1;stroke:#1b0202;stroke-width:0.01334935;stroke-miterlimit:4;stroke-dasharray:none;stroke-dashoffset:0;stroke-opacity:1;paint-order:normal"
       d="m 744.88166,593.39181 h 2.37784 l 0.27309,0.0549 0.22253,0.14979 0.1498,0.22254 0.0549,0.27309 v 2.20605 l -0.0549,0.27309 -0.1498,0.22253 -0.22253,0.14979 -0.27309,0.0549 h -2.37784 l -0.27308,-0.0549 -0.22254,-0.14979 -0.14979,-0.22253 -0.0549,-0.27309 v -2.20609 l 0.0549,-0.27309 0.14979,-0.22254 0.22254,-0.14979 0.27308,-0.0549 v 0"
       id="path1974"
       inkscape:connector-curvature="0" />
    <path
       inkscape:connector-curvature="0"
       id="path1976"
       d="m 749.08466,593.39181 h 2.37784 l 0.27309,0.0549 0.22253,0.14979 0.1498,0.22254 0.0549,0.27309 v 2.20605 l -0.0549,0.27309 -0.1498,0.22253 -0.22253,0.14979 -0.27309,0.0549 h -2.37784 l -0.27308,-0.0549 -0.22254,-0.14979 -0.14979,-0.22253 -0.0549,-0.27309 v -2.20609 l 0.0549,-0.27309 0.14979,-0.22254 0.22254,-0.14979 0.27308,-0.0549 v 0"
       style="fill:#c7c7c7;fill-opacity:1;stroke:#1b0202;stroke-width:0.01334935;stroke-miterlimit:4;stroke-dasharray:none;stroke-dashoffset:0;stroke-opacity:1;paint-order:normal" />
    <path
       inkscape:connector-curvature="0"
       id="path1978"
       d="m 753.70067,588.63002 h 2.37785 l 0.27308,0.0549 0.22254,0.14979 0.14979,0.22254 0.0549,0.27308 v 2.20606 l -0.0549,0.27308 -0.14979,0.22254 -0.22254,0.14979 -0.27308,0.0549 h -2.37785 l -0.27308,-0.0549 -0.22254,-0.14979 -0.14979,-0.22254 -0.0549,-0.27308 v -2.20606 l 0.0549,-0.27308 0.14979,-0.22254 0.22254,-0.14979 0.27308,-0.0549 v 0"
       style="fill:#c7c7c7;fill-opacity:1;stroke:#1b0202;stroke-width:0.01334935;stroke-miterlimit:4;stroke-dasharray:none;stroke-dashoffset:0;stroke-opacity:1;paint-order:normal" />
    <path
       style="fill:#c7c7c7;fill-opacity:1;stroke:#1b0202;stroke-width:0.01334935;stroke-miterlimit:4;stroke-dasharray:none;stroke-dashoffset:0;stroke-opacity:1;paint-order:normal"
       d="m 757.8065,588.63002 h 2.37784 l 0.27308,0.0549 0.22254,0.14979 0.14979,0.22254 0.0549,0.27308 v 2.20606 l -0.0549,0.27308 -0.14979,0.22254 -0.22254,0.14979 -0.27308,0.0549 h -2.37784 l -0.27309,-0.0549 -0.22254,-0.14979 -0.14979,-0.22254 -0.0549,-0.27308 v -2.20606 l 0.0549,-0.27308 0.14979,-0.22254 0.22254,-0.14979 0.27309,-0.0549 v 0"
       id="path1980"
       inkscape:connector-curvature="0" />
    <path
       inkscape:connector-curvature="0"
       id="path1982"
       d="m 762.0095,588.63002 h 2.37784 l 0.27308,0.0549 0.22254,0.14979 0.14979,0.22254 0.0549,0.27308 v 2.20606 l -0.0549,0.27308 -0.14979,0.22254 -0.22254,0.14979 -0.27308,0.0549 h -2.37784 l -0.27309,-0.0549 -0.22254,-0.14979 -0.14979,-0.22254 -0.0549,-0.27308 v -2.20606 l 0.0549,-0.27308 0.14979,-0.22254 0.22254,-0.14979 0.27309,-0.0549 v 0"
       style="fill:#c7c7c7;fill-opacity:1;stroke:#1b0202;stroke-width:0.01334935;stroke-miterlimit:4;stroke-dasharray:none;stroke-dashoffset:0;stroke-opacity:1;paint-order:normal" />
    <path
       inkscape:connector-curvature="0"
       id="path1984"
       d="m 766.11532,588.72598 h 2.37784 l 0.27308,0.0549 0.22254,0.14979 0.14979,0.22254 0.0549,0.27308 v 2.20606 l -0.0549,0.27308 -0.14979,0.22253 -0.22254,0.1498 -0.27308,0.0549 h -2.37784 l -0.27309,-0.0549 -0.22253,-0.1498 -0.1498,-0.22253 -0.0549,-0.27308 v -2.20606 l 0.0549,-0.27308 0.1498,-0.22254 0.22253,-0.14979 0.27309,-0.0549 v 0"
       style="fill:#c7c7c7;fill-opacity:1;stroke:#1b0202;stroke-width:0.01334935;stroke-miterlimit:4;stroke-dasharray:none;stroke-dashoffset:0;stroke-opacity:1;paint-order:normal" />
    <path
       style="fill:#c7c7c7;fill-opacity:1;stroke:#1b0202;stroke-width:0.01334935;stroke-miterlimit:4;stroke-dasharray:none;stroke-dashoffset:0;stroke-opacity:1;paint-order:normal"
       d="m 744.55107,604.66619 h 2.37785 l 0.27308,0.0549 0.22254,0.14979 0.14979,0.22254 0.0549,0.27308 v 2.20606 l -0.0549,0.27308 -0.14979,0.22254 -0.22254,0.14979 -0.27308,0.0549 h -2.37785 l -0.27308,-0.0549 -0.22254,-0.14979 -0.14979,-0.22254 -0.0549,-0.27308 v -2.20606 l 0.0549,-0.27308 0.14979,-0.22254 0.22254,-0.14979 0.27308,-0.0549 v 0"
       id="path1986"
       inkscape:connector-curvature="0" />
    <path
       inkscape:connector-curvature="0"
       id="path1988"
       d="m 748.6569,604.66619 h 2.37784 l 0.27308,0.0549 0.22254,0.14979 0.14979,0.22254 0.0549,0.27308 v 2.20606 l -0.0549,0.27308 -0.14979,0.22254 -0.22254,0.14979 -0.27308,0.0549 h -2.37784 l -0.27309,-0.0549 -0.22254,-0.14979 -0.14979,-0.22254 -0.0549,-0.27308 v -2.20606 l 0.0549,-0.27308 0.14979,-0.22254 0.22254,-0.14979 0.27309,-0.0549 v 0"
       style="fill:#c7c7c7;fill-opacity:1;stroke:#1b0202;stroke-width:0.01334935;stroke-miterlimit:4;stroke-dasharray:none;stroke-dashoffset:0;stroke-opacity:1;paint-order:normal" />
    <path
       style="fill:#c7c7c7;fill-opacity:1;stroke:#1b0202;stroke-width:0.01334935;stroke-miterlimit:4;stroke-dasharray:none;stroke-dashoffset:0;stroke-opacity:1;paint-order:normal"
       d="m 752.8599,604.66619 h 2.37784 l 0.27308,0.0549 0.22254,0.14979 0.14979,0.22254 0.0549,0.27308 v 2.20606 l -0.0549,0.27308 -0.14979,0.22254 -0.22254,0.14979 -0.27308,0.0549 h -2.37784 l -0.27309,-0.0549 -0.22254,-0.14979 -0.14979,-0.22254 -0.0549,-0.27308 v -2.20606 l 0.0549,-0.27308 0.14979,-0.22254 0.22254,-0.14979 0.27309,-0.0549 v 0"
       id="path1990"
       inkscape:connector-curvature="0" />
    <path
       style="fill:#c7c7c7;fill-opacity:1;stroke:#1b0202;stroke-width:0.01334935;stroke-miterlimit:4;stroke-dasharray:none;stroke-dashoffset:0;stroke-opacity:1;paint-order:normal"
       d="m 757.15812,604.71405 h 2.37785 l 0.27308,0.0549 0.22254,0.14979 0.14979,0.22254 0.0549,0.27308 v 2.20605 l -0.0549,0.27309 -0.14979,0.22253 -0.22254,0.1498 -0.27308,0.0549 h -2.37785 l -0.27308,-0.0549 -0.22254,-0.1498 -0.14979,-0.22253 -0.0549,-0.27309 v -2.20605 l 0.0549,-0.27308 0.14979,-0.22254 0.22254,-0.14979 0.27308,-0.0549 v 0"
       id="path1992"
       inkscape:connector-curvature="0" />
    <path
       inkscape:connector-curvature="0"
       id="path1994"
       d="m 761.57856,604.66619 h 2.37784 l 0.27308,0.0549 0.22254,0.14979 0.14979,0.22254 0.0549,0.27308 v 2.20606 l -0.0549,0.27308 -0.14979,0.22254 -0.22254,0.14979 -0.27308,0.0549 h -2.37784 l -0.27309,-0.0549 -0.22253,-0.14979 -0.1498,-0.22254 -0.0549,-0.27308 v -2.20606 l 0.0549,-0.27308 0.1498,-0.22254 0.22253,-0.14979 0.27309,-0.0549 v 0"
       style="fill:#c7c7c7;fill-opacity:1;stroke:#1b0202;stroke-width:0.01334935;stroke-miterlimit:4;stroke-dasharray:none;stroke-dashoffset:0;stroke-opacity:1;paint-order:normal" />
    <path
       style="fill:#c7c7c7;fill-opacity:1;stroke:#1b0202;stroke-width:0.01334935;stroke-miterlimit:4;stroke-dasharray:none;stroke-dashoffset:0;stroke-opacity:1;paint-order:normal"
       d="m 765.78058,604.66619 h 2.37784 l 0.27309,0.0549 0.22253,0.14979 0.1498,0.22254 0.0549,0.27308 v 2.20606 l -0.0549,0.27308 -0.1498,0.22254 -0.22253,0.14979 -0.27309,0.0549 h -2.37784 l -0.27308,-0.0549 -0.22254,-0.14979 -0.14979,-0.22254 -0.0549,-0.27308 v -2.20606 l 0.0549,-0.27308 0.14979,-0.22254 0.22254,-0.14979 0.27308,-0.0549 v 0"
       id="path1996"
       inkscape:connector-curvature="0" />
    <path
       inkscape:connector-curvature="0"
       id="path1998"
       d="m 744.47002,621.37053 h 2.37787 l 0.27308,0.0549 0.22254,0.14979 0.14979,0.22254 0.0549,0.27308 v 2.20606 l -0.0549,0.27308 -0.14979,0.22254 -0.22254,0.14979 -0.27308,0.0549 h -2.37787 l -0.27309,-0.0549 -0.22253,-0.14979 -0.1498,-0.22254 -0.0549,-0.27308 v -2.20606 l 0.0549,-0.27308 0.1498,-0.22254 0.22253,-0.14979 0.27309,-0.0549 v 0"
       style="fill:#c7c7c7;fill-opacity:1;stroke:#1b0202;stroke-width:0.01334935;stroke-miterlimit:4;stroke-dasharray:none;stroke-dashoffset:0;stroke-opacity:1;paint-order:normal" />
    <path
       inkscape:connector-curvature="0"
       id="path2000"
       d="m 748.74423,621.46649 h 2.37784 l 0.27309,0.0549 0.22253,0.14979 0.1498,0.22254 0.0549,0.27308 v 2.20606 l -0.0549,0.27308 -0.1498,0.22253 -0.22253,0.1498 -0.27309,0.0549 h -2.37784 l -0.27308,-0.0549 -0.22254,-0.1498 -0.1498,-0.22253 -0.0549,-0.27308 v -2.20606 l 0.0549,-0.27308 0.1498,-0.22254 0.22254,-0.14979 0.27308,-0.0549 v 0"
       style="fill:#c7c7c7;fill-opacity:1;stroke:#1b0202;stroke-width:0.01334935;stroke-miterlimit:4;stroke-dasharray:none;stroke-dashoffset:0;stroke-opacity:1;paint-order:normal" />
    <path
       style="fill:#c7c7c7;fill-opacity:1;stroke:#1b0202;stroke-width:0.01334935;stroke-miterlimit:4;stroke-dasharray:none;stroke-dashoffset:0;stroke-opacity:1;paint-order:normal"
       d="m 753.12773,621.5649 h 2.37784 l 0.27309,0.0549 0.22253,0.14979 0.1498,0.22254 0.0549,0.27308 v 2.20605 l -0.0549,0.27309 -0.1498,0.22253 -0.22253,0.1498 -0.27309,0.0549 h -2.37784 l -0.27309,-0.0549 -0.22253,-0.1498 -0.1498,-0.22253 -0.0549,-0.27309 v -2.20605 l 0.0549,-0.27308 0.1498,-0.22254 0.22253,-0.14979 0.27309,-0.0549 v 0"
       id="path2002"
       inkscape:connector-curvature="0" />
    <path
       style="fill:#c7c7c7;fill-opacity:1;stroke:#1b0202;stroke-width:0.01334935;stroke-miterlimit:4;stroke-dasharray:none;stroke-dashoffset:0;stroke-opacity:1;paint-order:normal"
       d="m 757.23355,621.66086 h 2.37784 l 0.27309,0.0548 0.22253,0.1498 0.1498,0.22254 0.0549,0.27308 v 2.20605 l -0.0549,0.27309 -0.1498,0.22254 -0.22253,0.14979 -0.27309,0.0549 h -2.37784 l -0.27309,-0.0549 -0.22253,-0.14979 -0.1498,-0.22254 -0.0549,-0.27309 v -2.20605 l 0.0549,-0.27308 0.1498,-0.22254 0.22253,-0.1498 0.27309,-0.0548 v 0"
       id="path2004"
       inkscape:connector-curvature="0" />
    <path
       inkscape:connector-curvature="0"
       id="path2006"
       d="m 744.88166,588.63002 h 2.37784 l 0.27309,0.0549 0.22253,0.14979 0.1498,0.22254 0.0549,0.27308 v 2.20606 l -0.0549,0.27308 -0.1498,0.22254 -0.22253,0.14979 -0.27309,0.0549 h -2.37784 l -0.27308,-0.0549 -0.22254,-0.14979 -0.14979,-0.22254 -0.0549,-0.27308 v -2.20606 l 0.0549,-0.27308 0.14979,-0.22254 0.22254,-0.14979 0.27308,-0.0549 v 0"
       style="fill:#c7c7c7;fill-opacity:1;stroke:#1b0202;stroke-width:0.01334935;stroke-miterlimit:4;stroke-dasharray:none;stroke-dashoffset:0;stroke-opacity:1;paint-order:normal" />
    <path
       style="fill:#c7c7c7;fill-opacity:1;stroke:#1b0202;stroke-width:0.01334935;stroke-miterlimit:4;stroke-dasharray:none;stroke-dashoffset:0;stroke-opacity:1;paint-order:normal"
       d="m 749.08466,588.63002 h 2.37784 l 0.27309,0.0549 0.22253,0.14979 0.1498,0.22254 0.0549,0.27308 v 2.20606 l -0.0549,0.27308 -0.1498,0.22254 -0.22253,0.14979 -0.27309,0.0549 h -2.37784 l -0.27308,-0.0549 -0.22254,-0.14979 -0.14979,-0.22254 -0.0549,-0.27308 v -2.20606 l 0.0549,-0.27308 0.14979,-0.22254 0.22254,-0.14979 0.27308,-0.0549 v 0"
       id="path2008"
       inkscape:connector-curvature="0" />
    <path
       sodipodi:nodetypes="cccccccccccccccccccccc"
       id="path2016"
       d="m 736.78097,577.02313 -0.0643,33.17964 -0.0707,0.2747 -0.18961,0.2239 -0.28039,0.15075 -0.34321,0.0553 -2.23763,6e-4 -0.34243,-0.0551 -0.27831,-0.1506 -0.18648,-0.2238 -0.0669,-0.27468 0.0643,-33.18031 0.0707,-0.0532 0.18961,-0.0825 0.28039,-0.0555 0.34321,-0.0891 2.23763,-6.5e-4 0.34243,0.0895 0.27831,0.0555 0.18648,0.0825 0.0669,0.0532 v 0"
       style="fill:#c7c7c7;fill-opacity:1;stroke:#000000;stroke-width:0.06125271;stroke-miterlimit:4;stroke-dasharray:none;stroke-dashoffset:0;stroke-opacity:1;paint-order:markers stroke fill"
       inkscape:connector-curvature="0" />
    <path
       inkscape:connector-curvature="0"
       style="fill:#c7c7c7;fill-opacity:1;stroke:#000000;stroke-width:0.06437846;stroke-miterlimit:4;stroke-dasharray:none;stroke-dashoffset:0;stroke-opacity:1;paint-order:markers stroke fill"
       d="m 736.75881,620.13508 -0.0643,36.68058 -0.0707,0.30369 -0.18945,0.24752 -0.28019,0.16666 -0.34293,0.0611 -2.23592,6.8e-4 -0.34216,-0.0609 -0.27809,-0.16648 -0.18634,-0.24741 -0.0669,-0.30366 0.0643,-36.68133 0.0707,-0.0588 0.18945,-0.0912 0.28019,-0.0614 0.34293,-0.0985 2.23592,-7.2e-4 0.34216,0.0989 0.27809,0.0614 0.18634,0.0912 0.0669,0.0588 v 0"
       id="path2018"
       sodipodi:nodetypes="cccccccccccccccccccccc" />
    <path
       style="fill:#c7c7c7;fill-opacity:1;stroke:#1b0202;stroke-width:0.01334935;stroke-miterlimit:4;stroke-dasharray:none;stroke-dashoffset:0;stroke-opacity:1;paint-order:normal"
       d="m 761.58232,626.32668 h 2.37784 l 0.27309,0.0549 0.22253,0.14979 0.1498,0.22254 0.0549,0.27309 v 2.20605 l -0.0549,0.27308 -0.1498,0.22254 -0.22253,0.14979 -0.27309,0.0549 h -2.37784 l -0.27309,-0.0549 -0.22253,-0.14979 -0.1498,-0.22254 -0.0549,-0.27308 V 627.027 l 0.0549,-0.27309 0.1498,-0.22254 0.22253,-0.14979 0.27309,-0.0549 v 0"
       id="path2020"
       inkscape:connector-curvature="0" />
    <path
       style="fill:#c7c7c7;fill-opacity:1;stroke:#1b0202;stroke-width:0.01334935;stroke-miterlimit:4;stroke-dasharray:none;stroke-dashoffset:0;stroke-opacity:1;paint-order:normal"
       d="m 765.68814,626.42264 h 2.37784 l 0.27309,0.0549 0.22253,0.14979 0.1498,0.22254 0.0549,0.27308 v 2.20606 l -0.0549,0.27308 -0.1498,0.22254 -0.22253,0.14979 -0.27309,0.0549 h -2.37784 l -0.27308,-0.0549 -0.22254,-0.14979 -0.1498,-0.22254 -0.0549,-0.27308 v -2.20606 l 0.0549,-0.27308 0.1498,-0.22254 0.22254,-0.14979 0.27308,-0.0549 v 0"
       id="path2022"
       inkscape:connector-curvature="0" />
    <path
       inkscape:connector-curvature="0"
       id="path2024"
       d="m 761.58232,621.5649 h 2.37784 l 0.27309,0.0549 0.22253,0.14979 0.1498,0.22254 0.0549,0.27308 v 2.20605 l -0.0549,0.27309 -0.1498,0.22253 -0.22253,0.1498 -0.27309,0.0549 h -2.37784 l -0.27309,-0.0549 -0.22253,-0.1498 -0.1498,-0.22253 -0.0549,-0.27309 v -2.20605 l 0.0549,-0.27308 0.1498,-0.22254 0.22253,-0.14979 0.27309,-0.0549 v 0"
       style="fill:#c7c7c7;fill-opacity:1;stroke:#1b0202;stroke-width:0.01334935;stroke-miterlimit:4;stroke-dasharray:none;stroke-dashoffset:0;stroke-opacity:1;paint-order:normal" />
    <path
       inkscape:connector-curvature="0"
       id="path2026"
       d="m 765.68814,621.66086 h 2.37784 l 0.27309,0.0548 0.22253,0.1498 0.1498,0.22254 0.0549,0.27308 v 2.20605 l -0.0549,0.27309 -0.1498,0.22254 -0.22253,0.14979 -0.27309,0.0549 h -2.37784 l -0.27308,-0.0549 -0.22254,-0.14979 -0.1498,-0.22254 -0.0549,-0.27309 v -2.20605 l 0.0549,-0.27308 0.1498,-0.22254 0.22254,-0.1498 0.27308,-0.0548 v 0"
       style="fill:#c7c7c7;fill-opacity:1;stroke:#1b0202;stroke-width:0.01334935;stroke-miterlimit:4;stroke-dasharray:none;stroke-dashoffset:0;stroke-opacity:1;paint-order:normal" />
    <path
       inkscape:connector-curvature="0"
       style="fill:#c7c7c7;fill-opacity:1;stroke:#000000;stroke-width:0.06245324;stroke-miterlimit:4;stroke-dasharray:none;stroke-dashoffset:0;stroke-opacity:1;paint-order:markers stroke fill"
       d="m 660.50793,576.50986 34.50367,0.0643 0.28567,0.0707 0.23283,0.18954 0.15676,0.28031 0.0575,0.34309 7.5e-4,2.23695 -0.0573,0.34233 -0.15672,0.27822 -0.23273,0.18642 -0.28563,0.0669 -34.50437,-0.0643 -0.0553,-0.0707 -0.0858,-0.18953 -0.0578,-0.28032 -0.0927,-0.34309 -6.9e-4,-2.23695 0.093,-0.34232 0.0578,-0.27822 0.0858,-0.18642 0.0553,-0.0669 v 0"
       id="path1942-3"
       sodipodi:nodetypes="cccccccccccccccccccccc" />
    <path
       inkscape:connector-curvature="0"
       style="fill:#c7c7c7;fill-opacity:1;stroke:#000000;stroke-width:0.06278092;stroke-miterlimit:4;stroke-dasharray:none;stroke-dashoffset:0;stroke-opacity:1;paint-order:markers stroke fill"
       d="m 696.58814,576.63836 34.86958,0.0643 0.28871,0.0707 0.23529,0.18952 0.15843,0.28029 0.0581,0.34306 7.6e-4,2.23676 -0.0579,0.34231 -0.15839,0.27819 -0.23519,0.1864 -0.28866,0.0669 -34.87031,-0.0643 -0.0559,-0.0707 -0.0867,-0.18951 -0.0583,-0.2803 -0.0936,-0.34306 -6.9e-4,-2.23676 0.094,-0.3423 0.0583,-0.27819 0.0867,-0.18642 0.0559,-0.0669 v 0"
       id="path1942-3-6"
       sodipodi:nodetypes="cccccccccccccccccccccc" />
    <path
       inkscape:connector-curvature="0"
       style="fill:#c7c7c7;fill-opacity:1;stroke:#000000;stroke-width:0.06244291;stroke-miterlimit:4;stroke-dasharray:none;stroke-dashoffset:0;stroke-opacity:1;paint-order:markers stroke fill"
       d="m 660.84191,653.28035 34.4922,0.0643 0.28558,0.0707 0.23275,0.18955 0.15671,0.28031 0.0575,0.34309 7.5e-4,2.23695 -0.0573,0.34233 -0.15667,0.27822 -0.23265,0.18642 -0.28553,0.0669 -34.49292,-0.0643 -0.0553,-0.0707 -0.0858,-0.18954 -0.0577,-0.28032 -0.0926,-0.34309 -6.9e-4,-2.23695 0.093,-0.34232 0.0577,-0.27822 0.0858,-0.18643 0.0553,-0.0669 v 0"
       id="path1942-3-7"
       sodipodi:nodetypes="cccccccccccccccccccccc" />
    <path
       inkscape:connector-curvature="0"
       style="fill:#c7c7c7;fill-opacity:1;stroke:#000000;stroke-width:0.06244291;stroke-miterlimit:4;stroke-dasharray:none;stroke-dashoffset:0;stroke-opacity:1;paint-order:markers stroke fill"
       d="m 696.90687,653.40868 34.49221,0.0643 0.28558,0.0707 0.23275,0.18955 0.15671,0.28031 0.0575,0.34309 7.5e-4,2.23695 -0.0573,0.34233 -0.15667,0.27822 -0.23265,0.18642 -0.28553,0.0669 -34.49292,-0.0643 -0.0553,-0.0707 -0.0858,-0.18954 -0.0577,-0.28032 -0.0926,-0.34309 -7.5e-4,-2.23695 0.093,-0.34232 0.0577,-0.27822 0.0858,-0.18643 0.0553,-0.0669 v 0"
       id="path1942-3-6-5"
       sodipodi:nodetypes="cccccccccccccccccccccc" />
    <path
       inkscape:connector-curvature="0"
       style="fill:#c7c7c7;fill-opacity:1;stroke:#000000;stroke-width:0.06437846;stroke-miterlimit:4;stroke-dasharray:none;stroke-dashoffset:0;stroke-opacity:1;paint-order:markers stroke fill"
       d="m 737.90182,576.91174 36.68062,0.0643 0.3037,0.0707 0.24752,0.18946 0.16665,0.28018 0.0611,0.34293 8e-4,2.23592 -0.0609,0.34217 -0.16661,0.27809 -0.24741,0.18633 -0.30365,0.0669 -36.68138,-0.0643 -0.0588,-0.0707 -0.0912,-0.18945 -0.0614,-0.28019 -0.0985,-0.34293 -7.3e-4,-2.23592 0.0989,-0.34216 0.0614,-0.27809 0.0912,-0.18634 0.0588,-0.0669 v 0"
       id="path1942-3-3"
       sodipodi:nodetypes="cccccccccccccccccccccc" />
    <path
       inkscape:connector-curvature="0"
       style="fill:#c7c7c7;fill-opacity:1;stroke:#000000;stroke-width:0.06636255;stroke-miterlimit:4;stroke-dasharray:none;stroke-dashoffset:0;stroke-opacity:1;paint-order:markers stroke fill"
       d="m 780.16355,577.25693 -0.0643,38.99541 -0.0707,0.32287 -0.18937,0.26313 -0.28005,0.17717 -0.34276,0.065 -2.23484,8.4e-4 -0.342,-0.0648 -0.27795,-0.177 -0.18623,-0.26302 -0.0669,-0.3228 0.0643,-38.99622 0.0707,-0.0625 0.18937,-0.0969 0.28006,-0.0652 0.34276,-0.10472 2.23483,-7.7e-4 0.34199,0.10514 0.27795,0.0652 0.18625,0.097 0.0669,0.0625 v 0"
       id="path1942-5"
       sodipodi:nodetypes="cccccccccccccccccccccc" />
    <path
       sodipodi:nodetypes="cccccccccccccccccccccc"
       id="path1944-6"
       d="m 780.14323,618.08603 -0.0643,38.34705 -0.0707,0.31749 -0.18939,0.25876 -0.28009,0.17423 -0.34281,0.0639 -2.23513,8.4e-4 -0.34204,-0.0637 -0.27799,-0.17403 -0.18628,-0.25865 -0.0669,-0.31747 0.0643,-38.34783 0.0707,-0.0615 0.18938,-0.0953 0.28009,-0.0642 0.34281,-0.10297 2.23514,-8.4e-4 0.34205,0.10339 0.27799,0.0642 0.18626,0.0953 0.0669,0.0615 v 0"
       style="fill:#c7c7c7;fill-opacity:1;stroke:#000000;stroke-width:0.06581302;stroke-miterlimit:4;stroke-dasharray:none;stroke-dashoffset:0;stroke-opacity:1;paint-order:markers stroke fill"
       inkscape:connector-curvature="0" />
    <path
       style="fill:#c7c7c7;fill-opacity:1;stroke:#1b0202;stroke-width:0.01334935;stroke-miterlimit:4;stroke-dasharray:none;stroke-dashoffset:0;stroke-opacity:1;paint-order:normal"
       d="m 744.01076,642.30923 h 2.37787 l 0.27308,0.0549 0.22254,0.14979 0.14979,0.22254 0.0549,0.27309 v 2.20605 l -0.0549,0.27309 -0.14979,0.22253 -0.22254,0.14979 -0.27308,0.0549 h -2.37787 l -0.27309,-0.0549 -0.22253,-0.14979 -0.1498,-0.22253 -0.0549,-0.27309 v -2.20609 l 0.0549,-0.27309 0.1498,-0.22254 0.22253,-0.14979 0.27309,-0.0549 v 0"
       id="path1966-2"
       inkscape:connector-curvature="0" />
    <path
       style="fill:#c7c7c7;fill-opacity:1;stroke:#1b0202;stroke-width:0.01334935;stroke-miterlimit:4;stroke-dasharray:none;stroke-dashoffset:0;stroke-opacity:1;paint-order:normal"
       d="m 748.28497,642.40519 h 2.37784 l 0.27309,0.0549 0.22253,0.14979 0.1498,0.22254 0.0549,0.27309 v 2.20605 l -0.0549,0.27308 -0.1498,0.22254 -0.22253,0.14979 -0.27309,0.0549 h -2.37784 l -0.27308,-0.0549 -0.22254,-0.14979 -0.1498,-0.22254 -0.0549,-0.27308 v -2.20605 l 0.0549,-0.27309 0.1498,-0.22254 0.22254,-0.14979 0.27308,-0.0549 v 0"
       id="path1968-9"
       inkscape:connector-curvature="0" />
    <path
       inkscape:connector-curvature="0"
       id="path1970-1"
       d="m 752.66847,642.50359 h 2.37784 l 0.27309,0.0549 0.22253,0.14979 0.1498,0.22254 0.0549,0.27309 v 2.20605 l -0.0549,0.27308 -0.1498,0.22254 -0.22253,0.14979 -0.27309,0.0549 h -2.37784 l -0.27309,-0.0549 -0.22253,-0.14979 -0.1498,-0.22254 -0.0549,-0.27308 v -2.20605 l 0.0549,-0.27309 0.1498,-0.22254 0.22253,-0.14979 0.27309,-0.0549 v 0"
       style="fill:#c7c7c7;fill-opacity:1;stroke:#1b0202;stroke-width:0.01334935;stroke-miterlimit:4;stroke-dasharray:none;stroke-dashoffset:0;stroke-opacity:1;paint-order:normal" />
    <path
       inkscape:connector-curvature="0"
       id="path1972-2"
       d="m 756.77429,642.59955 h 2.37784 l 0.27309,0.0549 0.22253,0.14979 0.1498,0.22254 0.0549,0.27308 v 2.20606 l -0.0549,0.27308 -0.1498,0.22254 -0.22253,0.14979 -0.27309,0.0549 h -2.37784 l -0.27309,-0.0549 -0.22253,-0.14979 -0.1498,-0.22254 -0.0549,-0.27308 v -2.20606 l 0.0549,-0.27308 0.1498,-0.22254 0.22253,-0.14979 0.27309,-0.0549 v 0"
       style="fill:#c7c7c7;fill-opacity:1;stroke:#1b0202;stroke-width:0.01334935;stroke-miterlimit:4;stroke-dasharray:none;stroke-dashoffset:0;stroke-opacity:1;paint-order:normal" />
    <path
       inkscape:connector-curvature="0"
       id="path1998-7"
       d="m 744.01076,637.54744 h 2.37787 l 0.27308,0.0549 0.22254,0.14979 0.14979,0.22254 0.0549,0.27308 v 2.20606 l -0.0549,0.27308 -0.14979,0.22254 -0.22254,0.14979 -0.27308,0.0549 h -2.37787 l -0.27309,-0.0549 -0.22253,-0.14979 -0.1498,-0.22254 -0.0549,-0.27308 v -2.20606 l 0.0549,-0.27308 0.1498,-0.22254 0.22253,-0.14979 0.27309,-0.0549 v 0"
       style="fill:#c7c7c7;fill-opacity:1;stroke:#1b0202;stroke-width:0.01334935;stroke-miterlimit:4;stroke-dasharray:none;stroke-dashoffset:0;stroke-opacity:1;paint-order:normal" />
    <path
       inkscape:connector-curvature="0"
       id="path2000-0"
       d="m 748.28497,637.6434 h 2.37784 l 0.27309,0.0549 0.22253,0.14979 0.1498,0.22254 0.0549,0.27308 v 2.20606 l -0.0549,0.27308 -0.1498,0.22253 -0.22253,0.1498 -0.27309,0.0549 h -2.37784 l -0.27308,-0.0549 -0.22254,-0.1498 -0.1498,-0.22253 -0.0549,-0.27308 v -2.20606 l 0.0549,-0.27308 0.1498,-0.22254 0.22254,-0.14979 0.27308,-0.0549 v 0"
       style="fill:#c7c7c7;fill-opacity:1;stroke:#1b0202;stroke-width:0.01334935;stroke-miterlimit:4;stroke-dasharray:none;stroke-dashoffset:0;stroke-opacity:1;paint-order:normal" />
    <path
       style="fill:#c7c7c7;fill-opacity:1;stroke:#1b0202;stroke-width:0.01334935;stroke-miterlimit:4;stroke-dasharray:none;stroke-dashoffset:0;stroke-opacity:1;paint-order:normal"
       d="m 752.66847,637.74181 h 2.37784 l 0.27309,0.0549 0.22253,0.14979 0.1498,0.22254 0.0549,0.27308 v 2.20605 l -0.0549,0.27309 -0.1498,0.22253 -0.22253,0.1498 -0.27309,0.0549 h -2.37784 l -0.27309,-0.0549 -0.22253,-0.1498 -0.1498,-0.22253 -0.0549,-0.27309 v -2.20605 l 0.0549,-0.27308 0.1498,-0.22254 0.22253,-0.14979 0.27309,-0.0549 v 0"
       id="path2002-9"
       inkscape:connector-curvature="0" />
    <path
       style="fill:#c7c7c7;fill-opacity:1;stroke:#1b0202;stroke-width:0.01334935;stroke-miterlimit:4;stroke-dasharray:none;stroke-dashoffset:0;stroke-opacity:1;paint-order:normal"
       d="m 756.77429,637.83777 h 2.37784 l 0.27309,0.0548 0.22253,0.1498 0.1498,0.22254 0.0549,0.27308 v 2.20605 l -0.0549,0.27309 -0.1498,0.22254 -0.22253,0.14979 -0.27309,0.0549 h -2.37784 l -0.27309,-0.0549 -0.22253,-0.14979 -0.1498,-0.22254 -0.0549,-0.27309 v -2.20605 l 0.0549,-0.27308 0.1498,-0.22254 0.22253,-0.1498 0.27309,-0.0548 v 0"
       id="path2004-3"
       inkscape:connector-curvature="0" />
    <path
       style="fill:#c7c7c7;fill-opacity:1;stroke:#1b0202;stroke-width:0.01334935;stroke-miterlimit:4;stroke-dasharray:none;stroke-dashoffset:0;stroke-opacity:1;paint-order:normal"
       d="m 761.12306,642.50359 h 2.37784 l 0.27309,0.0549 0.22253,0.14979 0.1498,0.22254 0.0549,0.27309 v 2.20605 l -0.0549,0.27308 -0.1498,0.22254 -0.22253,0.14979 -0.27309,0.0549 h -2.37784 l -0.27309,-0.0549 -0.22253,-0.14979 -0.1498,-0.22254 -0.0549,-0.27308 v -2.20605 l 0.0549,-0.27309 0.1498,-0.22254 0.22253,-0.14979 0.27309,-0.0549 v 0"
       id="path2020-6"
       inkscape:connector-curvature="0" />
    <path
       style="fill:#c7c7c7;fill-opacity:1;stroke:#1b0202;stroke-width:0.01334935;stroke-miterlimit:4;stroke-dasharray:none;stroke-dashoffset:0;stroke-opacity:1;paint-order:normal"
       d="m 765.22888,642.59955 h 2.37784 l 0.27309,0.0549 0.22253,0.14979 0.14981,0.22254 0.0549,0.27308 v 2.20606 l -0.0549,0.27308 -0.14981,0.22254 -0.22253,0.14979 -0.27309,0.0549 h -2.37784 l -0.27307,-0.0549 -0.22254,-0.14979 -0.14981,-0.22254 -0.0549,-0.27308 v -2.20606 l 0.0549,-0.27308 0.14981,-0.22254 0.22254,-0.14979 0.27307,-0.0549 v 0"
       id="path2022-0"
       inkscape:connector-curvature="0" />
    <path
       inkscape:connector-curvature="0"
       id="path2024-6"
       d="m 761.12306,637.74181 h 2.37784 l 0.27309,0.0549 0.22253,0.14979 0.1498,0.22254 0.0549,0.27308 v 2.20605 l -0.0549,0.27309 -0.1498,0.22253 -0.22253,0.1498 -0.27309,0.0549 h -2.37784 l -0.27309,-0.0549 -0.22253,-0.1498 -0.1498,-0.22253 -0.0549,-0.27309 v -2.20605 l 0.0549,-0.27308 0.1498,-0.22254 0.22253,-0.14979 0.27309,-0.0549 v 0"
       style="fill:#c7c7c7;fill-opacity:1;stroke:#1b0202;stroke-width:0.01334935;stroke-miterlimit:4;stroke-dasharray:none;stroke-dashoffset:0;stroke-opacity:1;paint-order:normal" />
    <path
       inkscape:connector-curvature="0"
       id="path2026-2"
       d="m 765.22888,637.83777 h 2.37784 l 0.27309,0.0548 0.22253,0.1498 0.14981,0.22254 0.0549,0.27308 v 2.20605 l -0.0549,0.27309 -0.14981,0.22254 -0.22253,0.14979 -0.27309,0.0549 h -2.37784 l -0.27307,-0.0549 -0.22254,-0.14979 -0.14981,-0.22254 -0.0549,-0.27309 v -2.20605 l 0.0549,-0.27308 0.14981,-0.22254 0.22254,-0.1498 0.27307,-0.0548 v 0"
       style="fill:#c7c7c7;fill-opacity:1;stroke:#1b0202;stroke-width:0.01334935;stroke-miterlimit:4;stroke-dasharray:none;stroke-dashoffset:0;stroke-opacity:1;paint-order:normal" />
    <path
       inkscape:connector-curvature="0"
       style="fill:#c7c7c7;fill-opacity:1;stroke:#000000;stroke-width:0.06437846;stroke-miterlimit:4;stroke-dasharray:none;stroke-dashoffset:0;stroke-opacity:1;paint-order:markers stroke fill"
       d="m 737.90182,653.21182 36.68062,0.0643 0.3037,0.0707 0.24752,0.18946 0.16665,0.28018 0.0611,0.34293 7.9e-4,2.23592 -0.0609,0.34217 -0.16661,0.27809 -0.24741,0.18633 -0.30365,0.0669 -36.68137,-0.0643 -0.0588,-0.0707 -0.0912,-0.18945 -0.0614,-0.28019 -0.0985,-0.34293 -7.3e-4,-2.23592 0.0989,-0.34216 0.0614,-0.27809 0.0912,-0.18634 0.0588,-0.0669 v 0"
       id="path1942-3-3-6"
       sodipodi:nodetypes="cccccccccccccccccccccc" />
  </g>
</svg>
