<?xml version="1.0" encoding="UTF-8" standalone="no"?>
<!-- Created with Inkscape (http://www.inkscape.org/) -->

<svg
   xmlns:dc="http://purl.org/dc/elements/1.1/"
   xmlns:cc="http://creativecommons.org/ns#"
   xmlns:rdf="http://www.w3.org/1999/02/22-rdf-syntax-ns#"
   xmlns:svg="http://www.w3.org/2000/svg"
   xmlns="http://www.w3.org/2000/svg"
   xmlns:sodipodi="http://sodipodi.sourceforge.net/DTD/sodipodi-0.dtd"
   xmlns:inkscape="http://www.inkscape.org/namespaces/inkscape"
   width="1887.1837mm"
   height="1770.5471mm"
   viewBox="0 0 1887.1837 1770.5471"
   version="1.1"
   id="svg8"
   inkscape:version="0.92.3 (2405546, 2018-03-11)"
   sodipodi:docname="warehouse.svg">
  <sodipodi:namedview
     id="base"
     pagecolor="#ffffff"
     bordercolor="#666666"
     borderopacity="1.0"
     inkscape:pageopacity="0.0"
     inkscape:pageshadow="2"
     inkscape:zoom="0.12374369"
     inkscape:cx="5639.6239"
     inkscape:cy="3471.6838"
     inkscape:document-units="mm"
     inkscape:current-layer="layer1"
     showgrid="false"
     inkscape:window-width="2493"
     inkscape:window-height="1385"
     inkscape:window-x="2627"
     inkscape:window-y="27"
     inkscape:window-maximized="1"
     fit-margin-top="0"
     fit-margin-left="0"
     fit-margin-right="0"
     fit-margin-bottom="0"
     inkscape:snap-nodes="false"
     inkscape:snap-global="false" />
  <defs
     id="defs2" />
  <metadata
     id="metadata5">
    <rdf:RDF>
      <cc:Work
         rdf:about="">
        <dc:format>image/svg+xml</dc:format>
        <dc:type
           rdf:resource="http://purl.org/dc/dcmitype/StillImage" />
        <dc:title></dc:title>
      </cc:Work>
    </rdf:RDF>
  </metadata>
  <g
     transform="translate(244.98929,267.72986)"
     inkscape:label="Layer 1"
     inkscape:groupmode="layer"
     id="layer1">
    <path
       id="path1024"
       d="m 250.90611,219.6807 -3.53883,718.89737 -3.89509,21.384 -10.43343,17.4282 -15.43035,11.73456 -18.88581,4.30302 -123.135756,0.0475 -18.84356,-4.28854 -15.31492,-11.72286 -10.26188,-17.42029 -3.68459,-21.38107 3.53878,-718.89749 3.8951,-21.3839 10.43342,-17.4284 15.43036,-11.7345 18.8858,-4.3028 123.135806,-0.047 18.84352,4.2883 15.31492,11.7231 10.26191,17.4204 3.6846,21.381 v 0"
       style="fill:#c7c7c7;fill-opacity:1;stroke:#000000;stroke-width:2.23986673;stroke-miterlimit:4;stroke-dasharray:none;stroke-dashoffset:0;stroke-opacity:1;paint-order:markers stroke fill"
       inkscape:connector-curvature="0" />
    <path
       id="rect1592"
       d="m 55.046111,-18.520021 h 52.317739 l 6.0085,1.207093 4.89626,3.295794 3.2958,4.8962645 1.20709,6.0085047 V 45.425609 l -1.20709,6.008504 -3.2958,4.896264 -4.89626,3.295794 -6.0085,1.207094 H 55.046111 L 49.037606,59.626171 44.141342,56.330377 40.845548,51.434113 39.638454,45.425609 V -3.1123648 l 1.207094,-6.0085047 3.295794,-4.8962645 4.896264,-3.295794 6.008505,-1.207093 v 0"
       style="fill:#c7c7c7;fill-opacity:1;stroke:#1b0202;stroke-width:0.29371506;stroke-miterlimit:4;stroke-dasharray:none;stroke-dashoffset:0;stroke-opacity:1;paint-order:normal"
       inkscape:connector-curvature="0" />
    <path
       style="fill:#c7c7c7;fill-opacity:1;stroke:#1b0202;stroke-width:0.29371506;stroke-miterlimit:4;stroke-dasharray:none;stroke-dashoffset:0;stroke-opacity:1;paint-order:normal"
       d="m 55.046111,-102.97719 h 52.317739 l 6.0085,1.20709 4.89626,3.295796 3.2958,4.89626 1.20709,6.008504 v 48.537978 l -1.20709,6.008504 -3.2958,4.896264 -4.89626,3.295794 -6.0085,1.207094 H 55.046111 l -6.008505,-1.207094 -4.896264,-3.295794 -3.295794,-4.896264 -1.207094,-6.008504 V -87.56954 l 1.207094,-6.008504 3.295794,-4.89626 4.896264,-3.295796 6.008505,-1.20709 v 0"
       id="path1856"
       inkscape:connector-curvature="0" />
    <path
       inkscape:connector-curvature="0"
       id="path1858"
       d="m 56.115189,-267.583 h 52.317741 l 6.0085,1.20709 4.89626,3.2958 3.2958,4.89626 1.20709,6.0085 v 48.53797 l -1.20709,6.00851 -3.2958,4.89626 -4.89626,3.2958 -6.0085,1.20709 H 56.115189 l -6.008505,-1.20709 -4.896264,-3.2958 -3.295794,-4.89626 -1.207094,-6.00851 v -48.53797 l 1.207094,-6.0085 3.295794,-4.89626 4.896264,-3.2958 6.008505,-1.20709 v 0"
       style="fill:#c7c7c7;fill-opacity:1;stroke:#1b0202;stroke-width:0.29371506;stroke-miterlimit:4;stroke-dasharray:none;stroke-dashoffset:0;stroke-opacity:1;paint-order:normal" />
    <path
       style="fill:#c7c7c7;fill-opacity:1;stroke:#1b0202;stroke-width:0.29371506;stroke-miterlimit:4;stroke-dasharray:none;stroke-dashoffset:0;stroke-opacity:1;paint-order:normal"
       d="m 146.45229,-267.583 h 52.31774 l 6.0085,1.20709 4.89626,3.2958 3.2958,4.89626 1.20709,6.0085 v 48.53797 l -1.20709,6.00851 -3.2958,4.89626 -4.89626,3.2958 -6.0085,1.20709 h -52.31774 l -6.0085,-1.20709 -4.89627,-3.2958 -3.29579,-4.89626 -1.2071,-6.00851 v -48.53797 l 1.2071,-6.0085 3.29579,-4.89626 4.89627,-3.2958 6.0085,-1.20709 v 0"
       id="path1860"
       inkscape:connector-curvature="0" />
    <path
       inkscape:connector-curvature="0"
       id="path1862"
       d="m 238.92755,-267.583 h 52.31774 l 6.0085,1.20709 4.89626,3.2958 3.2958,4.89626 1.20709,6.0085 v 48.53797 l -1.20709,6.00851 -3.2958,4.89626 -4.89626,3.2958 -6.0085,1.20709 h -52.31774 l -6.0085,-1.20709 -4.89627,-3.2958 -3.29579,-4.89626 -1.2071,-6.00851 v -48.53797 l 1.2071,-6.0085 3.29579,-4.89626 4.89627,-3.2958 6.0085,-1.20709 v 0"
       style="fill:#c7c7c7;fill-opacity:1;stroke:#1b0202;stroke-width:0.29371506;stroke-miterlimit:4;stroke-dasharray:none;stroke-dashoffset:0;stroke-opacity:1;paint-order:normal" />
    <path
       style="fill:#c7c7c7;fill-opacity:1;stroke:#1b0202;stroke-width:0.29371506;stroke-miterlimit:4;stroke-dasharray:none;stroke-dashoffset:0;stroke-opacity:1;paint-order:normal"
       d="m 171.49704,-108.847 52.21039,3.34983 5.91888,1.58933 4.67519,3.60253 2.97554,5.097242 0.8199,6.07346 -3.10782,48.438373 -1.58933,5.918893 -3.60253,4.675188 -5.09724,2.975537 -6.07346,0.819898 -52.21039,-3.349825 -5.91888,-1.589328 -4.6752,-3.602538 -2.97553,-5.097238 -0.8199,-6.07347 3.10781,-48.438373 1.58934,-5.918879 3.60252,-4.67519 5.09725,-2.97554 6.07346,-0.8199 v 0"
       id="path1864"
       inkscape:connector-curvature="0" />
    <path
       inkscape:connector-curvature="0"
       id="path1866"
       d="m 168.7844,-11.66721 52.31058,-0.865805 6.02765,1.107492 4.95013,3.2143133 3.37638,4.8410507 1.30637,5.9877018 0.80325,48.5313222 -1.10749,6.027664 -3.21432,4.950131 -4.84105,3.376377 -5.9877,1.306359 -52.31058,0.86581 -6.02765,-1.10749 -4.95014,-3.21432 -3.37637,-4.841047 -1.30636,-5.987712 -0.80326,-48.5313213 1.1075,-6.0276507 3.2143,-4.9501327 4.84106,-3.3763813 5.9877,-1.306361 v 0"
       style="fill:#c7c7c7;fill-opacity:1;stroke:#1b0202;stroke-width:0.29371506;stroke-miterlimit:4;stroke-dasharray:none;stroke-dashoffset:0;stroke-opacity:1;paint-order:normal" />
    <path
       inkscape:connector-curvature="0"
       id="path1868"
       d="m 329.26465,-265.4717 h 52.31774 l 6.0085,1.20709 4.89626,3.2958 3.2958,4.89626 1.20709,6.0085 v 48.53798 l -1.20709,6.0085 -3.2958,4.89627 -4.89626,3.29579 -6.0085,1.2071 h -52.31774 l -6.00851,-1.2071 -4.89626,-3.29579 -3.29579,-4.89627 -1.2071,-6.0085 v -48.53798 l 1.2071,-6.0085 3.29579,-4.89626 4.89626,-3.2958 6.00851,-1.20709 v 0"
       style="fill:#c7c7c7;fill-opacity:1;stroke:#1b0202;stroke-width:0.29371506;stroke-miterlimit:4;stroke-dasharray:none;stroke-dashoffset:0;stroke-opacity:1;paint-order:normal" />
    <path
       inkscape:connector-curvature="0"
       style="fill:#c7c7c7;fill-opacity:1;stroke:#000000;stroke-width:2.23986673;stroke-miterlimit:4;stroke-dasharray:none;stroke-dashoffset:0;stroke-opacity:1;paint-order:markers stroke fill"
       d="m 612.25451,219.6807 -3.53883,718.89737 -3.89509,21.384 -10.43343,17.4282 -15.43035,11.73456 -18.88581,4.30302 -123.13576,0.0475 -18.84356,-4.28854 -15.31492,-11.72286 -10.26188,-17.42029 -3.68459,-21.38107 3.53878,-718.89749 3.8951,-21.3839 10.43342,-17.4284 15.43036,-11.7345 18.8858,-4.3028 123.13581,-0.047 18.84352,4.2883 15.31492,11.7231 10.26191,17.4204 3.6846,21.381 v 0"
       id="path1870" />
    <path
       id="path1872"
       d="m 980.48212,219.6807 -3.53883,718.89737 -3.89509,21.384 -10.43343,17.4282 -15.43035,11.73456 -18.88581,4.30302 -123.13576,0.0475 -18.84356,-4.28854 -15.31492,-11.72286 -10.26188,-17.42029 -3.68459,-21.38107 3.53878,-718.89749 3.8951,-21.3839 10.43342,-17.4284 15.43036,-11.7345 18.8858,-4.3028 123.13581,-0.047 18.84352,4.2883 15.31492,11.7231 10.26191,17.4204 3.6846,21.381 v 0"
       style="fill:#c7c7c7;fill-opacity:1;stroke:#000000;stroke-width:2.23986673;stroke-miterlimit:4;stroke-dasharray:none;stroke-dashoffset:0;stroke-opacity:1;paint-order:markers stroke fill"
       inkscape:connector-curvature="0" />
    <path
       style="fill:#c7c7c7;fill-opacity:1;stroke:#1b0202;stroke-width:0.29371506;stroke-miterlimit:4;stroke-dasharray:none;stroke-dashoffset:0;stroke-opacity:1;paint-order:normal"
       d="m 428.15437,-267.583 h 52.31774 l 6.0085,1.20709 4.89626,3.2958 3.2958,4.89626 1.20709,6.0085 v 48.53797 l -1.20709,6.00851 -3.2958,4.89626 -4.89626,3.2958 -6.0085,1.20709 h -52.31774 l -6.0085,-1.20709 -4.89627,-3.2958 -3.29579,-4.89626 -1.2071,-6.00851 v -48.53797 l 1.2071,-6.0085 3.29579,-4.89626 4.89627,-3.2958 6.0085,-1.20709 v 0"
       id="path1874"
       inkscape:connector-curvature="0" />
    <path
       inkscape:connector-curvature="0"
       id="path1876"
       d="m 518.49147,-267.583 h 52.31774 l 6.0085,1.20709 4.89626,3.2958 3.2958,4.89626 1.20709,6.0085 v 48.53797 l -1.20709,6.00851 -3.2958,4.89626 -4.89626,3.2958 -6.0085,1.20709 h -52.31774 l -6.0085,-1.20709 -4.89627,-3.2958 -3.29579,-4.89626 -1.2071,-6.00851 v -48.53797 l 1.2071,-6.0085 3.29579,-4.89626 4.89627,-3.2958 6.0085,-1.20709 v 0"
       style="fill:#c7c7c7;fill-opacity:1;stroke:#1b0202;stroke-width:0.29371506;stroke-miterlimit:4;stroke-dasharray:none;stroke-dashoffset:0;stroke-opacity:1;paint-order:normal" />
    <path
       style="fill:#c7c7c7;fill-opacity:1;stroke:#1b0202;stroke-width:0.29371506;stroke-miterlimit:4;stroke-dasharray:none;stroke-dashoffset:0;stroke-opacity:1;paint-order:normal"
       d="m 610.96673,-267.583 h 52.31774 l 6.0085,1.20709 4.89626,3.2958 3.2958,4.89626 1.20709,6.0085 v 48.53797 l -1.20709,6.00851 -3.2958,4.89626 -4.89626,3.2958 -6.0085,1.20709 h -52.31774 l -6.0085,-1.20709 -4.89627,-3.2958 -3.29579,-4.89626 -1.2071,-6.00851 v -48.53797 l 1.2071,-6.0085 3.29579,-4.89626 4.89627,-3.2958 6.0085,-1.20709 v 0"
       id="path1878"
       inkscape:connector-curvature="0" />
    <path
       style="fill:#c7c7c7;fill-opacity:1;stroke:#1b0202;stroke-width:0.29371506;stroke-miterlimit:4;stroke-dasharray:none;stroke-dashoffset:0;stroke-opacity:1;paint-order:normal"
       d="m 705.53719,-266.53004 h 52.31774 l 6.0085,1.20709 4.89626,3.2958 3.2958,4.89626 1.20709,6.0085 v 48.53798 l -1.20709,6.0085 -3.2958,4.89627 -4.89626,3.29579 -6.0085,1.2071 h -52.31774 l -6.00851,-1.2071 -4.89626,-3.29579 -3.29579,-4.89627 -1.2071,-6.0085 v -48.53798 l 1.2071,-6.0085 3.29579,-4.89626 4.89626,-3.2958 6.00851,-1.20709 v 0"
       id="path1880"
       inkscape:connector-curvature="0" />
    <path
       inkscape:connector-curvature="0"
       id="path1882"
       d="m 802.79645,-267.583 h 52.31774 l 6.0085,1.20709 4.89626,3.2958 3.2958,4.89626 1.20709,6.0085 v 48.53797 l -1.20709,6.00851 -3.2958,4.89626 -4.89626,3.2958 -6.0085,1.20709 h -52.31774 l -6.0085,-1.20709 -4.89627,-3.2958 -3.29579,-4.89626 -1.2071,-6.00851 v -48.53797 l 1.2071,-6.0085 3.29579,-4.89626 4.89627,-3.2958 6.0085,-1.20709 v 0"
       style="fill:#c7c7c7;fill-opacity:1;stroke:#1b0202;stroke-width:0.29371506;stroke-miterlimit:4;stroke-dasharray:none;stroke-dashoffset:0;stroke-opacity:1;paint-order:normal" />
    <path
       style="fill:#c7c7c7;fill-opacity:1;stroke:#1b0202;stroke-width:0.29371506;stroke-miterlimit:4;stroke-dasharray:none;stroke-dashoffset:0;stroke-opacity:1;paint-order:normal"
       d="m 895.25023,-267.583 h 52.31774 l 6.0085,1.20709 4.89626,3.2958 3.2958,4.89626 1.20709,6.0085 v 48.53797 l -1.20709,6.00851 -3.2958,4.89626 -4.89626,3.2958 -6.0085,1.20709 h -52.31774 l -6.0085,-1.20709 -4.89627,-3.2958 -3.29579,-4.89626 -1.2071,-6.00851 v -48.53797 l 1.2071,-6.0085 3.29579,-4.89626 4.89627,-3.2958 6.0085,-1.20709 v 0"
       id="path1884"
       inkscape:connector-curvature="0" />
    <path
       inkscape:connector-curvature="0"
       id="path1886"
       d="m 990.90051,-267.583 h 52.31839 l 6.0085,1.20709 4.8963,3.2958 3.2958,4.89626 1.2071,6.0085 v 48.53797 l -1.2071,6.00851 -3.2958,4.89626 -4.8963,3.2958 -6.0085,1.20709 h -52.31839 l -6.0085,-1.20709 -4.89627,-3.2958 -3.29579,-4.89626 -1.2071,-6.00851 v -48.53797 l 1.2071,-6.0085 3.29579,-4.89626 4.89627,-3.2958 6.0085,-1.20709 v 0"
       style="fill:#c7c7c7;fill-opacity:1;stroke:#1b0202;stroke-width:0.29371506;stroke-miterlimit:4;stroke-dasharray:none;stroke-dashoffset:0;stroke-opacity:1;paint-order:normal" />
    <path
       inkscape:connector-curvature="0"
       id="path1888"
       d="m 1084.9427,-265.4717 h 52.3177 l 6.0085,1.20709 4.8963,3.2958 3.2958,4.89626 1.2071,6.0085 v 48.53798 l -1.2071,6.0085 -3.2958,4.89627 -4.8963,3.29579 -6.0085,1.2071 h -52.3177 l -6.0085,-1.2071 -4.8963,-3.29579 -3.2958,-4.89627 -1.2071,-6.0085 v -48.53798 l 1.2071,-6.0085 3.2958,-4.89626 4.8963,-3.2958 6.0085,-1.20709 v 0"
       style="fill:#c7c7c7;fill-opacity:1;stroke:#1b0202;stroke-width:0.29371506;stroke-miterlimit:4;stroke-dasharray:none;stroke-dashoffset:0;stroke-opacity:1;paint-order:normal" />
    <path
       inkscape:connector-curvature="0"
       style="fill:#c7c7c7;fill-opacity:1;stroke:#000000;stroke-width:2.23986673;stroke-miterlimit:4;stroke-dasharray:none;stroke-dashoffset:0;stroke-opacity:1;paint-order:markers stroke fill"
       d="m 1362.2822,219.6807 -3.5388,718.89737 -3.8951,21.384 -10.4334,17.4282 -15.4304,11.73456 -18.8858,4.30302 -123.1358,0.0475 -18.8435,-4.28854 -15.3149,-11.72286 -10.2619,-17.42029 -3.6846,-21.38107 3.5388,-718.89749 3.8951,-21.3839 10.4334,-17.4284 15.4304,-11.7345 18.8858,-4.3028 123.1358,-0.047 18.8435,4.2883 15.3149,11.7231 10.2619,17.4204 3.6846,21.381 v 0"
       id="path1890" />
    <path
       style="fill:#c7c7c7;fill-opacity:1;stroke:#1b0202;stroke-width:0.29371506;stroke-miterlimit:4;stroke-dasharray:none;stroke-dashoffset:0;stroke-opacity:1;paint-order:normal"
       d="m 51.860365,1026.0015 h 52.317725 l 6.0085,1.2071 4.89626,3.2958 3.2958,4.8963 1.20709,6.0085 v 48.5379 l -1.20709,6.0085 -3.2958,4.8963 -4.89626,3.2958 -6.0085,1.2071 H 51.860365 l -6.008505,-1.2071 -4.896264,-3.2958 -3.295794,-4.8963 -1.207094,-6.0085 v -48.5379 l 1.207094,-6.0085 3.295794,-4.8963 4.896264,-3.2958 6.008505,-1.2071 v 0"
       id="path1892"
       inkscape:connector-curvature="0" />
    <path
       inkscape:connector-curvature="0"
       id="path1894"
       d="m 153.31002,1026.0015 h 52.31774 l 6.0085,1.2071 4.89626,3.2958 3.2958,4.8963 1.20709,6.0085 v 48.5379 l -1.20709,6.0085 -3.2958,4.8963 -4.89626,3.2958 -6.0085,1.2071 h -52.31774 l -6.0085,-1.2071 -4.89627,-3.2958 -3.29579,-4.8963 -1.2071,-6.0085 v -48.5379 l 1.2071,-6.0085 3.29579,-4.8963 4.89627,-3.2958 6.0085,-1.2071 v 0"
       style="fill:#c7c7c7;fill-opacity:1;stroke:#1b0202;stroke-width:0.29371506;stroke-miterlimit:4;stroke-dasharray:none;stroke-dashoffset:0;stroke-opacity:1;paint-order:normal" />
    <path
       inkscape:connector-curvature="0"
       id="path1896"
       d="m 423.89955,1026.0015 h 52.31772 l 6.0085,1.2071 4.89626,3.2958 3.2958,4.8963 1.20709,6.0085 v 48.5379 l -1.20709,6.0085 -3.2958,4.8963 -4.89626,3.2958 -6.0085,1.2071 h -52.31772 l -6.00851,-1.2071 -4.89626,-3.2958 -3.2958,-4.8963 -1.20709,-6.0085 v -48.5379 l 1.20709,-6.0085 3.2958,-4.8963 4.89626,-3.2958 6.00851,-1.2071 v 0"
       style="fill:#c7c7c7;fill-opacity:1;stroke:#1b0202;stroke-width:0.29371506;stroke-miterlimit:4;stroke-dasharray:none;stroke-dashoffset:0;stroke-opacity:1;paint-order:normal" />
    <path
       style="fill:#c7c7c7;fill-opacity:1;stroke:#1b0202;stroke-width:0.29371506;stroke-miterlimit:4;stroke-dasharray:none;stroke-dashoffset:0;stroke-opacity:1;paint-order:normal"
       d="m 525.3492,1026.0015 h 52.31774 l 6.0085,1.2071 4.89626,3.2958 3.2958,4.8963 1.20709,6.0085 v 48.5379 l -1.20709,6.0085 -3.2958,4.8963 -4.89626,3.2958 -6.0085,1.2071 H 525.3492 l -6.0085,-1.2071 -4.89627,-3.2958 -3.29579,-4.8963 -1.2071,-6.0085 v -48.5379 l 1.2071,-6.0085 3.29579,-4.8963 4.89627,-3.2958 6.0085,-1.2071 v 0"
       id="path1898"
       inkscape:connector-curvature="0" />
    <path
       style="fill:#c7c7c7;fill-opacity:1;stroke:#1b0202;stroke-width:0.29371506;stroke-miterlimit:4;stroke-dasharray:none;stroke-dashoffset:0;stroke-opacity:1;paint-order:normal"
       d="m 794.26532,1019.587 h 52.31772 l 6.0085,1.2071 4.89626,3.2958 3.2958,4.8963 1.20709,6.0085 v 48.5379 l -1.20709,6.0085 -3.2958,4.8963 -4.89626,3.2958 -6.0085,1.2071 h -52.31772 l -6.00851,-1.2071 -4.89626,-3.2958 -3.2958,-4.8963 -1.20709,-6.0085 v -48.5379 l 1.20709,-6.0085 3.2958,-4.8963 4.89626,-3.2958 6.00851,-1.2071 v 0"
       id="path1900"
       inkscape:connector-curvature="0" />
    <path
       inkscape:connector-curvature="0"
       id="path1902"
       d="m 893.57681,1026.0015 h 52.31774 l 6.0085,1.2071 4.89626,3.2958 3.2958,4.8963 1.20709,6.0085 v 48.5379 l -1.20709,6.0085 -3.2958,4.8963 -4.89626,3.2958 -6.0085,1.2071 h -52.31774 l -6.0085,-1.2071 -4.89627,-3.2958 -3.29579,-4.8963 -1.2071,-6.0085 v -48.5379 l 1.2071,-6.0085 3.29579,-4.8963 4.89627,-3.2958 6.0085,-1.2071 v 0"
       style="fill:#c7c7c7;fill-opacity:1;stroke:#1b0202;stroke-width:0.29371506;stroke-miterlimit:4;stroke-dasharray:none;stroke-dashoffset:0;stroke-opacity:1;paint-order:normal" />
    <path
       inkscape:connector-curvature="0"
       id="path1904"
       d="m 1171.7891,1028.1397 h 52.3177 l 6.0085,1.2071 4.8963,3.2958 3.2958,4.8963 1.2071,6.0085 v 48.5379 l -1.2071,6.0085 -3.2958,4.8963 -4.8963,3.2958 -6.0085,1.2071 h -52.3177 l -6.0085,-1.2071 -4.8963,-3.2958 -3.2958,-4.8963 -1.2071,-6.0085 v -48.5379 l 1.2071,-6.0085 3.2958,-4.8963 4.8963,-3.2958 6.0085,-1.2071 v 0"
       style="fill:#c7c7c7;fill-opacity:1;stroke:#1b0202;stroke-width:0.29371506;stroke-miterlimit:4;stroke-dasharray:none;stroke-dashoffset:0;stroke-opacity:1;paint-order:normal" />
    <path
       style="fill:#c7c7c7;fill-opacity:1;stroke:#1b0202;stroke-width:0.29371506;stroke-miterlimit:4;stroke-dasharray:none;stroke-dashoffset:0;stroke-opacity:1;paint-order:normal"
       d="m 1267.6781,1032.8759 51.4893,-9.2741 6.1273,0.1229 5.4029,2.3757 4.1115,4.2345 2.2531,5.6994 8.604,47.7692 -0.1229,6.1273 -2.3756,5.403 -4.2345,4.1115 -5.6993,2.2531 -51.4893,9.2741 -6.1273,-0.1229 -5.4029,-2.3757 -4.1115,-4.2345 -2.2531,-5.6994 -8.604,-47.7692 0.1229,-6.1273 2.3756,-5.403 4.2345,-4.1115 5.6993,-2.2531 v 0"
       id="path1906"
       inkscape:connector-curvature="0" />
    <path
       style="fill:#c7c7c7;fill-opacity:1;stroke:#1b0202;stroke-width:0.29371506;stroke-miterlimit:4;stroke-dasharray:none;stroke-dashoffset:0;stroke-opacity:1;paint-order:normal"
       d="m 412.1182,34.933884 h 52.31774 l 6.0085,1.207094 4.89626,3.295794 3.2958,4.896264 1.20709,6.008505 v 48.537973 l -1.20709,6.008506 -3.2958,4.89626 -4.89626,3.2958 -6.0085,1.20709 H 412.1182 l -6.00851,-1.20709 -4.89626,-3.2958 -3.29579,-4.89626 -1.2071,-6.008506 V 50.341541 l 1.2071,-6.008505 3.29579,-4.896264 4.89626,-3.295794 6.00851,-1.207094 v 0"
       id="path1908"
       inkscape:connector-curvature="0" />
    <path
       inkscape:connector-curvature="0"
       id="path1910"
       d="m 412.1182,-49.523285 h 52.31774 l 6.0085,1.20709 4.89626,3.295796 3.2958,4.89626 1.20709,6.008504 v 48.537978 l -1.20709,6.008504 -3.2958,4.896264 -4.89626,3.295794 -6.0085,1.207094 H 412.1182 l -6.00851,-1.207094 -4.89626,-3.295794 -3.29579,-4.896264 -1.2071,-6.008504 v -48.537978 l 1.2071,-6.008504 3.29579,-4.89626 4.89626,-3.295796 6.00851,-1.20709 v 0"
       style="fill:#c7c7c7;fill-opacity:1;stroke:#1b0202;stroke-width:0.29371506;stroke-miterlimit:4;stroke-dasharray:none;stroke-dashoffset:0;stroke-opacity:1;paint-order:normal" />
    <path
       style="fill:#c7c7c7;fill-opacity:1;stroke:#1b0202;stroke-width:0.29371506;stroke-miterlimit:4;stroke-dasharray:none;stroke-dashoffset:0;stroke-opacity:1;paint-order:normal"
       d="m 525.85649,41.786695 52.31058,-0.865805 6.02765,1.107492 4.95013,3.214314 3.37638,4.84105 1.30637,5.987702 0.80325,48.531322 -1.10749,6.02766 -3.21432,4.95014 -4.84105,3.37637 -5.9877,1.30636 -52.31058,0.86581 -6.02765,-1.10749 -4.95014,-3.21432 -3.37637,-4.84105 -1.30636,-5.98771 -0.80326,-48.531319 1.1075,-6.027651 3.2143,-4.950132 4.84106,-3.376382 5.9877,-1.306361 v 0"
       id="path1912"
       inkscape:connector-curvature="0" />
    <path
       style="fill:#c7c7c7;fill-opacity:1;stroke:#1b0202;stroke-width:0.29371506;stroke-miterlimit:4;stroke-dasharray:none;stroke-dashoffset:0;stroke-opacity:1;paint-order:normal"
       d="m 523.71833,-52.292178 52.31058,-0.865805 6.02765,1.107492 4.95013,3.214313 3.37638,4.841051 1.30637,5.987702 0.80325,48.531322 -1.10749,6.027664 -3.21432,4.950131 -4.84105,3.376377 -5.9877,1.306359 -52.31058,0.86581 -6.02765,-1.10749 -4.95014,-3.21432 -3.37637,-4.841047 -1.30636,-5.987712 -0.80326,-48.531321 1.1075,-6.027651 3.2143,-4.950133 4.84106,-3.376381 5.9877,-1.306361 v 0"
       id="path1914"
       inkscape:connector-curvature="0" />
    <path
       inkscape:connector-curvature="0"
       id="path1916"
       d="m 782.48397,39.210196 h 52.31774 l 6.0085,1.207094 4.89626,3.295794 3.2958,4.896264 1.20709,6.008505 v 48.537977 l -1.20709,6.0085 -3.2958,4.89626 -4.89626,3.2958 -6.0085,1.20709 h -52.31774 l -6.00851,-1.20709 -4.89626,-3.2958 -3.29579,-4.89626 -1.2071,-6.0085 V 54.617853 l 1.2071,-6.008505 3.29579,-4.896264 4.89626,-3.295794 6.00851,-1.207094 v 0"
       style="fill:#c7c7c7;fill-opacity:1;stroke:#1b0202;stroke-width:0.29371506;stroke-miterlimit:4;stroke-dasharray:none;stroke-dashoffset:0;stroke-opacity:1;paint-order:normal" />
    <path
       style="fill:#c7c7c7;fill-opacity:1;stroke:#1b0202;stroke-width:0.29371506;stroke-miterlimit:4;stroke-dasharray:none;stroke-dashoffset:0;stroke-opacity:1;paint-order:normal"
       d="m 782.48397,-45.246973 h 52.31774 l 6.0085,1.20709 4.89626,3.295796 3.2958,4.89626 1.20709,6.008504 v 48.537978 l -1.20709,6.008504 -3.2958,4.896264 -4.89626,3.295794 -6.0085,1.207094 h -52.31774 l -6.00851,-1.207094 -4.89626,-3.295794 -3.29579,-4.896264 -1.2071,-6.008504 v -48.537978 l 1.2071,-6.008504 3.29579,-4.89626 4.89626,-3.295796 6.00851,-1.20709 v 0"
       id="path1918"
       inkscape:connector-curvature="0" />
    <path
       inkscape:connector-curvature="0"
       id="path1920"
       d="m 896.22226,46.063007 52.31058,-0.865805 6.02765,1.107492 4.95013,3.214314 3.37638,4.84105 1.30637,5.987702 0.80325,48.53132 -1.10749,6.02766 -3.21432,4.95014 -4.84105,3.37637 -5.9877,1.30636 -52.31058,0.86581 -6.02765,-1.10749 -4.95014,-3.21432 -3.37637,-4.84105 -1.30636,-5.98771 -0.80326,-48.531317 1.1075,-6.027651 3.2143,-4.950132 4.84106,-3.376382 5.9877,-1.306361 v 0"
       style="fill:#c7c7c7;fill-opacity:1;stroke:#1b0202;stroke-width:0.29371506;stroke-miterlimit:4;stroke-dasharray:none;stroke-dashoffset:0;stroke-opacity:1;paint-order:normal" />
    <path
       inkscape:connector-curvature="0"
       id="path1922"
       d="m 885.53148,-45.87771 52.31058,-0.865805 6.02765,1.107492 4.95013,3.214313 3.37638,4.841051 1.30637,5.987702 0.80325,48.531322 -1.10749,6.027664 -3.21432,4.950131 -4.84105,3.376377 -5.9877,1.306359 -52.31058,0.86581 -6.02765,-1.10749 -4.95014,-3.21432 -3.37637,-4.841047 -1.30636,-5.987712 -0.80326,-48.531321 1.1075,-6.027651 3.2143,-4.950133 4.84106,-3.376381 5.9877,-1.306361 v 0"
       style="fill:#c7c7c7;fill-opacity:1;stroke:#1b0202;stroke-width:0.29371506;stroke-miterlimit:4;stroke-dasharray:none;stroke-dashoffset:0;stroke-opacity:1;paint-order:normal" />
    <path
       style="fill:#c7c7c7;fill-opacity:1;stroke:#1b0202;stroke-width:0.29371506;stroke-miterlimit:4;stroke-dasharray:none;stroke-dashoffset:0;stroke-opacity:1;paint-order:normal"
       d="m 1168.5604,52.039134 h 52.3178 l 6.0085,1.207094 4.8962,3.295794 3.2958,4.896264 1.2071,6.008505 v 48.537979 l -1.2071,6.0085 -3.2958,4.89626 -4.8962,3.2958 -6.0085,1.20709 h -52.3178 l -6.0085,-1.20709 -4.8963,-3.2958 -3.2957,-4.89626 -1.2071,-6.0085 V 67.446791 l 1.2071,-6.008505 3.2957,-4.896264 4.8963,-3.295794 6.0085,-1.207094 v 0"
       id="path1924"
       inkscape:connector-curvature="0" />
    <path
       inkscape:connector-curvature="0"
       id="path1926"
       d="m 1160.0597,-44.50037 51.5567,-8.891444 6.1262,0.168381 5.3851,2.415739 4.08,4.264908 2.2107,5.715949 8.249,47.8318751 -0.1683,6.1262429 -2.4158,5.38516 -4.2648,4.079961 -5.716,2.210682 -51.5567,8.891444 -6.1262,-0.168385 -5.3852,-2.41572 -4.0799,-4.264929 -2.2107,-5.715948 -8.249,-47.831876 0.1683,-6.126243 2.4157,-5.385138 4.2649,-4.07998 5.716,-2.210679 v 0"
       style="fill:#c7c7c7;fill-opacity:1;stroke:#1b0202;stroke-width:0.29371506;stroke-miterlimit:4;stroke-dasharray:none;stroke-dashoffset:0;stroke-opacity:1;paint-order:normal" />
    <path
       style="fill:#c7c7c7;fill-opacity:1;stroke:#1b0202;stroke-width:0.29371506;stroke-miterlimit:4;stroke-dasharray:none;stroke-dashoffset:0;stroke-opacity:1;paint-order:normal"
       d="m 1280.1605,41.786695 52.3106,-0.865805 6.0276,1.107492 4.9502,3.214314 3.3763,4.84105 1.3064,5.987702 0.8033,48.531322 -1.1075,6.02766 -3.2143,4.95014 -4.8411,3.37637 -5.9877,1.30636 -52.3106,0.86581 -6.0276,-1.10749 -4.9502,-3.21432 -3.3763,-4.84105 -1.3064,-5.98771 -0.8033,-48.531319 1.1075,-6.027651 3.2143,-4.950132 4.8411,-3.376382 5.9877,-1.306361 v 0"
       id="path1928"
       inkscape:connector-curvature="0" />
    <path
       style="fill:#c7c7c7;fill-opacity:1;stroke:#1b0202;stroke-width:0.29371506;stroke-miterlimit:4;stroke-dasharray:none;stroke-dashoffset:0;stroke-opacity:1;paint-order:normal"
       d="m 1278.0223,-52.292178 52.3106,-0.865805 6.0277,1.107492 4.9501,3.214313 3.3764,4.841051 1.3064,5.987702 0.8032,48.531322 -1.1075,6.027664 -3.2143,4.950131 -4.8411,3.376377 -5.9877,1.306359 -52.3105,0.86581 -6.0277,-1.10749 -4.9501,-3.21432 -3.3764,-4.841047 -1.3064,-5.987712 -0.8032,-48.531321 1.1075,-6.027651 3.2143,-4.950133 4.841,-3.376381 5.9877,-1.306361 v 0"
       id="path1930"
       inkscape:connector-curvature="0" />
    <path
       style="fill:#c7c7c7;fill-opacity:1;stroke:#1b0202;stroke-width:0.29371506;stroke-miterlimit:4;stroke-dasharray:none;stroke-dashoffset:0;stroke-opacity:1;paint-order:normal"
       d="m 1181.3893,-263.30669 h 52.3177 l 6.0085,1.20709 4.8963,3.2958 3.2958,4.89626 1.2071,6.0085 v 48.53797 l -1.2071,6.00851 -3.2958,4.89626 -4.8963,3.2958 -6.0085,1.20709 h -52.3177 l -6.0085,-1.20709 -4.8963,-3.2958 -3.2958,-4.89626 -1.2071,-6.00851 v -48.53797 l 1.2071,-6.0085 3.2958,-4.89626 4.8963,-3.2958 6.0085,-1.20709 v 0"
       id="path1932"
       inkscape:connector-curvature="0" />
    <path
       style="fill:#c7c7c7;fill-opacity:1;stroke:#1b0202;stroke-width:0.29371506;stroke-miterlimit:4;stroke-dasharray:none;stroke-dashoffset:0;stroke-opacity:1;paint-order:normal"
       d="m 1271.7264,-261.19539 h 52.3177 l 6.0085,1.20709 4.8963,3.2958 3.2958,4.89626 1.2071,6.0085 v 48.53798 l -1.2071,6.0085 -3.2958,4.89627 -4.8963,3.29579 -6.0085,1.2071 h -52.3177 l -6.0085,-1.2071 -4.8963,-3.29579 -3.2958,-4.89627 -1.2071,-6.0085 v -48.53798 l 1.2071,-6.0085 3.2958,-4.89626 4.8963,-3.2958 6.0085,-1.20709 v 0"
       id="path1934"
       inkscape:connector-curvature="0" />
    <path
       style="fill:#c7c7c7;fill-opacity:1;stroke:#1b0202;stroke-width:0.29371506;stroke-miterlimit:4;stroke-dasharray:none;stroke-dashoffset:0;stroke-opacity:1;paint-order:normal"
       d="m -228.25959,-267.583 h 52.31774 l 6.0085,1.20709 4.89626,3.2958 3.2958,4.89626 1.20709,6.0085 v 48.53797 l -1.20709,6.00851 -3.2958,4.89626 -4.89626,3.2958 -6.0085,1.20709 h -52.31774 l -6.0085,-1.20709 -4.89627,-3.2958 -3.29579,-4.89626 -1.20709,-6.00851 v -48.53797 l 1.20709,-6.0085 3.29579,-4.89626 4.89627,-3.2958 6.0085,-1.20709 v 0"
       id="path1936"
       inkscape:connector-curvature="0" />
    <path
       inkscape:connector-curvature="0"
       id="path1938"
       d="m -137.92249,-267.583 h 52.317743 l 6.0085,1.20709 4.89626,3.2958 3.2958,4.89626 1.20709,6.0085 v 48.53797 l -1.20709,6.00851 -3.2958,4.89626 -4.89626,3.2958 -6.0085,1.20709 h -52.317743 l -6.0085,-1.20709 -4.89627,-3.2958 -3.29579,-4.89626 -1.2071,-6.00851 v -48.53797 l 1.2071,-6.0085 3.29579,-4.89626 4.89627,-3.2958 6.0085,-1.20709 v 0"
       style="fill:#c7c7c7;fill-opacity:1;stroke:#1b0202;stroke-width:0.29371506;stroke-miterlimit:4;stroke-dasharray:none;stroke-dashoffset:0;stroke-opacity:1;paint-order:normal" />
    <path
       style="fill:#c7c7c7;fill-opacity:1;stroke:#1b0202;stroke-width:0.29371506;stroke-miterlimit:4;stroke-dasharray:none;stroke-dashoffset:0;stroke-opacity:1;paint-order:normal"
       d="M -45.447227,-267.583 H 6.8705132 l 6.0084998,1.20709 4.89626,3.2958 3.2958,4.89626 1.20709,6.0085 v 48.53797 l -1.20709,6.00851 -3.2958,4.89626 -4.89626,3.2958 -6.0084998,1.20709 H -45.447227 l -6.0085,-1.20709 -4.89627,-3.2958 -3.29579,-4.89626 -1.2071,-6.00851 v -48.53797 l 1.2071,-6.0085 3.29579,-4.89626 4.89627,-3.2958 6.0085,-1.20709 v 0"
       id="path1940"
       inkscape:connector-curvature="0" />
    <path
       inkscape:connector-curvature="0"
       style="fill:#c7c7c7;fill-opacity:1;stroke:#000000;stroke-width:1.41646791;stroke-miterlimit:4;stroke-dasharray:none;stroke-dashoffset:0;stroke-opacity:1;paint-order:markers stroke fill"
       d="m -154.56506,-173.07505 -1.41383,807.05444 -1.55616,6.68202 -4.16837,5.44593 -6.16471,3.66679 -7.54525,1.34459 -49.19512,0.0148 -7.52836,-1.34007 -6.11861,-3.66314 -4.09982,-5.44345 -1.47207,-6.68111 1.41382,-807.07113 1.55616,-1.29385 4.16836,-2.00687 6.16472,-1.35124 7.54525,-2.16716 49.19513,-0.0159 7.52836,2.176 6.11859,1.34992 4.09984,2.00595 1.47207,1.29351 v 0"
       id="path1942"
       sodipodi:nodetypes="cccccccccccccccccccccc" />
    <path
       sodipodi:nodetypes="cccccccccccccccccccccc"
       id="path1944"
       d="m -155.01862,677.90051 -1.41383,807.05419 -1.55616,6.682 -4.16837,5.4459 -6.16471,3.6668 -7.54525,1.3446 -49.19512,0.015 -7.52836,-1.3401 -6.11861,-3.6631 -4.09982,-5.4434 -1.47207,-6.6812 1.41382,-807.07082 1.55616,-1.29385 4.16836,-2.00687 6.16472,-1.35124 7.54525,-2.16716 49.19513,-0.0159 7.52836,2.176 6.11859,1.34992 4.09984,2.00595 1.47207,1.29351 v 0"
       style="fill:#c7c7c7;fill-opacity:1;stroke:#000000;stroke-width:1.41646791;stroke-miterlimit:4;stroke-dasharray:none;stroke-dashoffset:0;stroke-opacity:1;paint-order:markers stroke fill"
       inkscape:connector-curvature="0" />
    <path
       style="fill:#c7c7c7;fill-opacity:1;stroke:#1b0202;stroke-width:0.29371506;stroke-miterlimit:4;stroke-dasharray:none;stroke-dashoffset:0;stroke-opacity:1;paint-order:normal"
       d="m 73.220439,1415.1459 h 52.317741 l 6.0085,1.2071 4.89626,3.2958 3.2958,4.8963 1.20709,6.0085 v 48.538 l -1.20709,6.0085 -3.2958,4.8962 -4.89626,3.2958 -6.0085,1.2071 H 73.220439 l -6.008505,-1.2071 -4.896264,-3.2958 -3.295794,-4.8962 -1.207094,-6.0085 v -48.538 l 1.207094,-6.0085 3.295794,-4.8963 4.896264,-3.2958 6.008505,-1.2071 v 0"
       id="path1946"
       inkscape:connector-curvature="0" />
    <path
       inkscape:connector-curvature="0"
       id="path1948"
       d="m 163.55754,1415.1459 h 52.31774 l 6.0085,1.2071 4.89626,3.2958 3.2958,4.8963 1.20709,6.0085 v 48.538 l -1.20709,6.0085 -3.2958,4.8962 -4.89626,3.2958 -6.0085,1.2071 h -52.31774 l -6.0085,-1.2071 -4.89627,-3.2958 -3.29579,-4.8962 -1.2071,-6.0085 v -48.538 l 1.2071,-6.0085 3.29579,-4.8963 4.89627,-3.2958 6.0085,-1.2071 v 0"
       style="fill:#c7c7c7;fill-opacity:1;stroke:#1b0202;stroke-width:0.29371506;stroke-miterlimit:4;stroke-dasharray:none;stroke-dashoffset:0;stroke-opacity:1;paint-order:normal" />
    <path
       style="fill:#c7c7c7;fill-opacity:1;stroke:#1b0202;stroke-width:0.29371506;stroke-miterlimit:4;stroke-dasharray:none;stroke-dashoffset:0;stroke-opacity:1;paint-order:normal"
       d="m 256.0328,1415.1459 h 52.31774 l 6.0085,1.2071 4.89626,3.2958 3.2958,4.8963 1.20709,6.0085 v 48.538 l -1.20709,6.0085 -3.2958,4.8962 -4.89626,3.2958 -6.0085,1.2071 H 256.0328 l -6.0085,-1.2071 -4.89627,-3.2958 -3.29579,-4.8962 -1.2071,-6.0085 v -48.538 l 1.2071,-6.0085 3.29579,-4.8963 4.89627,-3.2958 6.0085,-1.2071 v 0"
       id="path1950"
       inkscape:connector-curvature="0" />
    <path
       style="fill:#c7c7c7;fill-opacity:1;stroke:#1b0202;stroke-width:0.29371506;stroke-miterlimit:4;stroke-dasharray:none;stroke-dashoffset:0;stroke-opacity:1;paint-order:normal"
       d="m 346.3699,1417.2572 h 52.31774 l 6.0085,1.2071 4.89626,3.2958 3.2958,4.8963 1.20709,6.0085 v 48.538 l -1.20709,6.0085 -3.2958,4.8962 -4.89626,3.2958 -6.0085,1.2071 H 346.3699 l -6.00851,-1.2071 -4.89626,-3.2958 -3.29579,-4.8962 -1.2071,-6.0085 v -48.538 l 1.2071,-6.0085 3.29579,-4.8963 4.89626,-3.2958 6.00851,-1.2071 v 0"
       id="path1952"
       inkscape:connector-curvature="0" />
    <path
       inkscape:connector-curvature="0"
       id="path1954"
       d="m 445.25962,1415.1459 h 52.31774 l 6.0085,1.2071 4.89626,3.2958 3.2958,4.8963 1.20709,6.0085 v 48.538 l -1.20709,6.0085 -3.2958,4.8962 -4.89626,3.2958 -6.0085,1.2071 h -52.31774 l -6.0085,-1.2071 -4.89627,-3.2958 -3.29579,-4.8962 -1.2071,-6.0085 v -48.538 l 1.2071,-6.0085 3.29579,-4.8963 4.89627,-3.2958 6.0085,-1.2071 v 0"
       style="fill:#c7c7c7;fill-opacity:1;stroke:#1b0202;stroke-width:0.29371506;stroke-miterlimit:4;stroke-dasharray:none;stroke-dashoffset:0;stroke-opacity:1;paint-order:normal" />
    <path
       style="fill:#c7c7c7;fill-opacity:1;stroke:#1b0202;stroke-width:0.29371506;stroke-miterlimit:4;stroke-dasharray:none;stroke-dashoffset:0;stroke-opacity:1;paint-order:normal"
       d="m 535.59672,1415.1459 h 52.31774 l 6.0085,1.2071 4.89626,3.2958 3.2958,4.8963 1.20709,6.0085 v 48.538 l -1.20709,6.0085 -3.2958,4.8962 -4.89626,3.2958 -6.0085,1.2071 h -52.31774 l -6.0085,-1.2071 -4.89627,-3.2958 -3.29579,-4.8962 -1.2071,-6.0085 v -48.538 l 1.2071,-6.0085 3.29579,-4.8963 4.89627,-3.2958 6.0085,-1.2071 v 0"
       id="path1956"
       inkscape:connector-curvature="0" />
    <path
       inkscape:connector-curvature="0"
       id="path1958"
       d="m 628.07198,1415.1459 h 52.31774 l 6.0085,1.2071 4.89626,3.2958 3.2958,4.8963 1.20709,6.0085 v 48.538 l -1.20709,6.0085 -3.2958,4.8962 -4.89626,3.2958 -6.0085,1.2071 h -52.31774 l -6.0085,-1.2071 -4.89627,-3.2958 -3.29579,-4.8962 -1.2071,-6.0085 v -48.538 l 1.2071,-6.0085 3.29579,-4.8963 4.89627,-3.2958 6.0085,-1.2071 v 0"
       style="fill:#c7c7c7;fill-opacity:1;stroke:#1b0202;stroke-width:0.29371506;stroke-miterlimit:4;stroke-dasharray:none;stroke-dashoffset:0;stroke-opacity:1;paint-order:normal" />
    <path
       inkscape:connector-curvature="0"
       id="path1960"
       d="m 722.64244,1416.1989 h 52.31774 l 6.0085,1.2071 4.89626,3.2958 3.2958,4.8963 1.20709,6.0085 v 48.5379 l -1.20709,6.0085 -3.2958,4.8963 -4.89626,3.2958 -6.0085,1.2071 h -52.31774 l -6.00851,-1.2071 -4.89626,-3.2958 -3.29579,-4.8963 -1.2071,-6.0085 v -48.5379 l 1.2071,-6.0085 3.29579,-4.8963 4.89626,-3.2958 6.00851,-1.2071 v 0"
       style="fill:#c7c7c7;fill-opacity:1;stroke:#1b0202;stroke-width:0.29371506;stroke-miterlimit:4;stroke-dasharray:none;stroke-dashoffset:0;stroke-opacity:1;paint-order:normal" />
    <path
       style="fill:#c7c7c7;fill-opacity:1;stroke:#1b0202;stroke-width:0.29371506;stroke-miterlimit:4;stroke-dasharray:none;stroke-dashoffset:0;stroke-opacity:1;paint-order:normal"
       d="m 819.9017,1415.1459 h 52.31774 l 6.0085,1.2071 4.89626,3.2958 3.2958,4.8963 1.20709,6.0085 v 48.538 l -1.20709,6.0085 -3.2958,4.8962 -4.89626,3.2958 -6.0085,1.2071 H 819.9017 l -6.0085,-1.2071 -4.89627,-3.2958 -3.29579,-4.8962 -1.2071,-6.0085 v -48.538 l 1.2071,-6.0085 3.29579,-4.8963 4.89627,-3.2958 6.0085,-1.2071 v 0"
       id="path1962"
       inkscape:connector-curvature="0" />
    <path
       inkscape:connector-curvature="0"
       id="path1964"
       d="m 912.35548,1415.1459 h 52.31774 l 6.0085,1.2071 4.89626,3.2958 3.2958,4.8963 1.20709,6.0085 v 48.538 l -1.20709,6.0085 -3.2958,4.8962 -4.89626,3.2958 -6.0085,1.2071 h -52.31774 l -6.0085,-1.2071 -4.89627,-3.2958 -3.29579,-4.8962 -1.2071,-6.0085 v -48.538 l 1.2071,-6.0085 3.29579,-4.8963 4.89627,-3.2958 6.0085,-1.2071 v 0"
       style="fill:#c7c7c7;fill-opacity:1;stroke:#1b0202;stroke-width:0.29371506;stroke-miterlimit:4;stroke-dasharray:none;stroke-dashoffset:0;stroke-opacity:1;paint-order:normal" />
    <path
       style="fill:#c7c7c7;fill-opacity:1;stroke:#1b0202;stroke-width:0.29371506;stroke-miterlimit:4;stroke-dasharray:none;stroke-dashoffset:0;stroke-opacity:1;paint-order:normal"
       d="m 1008.0058,1415.1459 h 52.3183 l 6.0085,1.2071 4.8963,3.2958 3.2958,4.8963 1.2071,6.0085 v 48.538 l -1.2071,6.0085 -3.2958,4.8962 -4.8963,3.2958 -6.0085,1.2071 h -52.3183 l -6.0085,-1.2071 -4.89631,-3.2958 -3.29579,-4.8962 -1.2071,-6.0085 v -48.538 l 1.2071,-6.0085 3.29579,-4.8963 4.89631,-3.2958 6.0085,-1.2071 v 0"
       id="path1966"
       inkscape:connector-curvature="0" />
    <path
       style="fill:#c7c7c7;fill-opacity:1;stroke:#1b0202;stroke-width:0.29371506;stroke-miterlimit:4;stroke-dasharray:none;stroke-dashoffset:0;stroke-opacity:1;paint-order:normal"
       d="m 1102.0479,1417.2572 h 52.3177 l 6.0085,1.2071 4.8963,3.2958 3.2958,4.8963 1.2071,6.0085 v 48.538 l -1.2071,6.0085 -3.2958,4.8962 -4.8963,3.2958 -6.0085,1.2071 h -52.3177 l -6.0085,-1.2071 -4.8963,-3.2958 -3.2958,-4.8962 -1.2071,-6.0085 v -48.538 l 1.2071,-6.0085 3.2958,-4.8963 4.8963,-3.2958 6.0085,-1.2071 v 0"
       id="path1968"
       inkscape:connector-curvature="0" />
    <path
       inkscape:connector-curvature="0"
       id="path1970"
       d="m 1198.4945,1419.4223 h 52.3177 l 6.0085,1.207 4.8963,3.2958 3.2958,4.8963 1.2071,6.0085 v 48.538 l -1.2071,6.0085 -3.2958,4.8962 -4.8963,3.2958 -6.0085,1.2071 h -52.3177 l -6.0085,-1.2071 -4.8963,-3.2958 -3.2958,-4.8962 -1.2071,-6.0085 v -48.538 l 1.2071,-6.0085 3.2958,-4.8963 4.8963,-3.2958 6.0085,-1.207 v 0"
       style="fill:#c7c7c7;fill-opacity:1;stroke:#1b0202;stroke-width:0.29371506;stroke-miterlimit:4;stroke-dasharray:none;stroke-dashoffset:0;stroke-opacity:1;paint-order:normal" />
    <path
       inkscape:connector-curvature="0"
       id="path1972"
       d="m 1288.8316,1421.5336 h 52.3177 l 6.0085,1.207 4.8963,3.2958 3.2958,4.8963 1.2071,6.0085 v 48.538 l -1.2071,6.0085 -3.2958,4.8963 -4.8963,3.2957 -6.0085,1.2071 h -52.3177 l -6.0085,-1.2071 -4.8963,-3.2957 -3.2958,-4.8963 -1.2071,-6.0085 v -48.538 l 1.2071,-6.0085 3.2958,-4.8963 4.8963,-3.2958 6.0085,-1.207 v 0"
       style="fill:#c7c7c7;fill-opacity:1;stroke:#1b0202;stroke-width:0.29371506;stroke-miterlimit:4;stroke-dasharray:none;stroke-dashoffset:0;stroke-opacity:1;paint-order:normal" />
    <path
       style="fill:#c7c7c7;fill-opacity:1;stroke:#1b0202;stroke-width:0.29371506;stroke-miterlimit:4;stroke-dasharray:none;stroke-dashoffset:0;stroke-opacity:1;paint-order:normal"
       d="m -120.81724,1415.1459 h 52.317743 l 6.0085,1.2071 4.89626,3.2958 3.2958,4.8963 1.20709,6.0085 v 48.538 l -1.20709,6.0085 -3.2958,4.8962 -4.89626,3.2958 -6.0085,1.2071 h -52.317743 l -6.0085,-1.2071 -4.89627,-3.2958 -3.29579,-4.8962 -1.2071,-6.0085 v -48.538 l 1.2071,-6.0085 3.29579,-4.8963 4.89627,-3.2958 6.0085,-1.2071 v 0"
       id="path1974"
       inkscape:connector-curvature="0" />
    <path
       inkscape:connector-curvature="0"
       id="path1976"
       d="m -28.341977,1415.1459 h 52.31774 l 6.0085,1.2071 4.89626,3.2958 3.2958,4.8963 1.20709,6.0085 v 48.538 l -1.20709,6.0085 -3.2958,4.8962 -4.89626,3.2958 -6.0085,1.2071 h -52.31774 l -6.0085,-1.2071 -4.89627,-3.2958 -3.29579,-4.8962 -1.2071,-6.0085 v -48.538 l 1.2071,-6.0085 3.29579,-4.8963 4.89627,-3.2958 6.0085,-1.2071 v 0"
       style="fill:#c7c7c7;fill-opacity:1;stroke:#1b0202;stroke-width:0.29371506;stroke-miterlimit:4;stroke-dasharray:none;stroke-dashoffset:0;stroke-opacity:1;paint-order:normal" />
    <path
       inkscape:connector-curvature="0"
       id="path1978"
       d="m 73.220439,1310.3762 h 52.317741 l 6.0085,1.2071 4.89626,3.2958 3.2958,4.8963 1.20709,6.0085 v 48.538 l -1.20709,6.0085 -3.2958,4.8962 -4.89626,3.2958 -6.0085,1.2071 H 73.220439 l -6.008505,-1.2071 -4.896264,-3.2958 -3.295794,-4.8962 -1.207094,-6.0085 v -48.538 l 1.207094,-6.0085 3.295794,-4.8963 4.896264,-3.2958 6.008505,-1.2071 v 0"
       style="fill:#c7c7c7;fill-opacity:1;stroke:#1b0202;stroke-width:0.29371506;stroke-miterlimit:4;stroke-dasharray:none;stroke-dashoffset:0;stroke-opacity:1;paint-order:normal" />
    <path
       style="fill:#c7c7c7;fill-opacity:1;stroke:#1b0202;stroke-width:0.29371506;stroke-miterlimit:4;stroke-dasharray:none;stroke-dashoffset:0;stroke-opacity:1;paint-order:normal"
       d="m 163.55754,1310.3762 h 52.31774 l 6.0085,1.2071 4.89626,3.2958 3.2958,4.8963 1.20709,6.0085 v 48.538 l -1.20709,6.0085 -3.2958,4.8962 -4.89626,3.2958 -6.0085,1.2071 h -52.31774 l -6.0085,-1.2071 -4.89627,-3.2958 -3.29579,-4.8962 -1.2071,-6.0085 v -48.538 l 1.2071,-6.0085 3.29579,-4.8963 4.89627,-3.2958 6.0085,-1.2071 v 0"
       id="path1980"
       inkscape:connector-curvature="0" />
    <path
       inkscape:connector-curvature="0"
       id="path1982"
       d="m 256.0328,1310.3762 h 52.31774 l 6.0085,1.2071 4.89626,3.2958 3.2958,4.8963 1.20709,6.0085 v 48.538 l -1.20709,6.0085 -3.2958,4.8962 -4.89626,3.2958 -6.0085,1.2071 H 256.0328 l -6.0085,-1.2071 -4.89627,-3.2958 -3.29579,-4.8962 -1.2071,-6.0085 v -48.538 l 1.2071,-6.0085 3.29579,-4.8963 4.89627,-3.2958 6.0085,-1.2071 v 0"
       style="fill:#c7c7c7;fill-opacity:1;stroke:#1b0202;stroke-width:0.29371506;stroke-miterlimit:4;stroke-dasharray:none;stroke-dashoffset:0;stroke-opacity:1;paint-order:normal" />
    <path
       inkscape:connector-curvature="0"
       id="path1984"
       d="m 346.3699,1312.4875 h 52.31774 l 6.0085,1.2071 4.89626,3.2958 3.2958,4.8963 1.20709,6.0085 v 48.538 l -1.20709,6.0085 -3.2958,4.8962 -4.89626,3.2958 -6.0085,1.2071 H 346.3699 l -6.00851,-1.2071 -4.89626,-3.2958 -3.29579,-4.8962 -1.2071,-6.0085 v -48.538 l 1.2071,-6.0085 3.29579,-4.8963 4.89626,-3.2958 6.00851,-1.2071 v 0"
       style="fill:#c7c7c7;fill-opacity:1;stroke:#1b0202;stroke-width:0.29371506;stroke-miterlimit:4;stroke-dasharray:none;stroke-dashoffset:0;stroke-opacity:1;paint-order:normal" />
    <path
       style="fill:#c7c7c7;fill-opacity:1;stroke:#1b0202;stroke-width:0.29371506;stroke-miterlimit:4;stroke-dasharray:none;stroke-dashoffset:0;stroke-opacity:1;paint-order:normal"
       d="m 445.25962,1310.3762 h 52.31774 l 6.0085,1.2071 4.89626,3.2958 3.2958,4.8963 1.20709,6.0085 v 48.538 l -1.20709,6.0085 -3.2958,4.8962 -4.89626,3.2958 -6.0085,1.2071 h -52.31774 l -6.0085,-1.2071 -4.89627,-3.2958 -3.29579,-4.8962 -1.2071,-6.0085 v -48.538 l 1.2071,-6.0085 3.29579,-4.8963 4.89627,-3.2958 6.0085,-1.2071 v 0"
       id="path1986"
       inkscape:connector-curvature="0" />
    <path
       inkscape:connector-curvature="0"
       id="path1988"
       d="m 535.59672,1310.3762 h 52.31774 l 6.0085,1.2071 4.89626,3.2958 3.2958,4.8963 1.20709,6.0085 v 48.538 l -1.20709,6.0085 -3.2958,4.8962 -4.89626,3.2958 -6.0085,1.2071 h -52.31774 l -6.0085,-1.2071 -4.89627,-3.2958 -3.29579,-4.8962 -1.2071,-6.0085 v -48.538 l 1.2071,-6.0085 3.29579,-4.8963 4.89627,-3.2958 6.0085,-1.2071 v 0"
       style="fill:#c7c7c7;fill-opacity:1;stroke:#1b0202;stroke-width:0.29371506;stroke-miterlimit:4;stroke-dasharray:none;stroke-dashoffset:0;stroke-opacity:1;paint-order:normal" />
    <path
       style="fill:#c7c7c7;fill-opacity:1;stroke:#1b0202;stroke-width:0.29371506;stroke-miterlimit:4;stroke-dasharray:none;stroke-dashoffset:0;stroke-opacity:1;paint-order:normal"
       d="m 628.07198,1310.3762 h 52.31774 l 6.0085,1.2071 4.89626,3.2958 3.2958,4.8963 1.20709,6.0085 v 48.538 l -1.20709,6.0085 -3.2958,4.8962 -4.89626,3.2958 -6.0085,1.2071 h -52.31774 l -6.0085,-1.2071 -4.89627,-3.2958 -3.29579,-4.8962 -1.2071,-6.0085 v -48.538 l 1.2071,-6.0085 3.29579,-4.8963 4.89627,-3.2958 6.0085,-1.2071 v 0"
       id="path1990"
       inkscape:connector-curvature="0" />
    <path
       style="fill:#c7c7c7;fill-opacity:1;stroke:#1b0202;stroke-width:0.29371506;stroke-miterlimit:4;stroke-dasharray:none;stroke-dashoffset:0;stroke-opacity:1;paint-order:normal"
       d="m 722.64244,1311.4292 h 52.31774 l 6.0085,1.2071 4.89626,3.2958 3.2958,4.8963 1.20709,6.0085 v 48.5379 l -1.20709,6.0085 -3.2958,4.8963 -4.89626,3.2958 -6.0085,1.2071 h -52.31774 l -6.00851,-1.2071 -4.89626,-3.2958 -3.29579,-4.8963 -1.2071,-6.0085 v -48.5379 l 1.2071,-6.0085 3.29579,-4.8963 4.89626,-3.2958 6.00851,-1.2071 v 0"
       id="path1992"
       inkscape:connector-curvature="0" />
    <path
       inkscape:connector-curvature="0"
       id="path1994"
       d="m 819.9017,1310.3762 h 52.31774 l 6.0085,1.2071 4.89626,3.2958 3.2958,4.8963 1.20709,6.0085 v 48.538 l -1.20709,6.0085 -3.2958,4.8962 -4.89626,3.2958 -6.0085,1.2071 H 819.9017 l -6.0085,-1.2071 -4.89627,-3.2958 -3.29579,-4.8962 -1.2071,-6.0085 v -48.538 l 1.2071,-6.0085 3.29579,-4.8963 4.89627,-3.2958 6.0085,-1.2071 v 0"
       style="fill:#c7c7c7;fill-opacity:1;stroke:#1b0202;stroke-width:0.29371506;stroke-miterlimit:4;stroke-dasharray:none;stroke-dashoffset:0;stroke-opacity:1;paint-order:normal" />
    <path
       style="fill:#c7c7c7;fill-opacity:1;stroke:#1b0202;stroke-width:0.29371506;stroke-miterlimit:4;stroke-dasharray:none;stroke-dashoffset:0;stroke-opacity:1;paint-order:normal"
       d="m 912.35548,1310.3762 h 52.31774 l 6.0085,1.2071 4.89626,3.2958 3.2958,4.8963 1.20709,6.0085 v 48.538 l -1.20709,6.0085 -3.2958,4.8962 -4.89626,3.2958 -6.0085,1.2071 h -52.31774 l -6.0085,-1.2071 -4.89627,-3.2958 -3.29579,-4.8962 -1.2071,-6.0085 v -48.538 l 1.2071,-6.0085 3.29579,-4.8963 4.89627,-3.2958 6.0085,-1.2071 v 0"
       id="path1996"
       inkscape:connector-curvature="0" />
    <path
       inkscape:connector-curvature="0"
       id="path1998"
       d="m 1008.0058,1310.3762 h 52.3183 l 6.0085,1.2071 4.8963,3.2958 3.2958,4.8963 1.2071,6.0085 v 48.538 l -1.2071,6.0085 -3.2958,4.8962 -4.8963,3.2958 -6.0085,1.2071 h -52.3183 l -6.0085,-1.2071 -4.89631,-3.2958 -3.29579,-4.8962 -1.2071,-6.0085 v -48.538 l 1.2071,-6.0085 3.29579,-4.8963 4.89631,-3.2958 6.0085,-1.2071 v 0"
       style="fill:#c7c7c7;fill-opacity:1;stroke:#1b0202;stroke-width:0.29371506;stroke-miterlimit:4;stroke-dasharray:none;stroke-dashoffset:0;stroke-opacity:1;paint-order:normal" />
    <path
       inkscape:connector-curvature="0"
       id="path2000"
       d="m 1102.0479,1312.4875 h 52.3177 l 6.0085,1.2071 4.8963,3.2958 3.2958,4.8963 1.2071,6.0085 v 48.538 l -1.2071,6.0085 -3.2958,4.8962 -4.8963,3.2958 -6.0085,1.2071 h -52.3177 l -6.0085,-1.2071 -4.8963,-3.2958 -3.2958,-4.8962 -1.2071,-6.0085 v -48.538 l 1.2071,-6.0085 3.2958,-4.8963 4.8963,-3.2958 6.0085,-1.2071 v 0"
       style="fill:#c7c7c7;fill-opacity:1;stroke:#1b0202;stroke-width:0.29371506;stroke-miterlimit:4;stroke-dasharray:none;stroke-dashoffset:0;stroke-opacity:1;paint-order:normal" />
    <path
       style="fill:#c7c7c7;fill-opacity:1;stroke:#1b0202;stroke-width:0.29371506;stroke-miterlimit:4;stroke-dasharray:none;stroke-dashoffset:0;stroke-opacity:1;paint-order:normal"
       d="m 1198.4945,1314.6526 h 52.3177 l 6.0085,1.207 4.8963,3.2958 3.2958,4.8963 1.2071,6.0085 v 48.538 l -1.2071,6.0085 -3.2958,4.8962 -4.8963,3.2958 -6.0085,1.2071 h -52.3177 l -6.0085,-1.2071 -4.8963,-3.2958 -3.2958,-4.8962 -1.2071,-6.0085 v -48.538 l 1.2071,-6.0085 3.2958,-4.8963 4.8963,-3.2958 6.0085,-1.207 v 0"
       id="path2002"
       inkscape:connector-curvature="0" />
    <path
       style="fill:#c7c7c7;fill-opacity:1;stroke:#1b0202;stroke-width:0.29371506;stroke-miterlimit:4;stroke-dasharray:none;stroke-dashoffset:0;stroke-opacity:1;paint-order:normal"
       d="m 1288.8316,1316.7639 h 52.3177 l 6.0085,1.207 4.8963,3.2958 3.2958,4.8963 1.2071,6.0085 v 48.538 l -1.2071,6.0085 -3.2958,4.8963 -4.8963,3.2957 -6.0085,1.2071 h -52.3177 l -6.0085,-1.2071 -4.8963,-3.2957 -3.2958,-4.8963 -1.2071,-6.0085 v -48.538 l 1.2071,-6.0085 3.2958,-4.8963 4.8963,-3.2958 6.0085,-1.207 v 0"
       id="path2004"
       inkscape:connector-curvature="0" />
    <path
       inkscape:connector-curvature="0"
       id="path2006"
       d="m -120.81724,1310.3762 h 52.317743 l 6.0085,1.2071 4.89626,3.2958 3.2958,4.8963 1.20709,6.0085 v 48.538 l -1.20709,6.0085 -3.2958,4.8962 -4.89626,3.2958 -6.0085,1.2071 h -52.317743 l -6.0085,-1.2071 -4.89627,-3.2958 -3.29579,-4.8962 -1.2071,-6.0085 v -48.538 l 1.2071,-6.0085 3.29579,-4.8963 4.89627,-3.2958 6.0085,-1.2071 v 0"
       style="fill:#c7c7c7;fill-opacity:1;stroke:#1b0202;stroke-width:0.29371506;stroke-miterlimit:4;stroke-dasharray:none;stroke-dashoffset:0;stroke-opacity:1;paint-order:normal" />
    <path
       style="fill:#c7c7c7;fill-opacity:1;stroke:#1b0202;stroke-width:0.29371506;stroke-miterlimit:4;stroke-dasharray:none;stroke-dashoffset:0;stroke-opacity:1;paint-order:normal"
       d="m -28.341977,1310.3762 h 52.31774 l 6.0085,1.2071 4.89626,3.2958 3.2958,4.8963 1.20709,6.0085 v 48.538 l -1.20709,6.0085 -3.2958,4.8962 -4.89626,3.2958 -6.0085,1.2071 h -52.31774 l -6.0085,-1.2071 -4.89627,-3.2958 -3.29579,-4.8962 -1.2071,-6.0085 v -48.538 l 1.2071,-6.0085 3.29579,-4.8963 4.89627,-3.2958 6.0085,-1.2071 v 0"
       id="path2008"
       inkscape:connector-curvature="0" />
    <path
       style="fill:#c7c7c7;fill-opacity:1;stroke:#1b0202;stroke-width:0.29371506;stroke-miterlimit:4;stroke-dasharray:none;stroke-dashoffset:0;stroke-opacity:1;paint-order:normal"
       d="m 1382.1464,-265.4717 h 52.3177 l 6.0085,1.20709 4.8963,3.2958 3.2958,4.89626 1.2071,6.0085 v 48.53798 l -1.2071,6.0085 -3.2958,4.89627 -4.8963,3.29579 -6.0085,1.2071 h -52.3177 l -6.0085,-1.2071 -4.8963,-3.29579 -3.2958,-4.89627 -1.2071,-6.0085 v -48.53798 l 1.2071,-6.0085 3.2958,-4.89626 4.8963,-3.2958 6.0085,-1.20709 v 0"
       id="path2010"
       inkscape:connector-curvature="0" />
    <path
       inkscape:connector-curvature="0"
       id="path2012"
       d="m 1478.593,-263.30669 h 52.3177 l 6.0085,1.20709 4.8963,3.2958 3.2958,4.89626 1.2071,6.0085 v 48.53797 l -1.2071,6.00851 -3.2958,4.89626 -4.8963,3.2958 -6.0085,1.20709 h -52.3177 l -6.0085,-1.20709 -4.8963,-3.2958 -3.2958,-4.89626 -1.2071,-6.00851 v -48.53797 l 1.2071,-6.0085 3.2958,-4.89626 4.8963,-3.2958 6.0085,-1.20709 v 0"
       style="fill:#c7c7c7;fill-opacity:1;stroke:#1b0202;stroke-width:0.29371506;stroke-miterlimit:4;stroke-dasharray:none;stroke-dashoffset:0;stroke-opacity:1;paint-order:normal" />
    <path
       inkscape:connector-curvature="0"
       id="path2014"
       d="m 1568.9301,-261.19539 h 52.3177 l 6.0085,1.20709 4.8963,3.2958 3.2958,4.89626 1.2071,6.0085 v 48.53798 l -1.2071,6.0085 -3.2958,4.89627 -4.8963,3.29579 -6.0085,1.2071 h -52.3177 l -6.0085,-1.2071 -4.8963,-3.29579 -3.2958,-4.89627 -1.2071,-6.0085 v -48.53798 l 1.2071,-6.0085 3.2958,-4.89626 4.8963,-3.2958 6.0085,-1.20709 v 0"
       style="fill:#c7c7c7;fill-opacity:1;stroke:#1b0202;stroke-width:0.29371506;stroke-miterlimit:4;stroke-dasharray:none;stroke-dashoffset:0;stroke-opacity:1;paint-order:normal" />
    <path
       sodipodi:nodetypes="cccccccccccccccccccccc"
       id="path2016"
       d="m 1641.4862,-164.52243 -1.4139,807.05444 -1.5561,6.68202 -4.1684,5.44593 -6.1647,3.66679 -7.5453,1.34459 -49.1951,0.0148 -7.5283,-1.34007 -6.1186,-3.66314 -4.0999,-5.44345 -1.472,-6.68111 1.4138,-807.07113 1.5561,-1.29385 4.1684,-2.00687 6.1647,-1.35124 7.5453,-2.16716 49.1951,-0.0159 7.5284,2.176 6.1186,1.34992 4.0998,2.00595 1.4721,1.29351 v 0"
       style="fill:#c7c7c7;fill-opacity:1;stroke:#000000;stroke-width:1.41646791;stroke-miterlimit:4;stroke-dasharray:none;stroke-dashoffset:0;stroke-opacity:1;paint-order:markers stroke fill"
       inkscape:connector-curvature="0" />
    <path
       inkscape:connector-curvature="0"
       style="fill:#c7c7c7;fill-opacity:1;stroke:#000000;stroke-width:1.41646791;stroke-miterlimit:4;stroke-dasharray:none;stroke-dashoffset:0;stroke-opacity:1;paint-order:markers stroke fill"
       d="m 1641.0326,677.5002 -1.4138,807.0534 -1.5562,6.682 -4.1684,5.4459 -6.1647,3.6668 -7.5452,1.3446 -49.1951,0.015 -7.5284,-1.3401 -6.1186,-3.6631 -4.0998,-5.4434 -1.4721,-6.6812 1.4138,-807.07003 1.5562,-1.29385 4.1683,-2.00687 6.1648,-1.35124 7.5452,-2.16716 49.1951,-0.0159 7.5284,2.176 6.1186,1.34992 4.0998,2.00595 1.4721,1.29351 v 0"
       id="path2018"
       sodipodi:nodetypes="cccccccccccccccccccccc" />
    <path
       style="fill:#c7c7c7;fill-opacity:1;stroke:#1b0202;stroke-width:0.29371506;stroke-miterlimit:4;stroke-dasharray:none;stroke-dashoffset:0;stroke-opacity:1;paint-order:normal"
       d="m 1384.5141,1419.4223 h 52.3177 l 6.0085,1.207 4.8963,3.2958 3.2958,4.8963 1.2071,6.0085 v 48.538 l -1.2071,6.0085 -3.2958,4.8962 -4.8963,3.2958 -6.0085,1.2071 h -52.3177 l -6.0085,-1.2071 -4.8963,-3.2958 -3.2958,-4.8962 -1.2071,-6.0085 v -48.538 l 1.2071,-6.0085 3.2958,-4.8963 4.8963,-3.2958 6.0085,-1.207 v 0"
       id="path2020"
       inkscape:connector-curvature="0" />
    <path
       style="fill:#c7c7c7;fill-opacity:1;stroke:#1b0202;stroke-width:0.29371506;stroke-miterlimit:4;stroke-dasharray:none;stroke-dashoffset:0;stroke-opacity:1;paint-order:normal"
       d="m 1474.8512,1421.5336 h 52.3177 l 6.0085,1.207 4.8963,3.2958 3.2958,4.8963 1.2071,6.0085 v 48.538 l -1.2071,6.0085 -3.2958,4.8963 -4.8963,3.2957 -6.0085,1.2071 h -52.3177 l -6.0085,-1.2071 -4.8963,-3.2957 -3.2958,-4.8963 -1.2071,-6.0085 v -48.538 l 1.2071,-6.0085 3.2958,-4.8963 4.8963,-3.2958 6.0085,-1.207 v 0"
       id="path2022"
       inkscape:connector-curvature="0" />
    <path
       inkscape:connector-curvature="0"
       id="path2024"
       d="m 1384.5141,1314.6526 h 52.3177 l 6.0085,1.207 4.8963,3.2958 3.2958,4.8963 1.2071,6.0085 v 48.538 l -1.2071,6.0085 -3.2958,4.8962 -4.8963,3.2958 -6.0085,1.2071 h -52.3177 l -6.0085,-1.2071 -4.8963,-3.2958 -3.2958,-4.8962 -1.2071,-6.0085 v -48.538 l 1.2071,-6.0085 3.2958,-4.8963 4.8963,-3.2958 6.0085,-1.207 v 0"
       style="fill:#c7c7c7;fill-opacity:1;stroke:#1b0202;stroke-width:0.29371506;stroke-miterlimit:4;stroke-dasharray:none;stroke-dashoffset:0;stroke-opacity:1;paint-order:normal" />
    <path
       inkscape:connector-curvature="0"
       id="path2026"
       d="m 1474.8512,1316.7639 h 52.3177 l 6.0085,1.207 4.8963,3.2958 3.2958,4.8963 1.2071,6.0085 v 48.538 l -1.2071,6.0085 -3.2958,4.8963 -4.8963,3.2957 -6.0085,1.2071 h -52.3177 l -6.0085,-1.2071 -4.8963,-3.2957 -3.2958,-4.8963 -1.2071,-6.0085 v -48.538 l 1.2071,-6.0085 3.2958,-4.8963 4.8963,-3.2958 6.0085,-1.207 v 0"
       style="fill:#c7c7c7;fill-opacity:1;stroke:#1b0202;stroke-width:0.29371506;stroke-miterlimit:4;stroke-dasharray:none;stroke-dashoffset:0;stroke-opacity:1;paint-order:normal" />
  </g>
</svg>
